  0
SECTION
  2
BLOCKS
  0
ENDSEC
  0
SECTION
  2
ENTITIES
  0
LINE
  8
0
 10
4.5
 11
4.5
 20
18
 21
74.1
  0
LINE
  8
0
 10
4.5
 11
7.5
 20
74.1
 21
74.1
  0
LINE
  8
0
 10
7.5
 11
7.5
 20
74.1
 21
83.1
  0
LINE
  8
0
 10
7.5
 11
13.5
 20
83.1
 21
83.1
  0
LINE
  8
0
 10
13.5
 11
13.5
 20
83.1
 21
86
  0
LINE
  8
0
 10
13.5
 11
159.6
 20
86
 21
86
  0
LINE
  8
0
 10
159.6
 11
159.6
 20
86
 21
83.1
  0
LINE
  8
0
 10
159.6
 11
165.6
 20
83.1
 21
83.1
  0
LINE
  8
0
 10
165.6
 11
165.6
 20
83.1
 21
74.1
  0
LINE
  8
0
 10
165.6
 11
168.5
 20
74.1
 21
74.1
  0
LINE
  8
0
 10
168.5
 11
168.5
 20
74.1
 21
18
  0
LINE
  8
0
 10
168.5
 11
165.6
 20
18
 21
18
  0
LINE
  8
0
 10
165.6
 11
165.6
 20
18
 21
9
  0
LINE
  8
0
 10
165.6
 11
159.6
 20
9
 21
9
  0
LINE
  8
0
 10
159.6
 11
159.6
 20
9
 21
6
  0
LINE
  8
0
 10
159.6
 11
13.5
 20
6
 21
6
  0
LINE
  8
0
 10
13.5
 11
13.5
 20
6
 21
9
  0
LINE
  8
0
 10
13.5
 11
7.5
 20
9
 21
9
  0
LINE
  8
0
 10
7.5
 11
7.5
 20
9
 21
18
  0
LINE
  8
0
 10
7.5
 11
4.5
 20
18
 21
18
  0
LINE
  8
0
 10
4.5
 11
4.5
 20
101
 21
157.1
  0
LINE
  8
0
 10
4.5
 11
7.5
 20
157.1
 21
157.1
  0
LINE
  8
0
 10
7.5
 11
7.5
 20
157.1
 21
166.1
  0
LINE
  8
0
 10
7.5
 11
16.5
 20
166.1
 21
166.1
  0
LINE
  8
0
 10
16.5
 11
16.5
 20
166.1
 21
169
  0
LINE
  8
0
 10
16.5
 11
156.6
 20
169
 21
169
  0
LINE
  8
0
 10
156.6
 11
156.6
 20
169
 21
166.1
  0
LINE
  8
0
 10
156.6
 11
165.6
 20
166.1
 21
166.1
  0
LINE
  8
0
 10
165.6
 11
165.6
 20
166.1
 21
157.1
  0
LINE
  8
0
 10
165.6
 11
168.5
 20
157.1
 21
157.1
  0
LINE
  8
0
 10
168.5
 11
168.5
 20
157.1
 21
101
  0
LINE
  8
0
 10
168.5
 11
165.6
 20
101
 21
101
  0
LINE
  8
0
 10
165.6
 11
165.6
 20
101
 21
92
  0
LINE
  8
0
 10
165.6
 11
156.6
 20
92
 21
92
  0
LINE
  8
0
 10
156.6
 11
156.6
 20
92
 21
89
  0
LINE
  8
0
 10
156.6
 11
16.5
 20
89
 21
89
  0
LINE
  8
0
 10
16.5
 11
16.5
 20
89
 21
92
  0
LINE
  8
0
 10
16.5
 11
7.5
 20
92
 21
92
  0
LINE
  8
0
 10
7.5
 11
7.5
 20
92
 21
101
  0
LINE
  8
0
 10
7.5
 11
4.5
 20
101
 21
101
  0
LINE
  8
0
 10
6
 11
6
 20
261
 21
284
  0
LINE
  8
0
 10
6
 11
18
 20
284
 21
284
  0
LINE
  8
0
 10
18
 11
18
 20
284
 21
281.1
  0
LINE
  8
0
 10
18
 11
74
 20
281.1
 21
281.1
  0
LINE
  8
0
 10
74
 11
74
 20
281.1
 21
284
  0
LINE
  8
0
 10
74
 11
86
 20
284
 21
284
  0
LINE
  8
0
 10
86
 11
86
 20
284
 21
261
  0
LINE
  8
0
 10
86
 11
83
 20
261
 21
261
  0
LINE
  8
0
 10
83
 11
83
 20
261
 21
249
  0
LINE
  8
0
 10
83
 11
74
 20
249
 21
249
  0
LINE
  8
0
 10
74
 11
74
 20
249
 21
252
  0
LINE
  8
0
 10
74
 11
18
 20
252
 21
252
  0
LINE
  8
0
 10
18
 11
18
 20
252
 21
249
  0
LINE
  8
0
 10
18
 11
8.9
 20
249
 21
249
  0
LINE
  8
0
 10
8.9
 11
8.9
 20
249
 21
261
  0
LINE
  8
0
 10
8.9
 11
6
 20
261
 21
261
  0
LINE
  8
0
 10
7.5
 11
7.5
 20
172
 21
246
  0
LINE
  8
0
 10
7.5
 11
165.5
 20
246
 21
246
  0
LINE
  8
0
 10
165.5
 11
165.5
 20
246
 21
172
  0
LINE
  8
0
 10
165.5
 11
7.5
 20
172
 21
172
  0
LINE
  8
0
 10
9.375
 11
10.938
 20
97
 21
99.706
  0
LINE
  8
0
 10
10.938
 11
14.063
 20
99.706
 21
99.706
  0
LINE
  8
0
 10
14.063
 11
15.625
 20
99.706
 21
97
  0
LINE
  8
0
 10
15.625
 11
14.063
 20
97
 21
94.294
  0
LINE
  8
0
 10
14.063
 11
10.938
 20
94.294
 21
94.294
  0
LINE
  8
0
 10
10.938
 11
9.375
 20
94.294
 21
97
  0
LINE
  8
0
 10
9.375
 11
10.938
 20
161
 21
163.706
  0
LINE
  8
0
 10
10.938
 11
14.063
 20
163.706
 21
163.706
  0
LINE
  8
0
 10
14.063
 11
15.625
 20
163.706
 21
161
  0
LINE
  8
0
 10
15.625
 11
14.063
 20
161
 21
158.294
  0
LINE
  8
0
 10
14.063
 11
10.938
 20
158.294
 21
158.294
  0
LINE
  8
0
 10
10.938
 11
9.375
 20
158.294
 21
161
  0
LINE
  8
0
 10
10.5
 11
10.546
 20
209
 21
210.325
  0
LINE
  8
0
 10
10.546
 11
10.685
 20
210.325
 21
211.644
  0
LINE
  8
0
 10
10.685
 11
10.915
 20
211.644
 21
212.95
  0
LINE
  8
0
 10
10.915
 11
11.236
 20
212.95
 21
214.237
  0
LINE
  8
0
 10
11.236
 11
11.646
 20
214.237
 21
215.498
  0
LINE
  8
0
 10
11.646
 11
12.143
 20
215.498
 21
216.728
  0
LINE
  8
0
 10
12.143
 11
12.724
 20
216.728
 21
217.92
  0
LINE
  8
0
 10
12.724
 11
13.387
 20
217.92
 21
219.068
  0
LINE
  8
0
 10
13.387
 11
14.129
 20
219.068
 21
220.168
  0
LINE
  8
0
 10
14.129
 11
14.945
 20
220.168
 21
221.213
  0
LINE
  8
0
 10
14.945
 11
15.833
 20
221.213
 21
222.199
  0
LINE
  8
0
 10
15.833
 11
16.787
 20
222.199
 21
223.12
  0
LINE
  8
0
 10
16.787
 11
17.802
 20
223.12
 21
223.972
  0
LINE
  8
0
 10
17.802
 11
18.875
 20
223.972
 21
224.752
  0
LINE
  8
0
 10
18.875
 11
20
 20
224.752
 21
225.454
  0
LINE
  8
0
 10
20
 11
21.171
 20
225.454
 21
226.077
  0
LINE
  8
0
 10
21.171
 11
22.382
 20
226.077
 21
226.616
  0
LINE
  8
0
 10
22.382
 11
23.629
 20
226.616
 21
227.07
  0
LINE
  8
0
 10
23.629
 11
24.903
 20
227.07
 21
227.436
  0
LINE
  8
0
 10
24.903
 11
26.201
 20
227.436
 21
227.711
  0
LINE
  8
0
 10
26.201
 11
26.384
 20
227.711
 21
227.737
  0
LINE
  8
0
 10
26.384
 11
26.454
 20
227.737
 21
227.799
  0
LINE
  8
0
 10
26.454
 11
26.939
 20
227.799
 21
228.302
  0
LINE
  8
0
 10
26.939
 11
27.388
 20
228.302
 21
228.837
  0
LINE
  8
0
 10
27.388
 11
27.799
 20
228.837
 21
229.402
  0
LINE
  8
0
 10
27.799
 11
28.169
 20
229.402
 21
229.995
  0
LINE
  8
0
 10
28.169
 11
28.497
 20
229.995
 21
230.612
  0
LINE
  8
0
 10
28.497
 11
28.781
 20
230.612
 21
231.25
  0
LINE
  8
0
 10
28.781
 11
29.02
 20
231.25
 21
231.907
  0
LINE
  8
0
 10
29.02
 11
29.213
 20
231.907
 21
232.578
  0
LINE
  8
0
 10
29.213
 11
29.358
 20
232.578
 21
233.262
  0
LINE
  8
0
 10
29.358
 11
29.455
 20
233.262
 21
233.954
  0
LINE
  8
0
 10
29.455
 11
29.5
 20
233.954
 21
234.595
  0
LINE
  8
0
 10
29.5
 11
29.5
 20
234.595
 21
237
  0
LINE
  8
0
 10
29.5
 11
137.5
 20
237
 21
237
  0
LINE
  8
0
 10
137.5
 11
137.5
 20
237
 21
178
  0
LINE
  8
0
 10
137.5
 11
29.5
 20
178
 21
178
  0
LINE
  8
0
 10
29.5
 11
29.5
 20
178
 21
183.286
  0
LINE
  8
0
 10
29.5
 11
29.486
 20
183.286
 21
183.698
  0
LINE
  8
0
 10
29.486
 11
29.413
 20
183.698
 21
184.393
  0
LINE
  8
0
 10
29.413
 11
29.291
 20
184.393
 21
185.081
  0
LINE
  8
0
 10
29.291
 11
29.122
 20
185.081
 21
185.759
  0
LINE
  8
0
 10
29.122
 11
28.906
 20
185.759
 21
186.424
  0
LINE
  8
0
 10
28.906
 11
28.645
 20
186.424
 21
187.071
  0
LINE
  8
0
 10
28.645
 11
28.338
 20
187.071
 21
187.699
  0
LINE
  8
0
 10
28.338
 11
27.989
 20
187.699
 21
188.304
  0
LINE
  8
0
 10
27.989
 11
27.598
 20
188.304
 21
188.884
  0
LINE
  8
0
 10
27.598
 11
27.168
 20
188.884
 21
189.434
  0
LINE
  8
0
 10
27.168
 11
26.701
 20
189.434
 21
189.954
  0
LINE
  8
0
 10
26.701
 11
26.38
 20
189.954
 21
190.264
  0
LINE
  8
0
 10
26.38
 11
26.201
 20
190.264
 21
190.289
  0
LINE
  8
0
 10
26.201
 11
24.903
 20
190.289
 21
190.564
  0
LINE
  8
0
 10
24.903
 11
23.629
 20
190.564
 21
190.93
  0
LINE
  8
0
 10
23.629
 11
22.382
 20
190.93
 21
191.384
  0
LINE
  8
0
 10
22.382
 11
21.171
 20
191.384
 21
191.923
  0
LINE
  8
0
 10
21.171
 11
20
 20
191.923
 21
192.546
  0
LINE
  8
0
 10
20
 11
18.875
 20
192.546
 21
193.248
  0
LINE
  8
0
 10
18.875
 11
17.802
 20
193.248
 21
194.028
  0
LINE
  8
0
 10
17.802
 11
16.787
 20
194.028
 21
194.88
  0
LINE
  8
0
 10
16.787
 11
15.833
 20
194.88
 21
195.801
  0
LINE
  8
0
 10
15.833
 11
14.945
 20
195.801
 21
196.787
  0
LINE
  8
0
 10
14.945
 11
14.129
 20
196.787
 21
197.832
  0
LINE
  8
0
 10
14.129
 11
13.387
 20
197.832
 21
198.932
  0
LINE
  8
0
 10
13.387
 11
12.724
 20
198.932
 21
200.08
  0
LINE
  8
0
 10
12.724
 11
12.143
 20
200.08
 21
201.272
  0
LINE
  8
0
 10
12.143
 11
11.646
 20
201.272
 21
202.502
  0
LINE
  8
0
 10
11.646
 11
11.236
 20
202.502
 21
203.763
  0
LINE
  8
0
 10
11.236
 11
10.915
 20
203.763
 21
205.05
  0
LINE
  8
0
 10
10.915
 11
10.685
 20
205.05
 21
206.356
  0
LINE
  8
0
 10
10.685
 11
10.546
 20
206.356
 21
207.675
  0
LINE
  8
0
 10
10.546
 11
10.5
 20
207.675
 21
209
  0
LINE
  8
0
 10
10.9
 11
10.904
 20
14
 21
14.112
  0
LINE
  8
0
 10
10.904
 11
10.916
 20
14.112
 21
14.223
  0
LINE
  8
0
 10
10.916
 11
10.935
 20
14.223
 21
14.333
  0
LINE
  8
0
 10
10.935
 11
10.962
 20
14.333
 21
14.441
  0
LINE
  8
0
 10
10.962
 11
10.996
 20
14.441
 21
14.547
  0
LINE
  8
0
 10
10.996
 11
11.038
 20
14.547
 21
14.651
  0
LINE
  8
0
 10
11.038
 11
11.087
 20
14.651
 21
14.751
  0
LINE
  8
0
 10
11.087
 11
11.143
 20
14.751
 21
14.848
  0
LINE
  8
0
 10
11.143
 11
11.206
 20
14.848
 21
14.94
  0
LINE
  8
0
 10
11.206
 11
11.274
 20
14.94
 21
15.028
  0
LINE
  8
0
 10
11.274
 11
11.349
 20
15.028
 21
15.111
  0
LINE
  8
0
 10
11.349
 11
11.429
 20
15.111
 21
15.189
  0
LINE
  8
0
 10
11.429
 11
11.515
 20
15.189
 21
15.261
  0
LINE
  8
0
 10
11.515
 11
11.605
 20
15.261
 21
15.326
  0
LINE
  8
0
 10
11.605
 11
11.7
 20
15.326
 21
15.386
  0
LINE
  8
0
 10
11.7
 11
11.799
 20
15.386
 21
15.438
  0
LINE
  8
0
 10
11.799
 11
11.901
 20
15.438
 21
15.483
  0
LINE
  8
0
 10
11.901
 11
12.006
 20
15.483
 21
15.522
  0
LINE
  8
0
 10
12.006
 11
12.113
 20
15.522
 21
15.552
  0
LINE
  8
0
 10
12.113
 11
12.222
 20
15.552
 21
15.576
  0
LINE
  8
0
 10
12.222
 11
12.333
 20
15.576
 21
15.591
  0
LINE
  8
0
 10
12.333
 11
12.444
 20
15.591
 21
15.599
  0
LINE
  8
0
 10
12.444
 11
12.556
 20
15.599
 21
15.599
  0
LINE
  8
0
 10
12.556
 11
12.667
 20
15.599
 21
15.591
  0
LINE
  8
0
 10
12.667
 11
12.778
 20
15.591
 21
15.576
  0
LINE
  8
0
 10
12.778
 11
12.887
 20
15.576
 21
15.552
  0
LINE
  8
0
 10
12.887
 11
12.994
 20
15.552
 21
15.522
  0
LINE
  8
0
 10
12.994
 11
13.099
 20
15.522
 21
15.483
  0
LINE
  8
0
 10
13.099
 11
13.201
 20
15.483
 21
15.438
  0
LINE
  8
0
 10
13.201
 11
13.3
 20
15.438
 21
15.386
  0
LINE
  8
0
 10
13.3
 11
13.395
 20
15.386
 21
15.326
  0
LINE
  8
0
 10
13.395
 11
13.485
 20
15.326
 21
15.261
  0
LINE
  8
0
 10
13.485
 11
13.571
 20
15.261
 21
15.189
  0
LINE
  8
0
 10
13.571
 11
13.651
 20
15.189
 21
15.111
  0
LINE
  8
0
 10
13.651
 11
13.726
 20
15.111
 21
15.028
  0
LINE
  8
0
 10
13.726
 11
13.794
 20
15.028
 21
14.94
  0
LINE
  8
0
 10
13.794
 11
13.857
 20
14.94
 21
14.848
  0
LINE
  8
0
 10
13.857
 11
13.913
 20
14.848
 21
14.751
  0
LINE
  8
0
 10
13.913
 11
13.962
 20
14.751
 21
14.651
  0
LINE
  8
0
 10
13.962
 11
14.004
 20
14.651
 21
14.547
  0
LINE
  8
0
 10
14.004
 11
14.038
 20
14.547
 21
14.441
  0
LINE
  8
0
 10
14.038
 11
14.065
 20
14.441
 21
14.333
  0
LINE
  8
0
 10
14.065
 11
14.084
 20
14.333
 21
14.223
  0
LINE
  8
0
 10
14.084
 11
14.096
 20
14.223
 21
14.112
  0
LINE
  8
0
 10
14.096
 11
14.1
 20
14.112
 21
14
  0
LINE
  8
0
 10
14.1
 11
14.096
 20
14
 21
13.888
  0
LINE
  8
0
 10
14.096
 11
14.084
 20
13.888
 21
13.777
  0
LINE
  8
0
 10
14.084
 11
14.065
 20
13.777
 21
13.667
  0
LINE
  8
0
 10
14.065
 11
14.038
 20
13.667
 21
13.559
  0
LINE
  8
0
 10
14.038
 11
14.004
 20
13.559
 21
13.453
  0
LINE
  8
0
 10
14.004
 11
13.962
 20
13.453
 21
13.349
  0
LINE
  8
0
 10
13.962
 11
13.913
 20
13.349
 21
13.249
  0
LINE
  8
0
 10
13.913
 11
13.857
 20
13.249
 21
13.152
  0
LINE
  8
0
 10
13.857
 11
13.794
 20
13.152
 21
13.06
  0
LINE
  8
0
 10
13.794
 11
13.726
 20
13.06
 21
12.972
  0
LINE
  8
0
 10
13.726
 11
13.651
 20
12.972
 21
12.889
  0
LINE
  8
0
 10
13.651
 11
13.571
 20
12.889
 21
12.811
  0
LINE
  8
0
 10
13.571
 11
13.485
 20
12.811
 21
12.739
  0
LINE
  8
0
 10
13.485
 11
13.395
 20
12.739
 21
12.674
  0
LINE
  8
0
 10
13.395
 11
13.3
 20
12.674
 21
12.614
  0
LINE
  8
0
 10
13.3
 11
13.201
 20
12.614
 21
12.562
  0
LINE
  8
0
 10
13.201
 11
13.099
 20
12.562
 21
12.517
  0
LINE
  8
0
 10
13.099
 11
12.994
 20
12.517
 21
12.478
  0
LINE
  8
0
 10
12.994
 11
12.887
 20
12.478
 21
12.448
  0
LINE
  8
0
 10
12.887
 11
12.778
 20
12.448
 21
12.424
  0
LINE
  8
0
 10
12.778
 11
12.667
 20
12.424
 21
12.409
  0
LINE
  8
0
 10
12.667
 11
12.556
 20
12.409
 21
12.401
  0
LINE
  8
0
 10
12.556
 11
12.444
 20
12.401
 21
12.401
  0
LINE
  8
0
 10
12.444
 11
12.333
 20
12.401
 21
12.409
  0
LINE
  8
0
 10
12.333
 11
12.222
 20
12.409
 21
12.424
  0
LINE
  8
0
 10
12.222
 11
12.113
 20
12.424
 21
12.448
  0
LINE
  8
0
 10
12.113
 11
12.006
 20
12.448
 21
12.478
  0
LINE
  8
0
 10
12.006
 11
11.901
 20
12.478
 21
12.517
  0
LINE
  8
0
 10
11.901
 11
11.799
 20
12.517
 21
12.562
  0
LINE
  8
0
 10
11.799
 11
11.7
 20
12.562
 21
12.614
  0
LINE
  8
0
 10
11.7
 11
11.605
 20
12.614
 21
12.674
  0
LINE
  8
0
 10
11.605
 11
11.515
 20
12.674
 21
12.739
  0
LINE
  8
0
 10
11.515
 11
11.429
 20
12.739
 21
12.811
  0
LINE
  8
0
 10
11.429
 11
11.349
 20
12.811
 21
12.889
  0
LINE
  8
0
 10
11.349
 11
11.274
 20
12.889
 21
12.972
  0
LINE
  8
0
 10
11.274
 11
11.206
 20
12.972
 21
13.06
  0
LINE
  8
0
 10
11.206
 11
11.143
 20
13.06
 21
13.152
  0
LINE
  8
0
 10
11.143
 11
11.087
 20
13.152
 21
13.249
  0
LINE
  8
0
 10
11.087
 11
11.038
 20
13.249
 21
13.349
  0
LINE
  8
0
 10
11.038
 11
10.996
 20
13.349
 21
13.453
  0
LINE
  8
0
 10
10.996
 11
10.962
 20
13.453
 21
13.559
  0
LINE
  8
0
 10
10.962
 11
10.935
 20
13.559
 21
13.667
  0
LINE
  8
0
 10
10.935
 11
10.916
 20
13.667
 21
13.777
  0
LINE
  8
0
 10
10.916
 11
10.904
 20
13.777
 21
13.888
  0
LINE
  8
0
 10
10.904
 11
10.9
 20
13.888
 21
14
  0
LINE
  8
0
 10
10.9
 11
10.904
 20
78
 21
78.112
  0
LINE
  8
0
 10
10.904
 11
10.916
 20
78.112
 21
78.223
  0
LINE
  8
0
 10
10.916
 11
10.935
 20
78.223
 21
78.333
  0
LINE
  8
0
 10
10.935
 11
10.962
 20
78.333
 21
78.441
  0
LINE
  8
0
 10
10.962
 11
10.996
 20
78.441
 21
78.547
  0
LINE
  8
0
 10
10.996
 11
11.038
 20
78.547
 21
78.651
  0
LINE
  8
0
 10
11.038
 11
11.087
 20
78.651
 21
78.751
  0
LINE
  8
0
 10
11.087
 11
11.143
 20
78.751
 21
78.848
  0
LINE
  8
0
 10
11.143
 11
11.206
 20
78.848
 21
78.94
  0
LINE
  8
0
 10
11.206
 11
11.274
 20
78.94
 21
79.028
  0
LINE
  8
0
 10
11.274
 11
11.349
 20
79.028
 21
79.111
  0
LINE
  8
0
 10
11.349
 11
11.429
 20
79.111
 21
79.189
  0
LINE
  8
0
 10
11.429
 11
11.515
 20
79.189
 21
79.261
  0
LINE
  8
0
 10
11.515
 11
11.605
 20
79.261
 21
79.326
  0
LINE
  8
0
 10
11.605
 11
11.7
 20
79.326
 21
79.386
  0
LINE
  8
0
 10
11.7
 11
11.799
 20
79.386
 21
79.438
  0
LINE
  8
0
 10
11.799
 11
11.901
 20
79.438
 21
79.483
  0
LINE
  8
0
 10
11.901
 11
12.006
 20
79.483
 21
79.522
  0
LINE
  8
0
 10
12.006
 11
12.113
 20
79.522
 21
79.552
  0
LINE
  8
0
 10
12.113
 11
12.222
 20
79.552
 21
79.576
  0
LINE
  8
0
 10
12.222
 11
12.333
 20
79.576
 21
79.591
  0
LINE
  8
0
 10
12.333
 11
12.444
 20
79.591
 21
79.599
  0
LINE
  8
0
 10
12.444
 11
12.556
 20
79.599
 21
79.599
  0
LINE
  8
0
 10
12.556
 11
12.667
 20
79.599
 21
79.591
  0
LINE
  8
0
 10
12.667
 11
12.778
 20
79.591
 21
79.576
  0
LINE
  8
0
 10
12.778
 11
12.887
 20
79.576
 21
79.552
  0
LINE
  8
0
 10
12.887
 11
12.994
 20
79.552
 21
79.522
  0
LINE
  8
0
 10
12.994
 11
13.099
 20
79.522
 21
79.483
  0
LINE
  8
0
 10
13.099
 11
13.201
 20
79.483
 21
79.438
  0
LINE
  8
0
 10
13.201
 11
13.3
 20
79.438
 21
79.386
  0
LINE
  8
0
 10
13.3
 11
13.395
 20
79.386
 21
79.326
  0
LINE
  8
0
 10
13.395
 11
13.485
 20
79.326
 21
79.261
  0
LINE
  8
0
 10
13.485
 11
13.571
 20
79.261
 21
79.189
  0
LINE
  8
0
 10
13.571
 11
13.651
 20
79.189
 21
79.111
  0
LINE
  8
0
 10
13.651
 11
13.726
 20
79.111
 21
79.028
  0
LINE
  8
0
 10
13.726
 11
13.794
 20
79.028
 21
78.94
  0
LINE
  8
0
 10
13.794
 11
13.857
 20
78.94
 21
78.848
  0
LINE
  8
0
 10
13.857
 11
13.913
 20
78.848
 21
78.751
  0
LINE
  8
0
 10
13.913
 11
13.962
 20
78.751
 21
78.651
  0
LINE
  8
0
 10
13.962
 11
14.004
 20
78.651
 21
78.547
  0
LINE
  8
0
 10
14.004
 11
14.038
 20
78.547
 21
78.441
  0
LINE
  8
0
 10
14.038
 11
14.065
 20
78.441
 21
78.333
  0
LINE
  8
0
 10
14.065
 11
14.084
 20
78.333
 21
78.223
  0
LINE
  8
0
 10
14.084
 11
14.096
 20
78.223
 21
78.112
  0
LINE
  8
0
 10
14.096
 11
14.1
 20
78.112
 21
78
  0
LINE
  8
0
 10
14.1
 11
14.096
 20
78
 21
77.888
  0
LINE
  8
0
 10
14.096
 11
14.084
 20
77.888
 21
77.777
  0
LINE
  8
0
 10
14.084
 11
14.065
 20
77.777
 21
77.667
  0
LINE
  8
0
 10
14.065
 11
14.038
 20
77.667
 21
77.559
  0
LINE
  8
0
 10
14.038
 11
14.004
 20
77.559
 21
77.453
  0
LINE
  8
0
 10
14.004
 11
13.962
 20
77.453
 21
77.349
  0
LINE
  8
0
 10
13.962
 11
13.913
 20
77.349
 21
77.249
  0
LINE
  8
0
 10
13.913
 11
13.857
 20
77.249
 21
77.152
  0
LINE
  8
0
 10
13.857
 11
13.794
 20
77.152
 21
77.06
  0
LINE
  8
0
 10
13.794
 11
13.726
 20
77.06
 21
76.972
  0
LINE
  8
0
 10
13.726
 11
13.651
 20
76.972
 21
76.889
  0
LINE
  8
0
 10
13.651
 11
13.571
 20
76.889
 21
76.811
  0
LINE
  8
0
 10
13.571
 11
13.485
 20
76.811
 21
76.739
  0
LINE
  8
0
 10
13.485
 11
13.395
 20
76.739
 21
76.674
  0
LINE
  8
0
 10
13.395
 11
13.3
 20
76.674
 21
76.614
  0
LINE
  8
0
 10
13.3
 11
13.201
 20
76.614
 21
76.562
  0
LINE
  8
0
 10
13.201
 11
13.099
 20
76.562
 21
76.517
  0
LINE
  8
0
 10
13.099
 11
12.994
 20
76.517
 21
76.478
  0
LINE
  8
0
 10
12.994
 11
12.887
 20
76.478
 21
76.448
  0
LINE
  8
0
 10
12.887
 11
12.778
 20
76.448
 21
76.424
  0
LINE
  8
0
 10
12.778
 11
12.667
 20
76.424
 21
76.409
  0
LINE
  8
0
 10
12.667
 11
12.556
 20
76.409
 21
76.401
  0
LINE
  8
0
 10
12.556
 11
12.444
 20
76.401
 21
76.401
  0
LINE
  8
0
 10
12.444
 11
12.333
 20
76.401
 21
76.409
  0
LINE
  8
0
 10
12.333
 11
12.222
 20
76.409
 21
76.424
  0
LINE
  8
0
 10
12.222
 11
12.113
 20
76.424
 21
76.448
  0
LINE
  8
0
 10
12.113
 11
12.006
 20
76.448
 21
76.478
  0
LINE
  8
0
 10
12.006
 11
11.901
 20
76.478
 21
76.517
  0
LINE
  8
0
 10
11.901
 11
11.799
 20
76.517
 21
76.562
  0
LINE
  8
0
 10
11.799
 11
11.7
 20
76.562
 21
76.614
  0
LINE
  8
0
 10
11.7
 11
11.605
 20
76.614
 21
76.674
  0
LINE
  8
0
 10
11.605
 11
11.515
 20
76.674
 21
76.739
  0
LINE
  8
0
 10
11.515
 11
11.429
 20
76.739
 21
76.811
  0
LINE
  8
0
 10
11.429
 11
11.349
 20
76.811
 21
76.889
  0
LINE
  8
0
 10
11.349
 11
11.274
 20
76.889
 21
76.972
  0
LINE
  8
0
 10
11.274
 11
11.206
 20
76.972
 21
77.06
  0
LINE
  8
0
 10
11.206
 11
11.143
 20
77.06
 21
77.152
  0
LINE
  8
0
 10
11.143
 11
11.087
 20
77.152
 21
77.249
  0
LINE
  8
0
 10
11.087
 11
11.038
 20
77.249
 21
77.349
  0
LINE
  8
0
 10
11.038
 11
10.996
 20
77.349
 21
77.453
  0
LINE
  8
0
 10
10.996
 11
10.962
 20
77.453
 21
77.559
  0
LINE
  8
0
 10
10.962
 11
10.935
 20
77.559
 21
77.667
  0
LINE
  8
0
 10
10.935
 11
10.916
 20
77.667
 21
77.777
  0
LINE
  8
0
 10
10.916
 11
10.904
 20
77.777
 21
77.888
  0
LINE
  8
0
 10
10.904
 11
10.9
 20
77.888
 21
78
  0
LINE
  8
0
 10
10.9
 11
10.904
 20
177
 21
177.112
  0
LINE
  8
0
 10
10.904
 11
10.916
 20
177.112
 21
177.223
  0
LINE
  8
0
 10
10.916
 11
10.935
 20
177.223
 21
177.333
  0
LINE
  8
0
 10
10.935
 11
10.962
 20
177.333
 21
177.441
  0
LINE
  8
0
 10
10.962
 11
10.996
 20
177.441
 21
177.547
  0
LINE
  8
0
 10
10.996
 11
11.038
 20
177.547
 21
177.651
  0
LINE
  8
0
 10
11.038
 11
11.087
 20
177.651
 21
177.751
  0
LINE
  8
0
 10
11.087
 11
11.143
 20
177.751
 21
177.848
  0
LINE
  8
0
 10
11.143
 11
11.206
 20
177.848
 21
177.94
  0
LINE
  8
0
 10
11.206
 11
11.274
 20
177.94
 21
178.028
  0
LINE
  8
0
 10
11.274
 11
11.349
 20
178.028
 21
178.111
  0
LINE
  8
0
 10
11.349
 11
11.429
 20
178.111
 21
178.189
  0
LINE
  8
0
 10
11.429
 11
11.515
 20
178.189
 21
178.261
  0
LINE
  8
0
 10
11.515
 11
11.605
 20
178.261
 21
178.326
  0
LINE
  8
0
 10
11.605
 11
11.7
 20
178.326
 21
178.386
  0
LINE
  8
0
 10
11.7
 11
11.799
 20
178.386
 21
178.438
  0
LINE
  8
0
 10
11.799
 11
11.901
 20
178.438
 21
178.483
  0
LINE
  8
0
 10
11.901
 11
12.006
 20
178.483
 21
178.522
  0
LINE
  8
0
 10
12.006
 11
12.113
 20
178.522
 21
178.552
  0
LINE
  8
0
 10
12.113
 11
12.222
 20
178.552
 21
178.576
  0
LINE
  8
0
 10
12.222
 11
12.333
 20
178.576
 21
178.591
  0
LINE
  8
0
 10
12.333
 11
12.444
 20
178.591
 21
178.599
  0
LINE
  8
0
 10
12.444
 11
12.556
 20
178.599
 21
178.599
  0
LINE
  8
0
 10
12.556
 11
12.667
 20
178.599
 21
178.591
  0
LINE
  8
0
 10
12.667
 11
12.778
 20
178.591
 21
178.576
  0
LINE
  8
0
 10
12.778
 11
12.887
 20
178.576
 21
178.552
  0
LINE
  8
0
 10
12.887
 11
12.994
 20
178.552
 21
178.522
  0
LINE
  8
0
 10
12.994
 11
13.099
 20
178.522
 21
178.483
  0
LINE
  8
0
 10
13.099
 11
13.201
 20
178.483
 21
178.438
  0
LINE
  8
0
 10
13.201
 11
13.3
 20
178.438
 21
178.386
  0
LINE
  8
0
 10
13.3
 11
13.395
 20
178.386
 21
178.326
  0
LINE
  8
0
 10
13.395
 11
13.485
 20
178.326
 21
178.261
  0
LINE
  8
0
 10
13.485
 11
13.571
 20
178.261
 21
178.189
  0
LINE
  8
0
 10
13.571
 11
13.651
 20
178.189
 21
178.111
  0
LINE
  8
0
 10
13.651
 11
13.726
 20
178.111
 21
178.028
  0
LINE
  8
0
 10
13.726
 11
13.794
 20
178.028
 21
177.94
  0
LINE
  8
0
 10
13.794
 11
13.857
 20
177.94
 21
177.848
  0
LINE
  8
0
 10
13.857
 11
13.913
 20
177.848
 21
177.751
  0
LINE
  8
0
 10
13.913
 11
13.962
 20
177.751
 21
177.651
  0
LINE
  8
0
 10
13.962
 11
14.004
 20
177.651
 21
177.547
  0
LINE
  8
0
 10
14.004
 11
14.038
 20
177.547
 21
177.441
  0
LINE
  8
0
 10
14.038
 11
14.065
 20
177.441
 21
177.333
  0
LINE
  8
0
 10
14.065
 11
14.084
 20
177.333
 21
177.223
  0
LINE
  8
0
 10
14.084
 11
14.096
 20
177.223
 21
177.112
  0
LINE
  8
0
 10
14.096
 11
14.1
 20
177.112
 21
177
  0
LINE
  8
0
 10
14.1
 11
14.096
 20
177
 21
176.888
  0
LINE
  8
0
 10
14.096
 11
14.084
 20
176.888
 21
176.777
  0
LINE
  8
0
 10
14.084
 11
14.065
 20
176.777
 21
176.667
  0
LINE
  8
0
 10
14.065
 11
14.038
 20
176.667
 21
176.559
  0
LINE
  8
0
 10
14.038
 11
14.004
 20
176.559
 21
176.453
  0
LINE
  8
0
 10
14.004
 11
13.962
 20
176.453
 21
176.349
  0
LINE
  8
0
 10
13.962
 11
13.913
 20
176.349
 21
176.249
  0
LINE
  8
0
 10
13.913
 11
13.857
 20
176.249
 21
176.152
  0
LINE
  8
0
 10
13.857
 11
13.794
 20
176.152
 21
176.06
  0
LINE
  8
0
 10
13.794
 11
13.726
 20
176.06
 21
175.972
  0
LINE
  8
0
 10
13.726
 11
13.651
 20
175.972
 21
175.889
  0
LINE
  8
0
 10
13.651
 11
13.571
 20
175.889
 21
175.811
  0
LINE
  8
0
 10
13.571
 11
13.485
 20
175.811
 21
175.739
  0
LINE
  8
0
 10
13.485
 11
13.395
 20
175.739
 21
175.674
  0
LINE
  8
0
 10
13.395
 11
13.3
 20
175.674
 21
175.614
  0
LINE
  8
0
 10
13.3
 11
13.201
 20
175.614
 21
175.562
  0
LINE
  8
0
 10
13.201
 11
13.099
 20
175.562
 21
175.517
  0
LINE
  8
0
 10
13.099
 11
12.994
 20
175.517
 21
175.478
  0
LINE
  8
0
 10
12.994
 11
12.887
 20
175.478
 21
175.448
  0
LINE
  8
0
 10
12.887
 11
12.778
 20
175.448
 21
175.424
  0
LINE
  8
0
 10
12.778
 11
12.667
 20
175.424
 21
175.409
  0
LINE
  8
0
 10
12.667
 11
12.556
 20
175.409
 21
175.401
  0
LINE
  8
0
 10
12.556
 11
12.444
 20
175.401
 21
175.401
  0
LINE
  8
0
 10
12.444
 11
12.333
 20
175.401
 21
175.409
  0
LINE
  8
0
 10
12.333
 11
12.222
 20
175.409
 21
175.424
  0
LINE
  8
0
 10
12.222
 11
12.113
 20
175.424
 21
175.448
  0
LINE
  8
0
 10
12.113
 11
12.006
 20
175.448
 21
175.478
  0
LINE
  8
0
 10
12.006
 11
11.901
 20
175.478
 21
175.517
  0
LINE
  8
0
 10
11.901
 11
11.799
 20
175.517
 21
175.562
  0
LINE
  8
0
 10
11.799
 11
11.7
 20
175.562
 21
175.614
  0
LINE
  8
0
 10
11.7
 11
11.605
 20
175.614
 21
175.674
  0
LINE
  8
0
 10
11.605
 11
11.515
 20
175.674
 21
175.739
  0
LINE
  8
0
 10
11.515
 11
11.429
 20
175.739
 21
175.811
  0
LINE
  8
0
 10
11.429
 11
11.349
 20
175.811
 21
175.889
  0
LINE
  8
0
 10
11.349
 11
11.274
 20
175.889
 21
175.972
  0
LINE
  8
0
 10
11.274
 11
11.206
 20
175.972
 21
176.06
  0
LINE
  8
0
 10
11.206
 11
11.143
 20
176.06
 21
176.152
  0
LINE
  8
0
 10
11.143
 11
11.087
 20
176.152
 21
176.249
  0
LINE
  8
0
 10
11.087
 11
11.038
 20
176.249
 21
176.349
  0
LINE
  8
0
 10
11.038
 11
10.996
 20
176.349
 21
176.453
  0
LINE
  8
0
 10
10.996
 11
10.962
 20
176.453
 21
176.559
  0
LINE
  8
0
 10
10.962
 11
10.935
 20
176.559
 21
176.667
  0
LINE
  8
0
 10
10.935
 11
10.916
 20
176.667
 21
176.777
  0
LINE
  8
0
 10
10.916
 11
10.904
 20
176.777
 21
176.888
  0
LINE
  8
0
 10
10.904
 11
10.9
 20
176.888
 21
177
  0
LINE
  8
0
 10
10.9
 11
10.904
 20
241
 21
241.112
  0
LINE
  8
0
 10
10.904
 11
10.916
 20
241.112
 21
241.223
  0
LINE
  8
0
 10
10.916
 11
10.935
 20
241.223
 21
241.333
  0
LINE
  8
0
 10
10.935
 11
10.962
 20
241.333
 21
241.441
  0
LINE
  8
0
 10
10.962
 11
10.996
 20
241.441
 21
241.547
  0
LINE
  8
0
 10
10.996
 11
11.038
 20
241.547
 21
241.651
  0
LINE
  8
0
 10
11.038
 11
11.087
 20
241.651
 21
241.751
  0
LINE
  8
0
 10
11.087
 11
11.143
 20
241.751
 21
241.848
  0
LINE
  8
0
 10
11.143
 11
11.206
 20
241.848
 21
241.94
  0
LINE
  8
0
 10
11.206
 11
11.274
 20
241.94
 21
242.028
  0
LINE
  8
0
 10
11.274
 11
11.349
 20
242.028
 21
242.111
  0
LINE
  8
0
 10
11.349
 11
11.429
 20
242.111
 21
242.189
  0
LINE
  8
0
 10
11.429
 11
11.515
 20
242.189
 21
242.261
  0
LINE
  8
0
 10
11.515
 11
11.605
 20
242.261
 21
242.326
  0
LINE
  8
0
 10
11.605
 11
11.7
 20
242.326
 21
242.386
  0
LINE
  8
0
 10
11.7
 11
11.799
 20
242.386
 21
242.438
  0
LINE
  8
0
 10
11.799
 11
11.901
 20
242.438
 21
242.483
  0
LINE
  8
0
 10
11.901
 11
12.006
 20
242.483
 21
242.522
  0
LINE
  8
0
 10
12.006
 11
12.113
 20
242.522
 21
242.552
  0
LINE
  8
0
 10
12.113
 11
12.222
 20
242.552
 21
242.576
  0
LINE
  8
0
 10
12.222
 11
12.333
 20
242.576
 21
242.591
  0
LINE
  8
0
 10
12.333
 11
12.444
 20
242.591
 21
242.599
  0
LINE
  8
0
 10
12.444
 11
12.556
 20
242.599
 21
242.599
  0
LINE
  8
0
 10
12.556
 11
12.667
 20
242.599
 21
242.591
  0
LINE
  8
0
 10
12.667
 11
12.778
 20
242.591
 21
242.576
  0
LINE
  8
0
 10
12.778
 11
12.887
 20
242.576
 21
242.552
  0
LINE
  8
0
 10
12.887
 11
12.994
 20
242.552
 21
242.522
  0
LINE
  8
0
 10
12.994
 11
13.099
 20
242.522
 21
242.483
  0
LINE
  8
0
 10
13.099
 11
13.201
 20
242.483
 21
242.438
  0
LINE
  8
0
 10
13.201
 11
13.3
 20
242.438
 21
242.386
  0
LINE
  8
0
 10
13.3
 11
13.395
 20
242.386
 21
242.326
  0
LINE
  8
0
 10
13.395
 11
13.485
 20
242.326
 21
242.261
  0
LINE
  8
0
 10
13.485
 11
13.571
 20
242.261
 21
242.189
  0
LINE
  8
0
 10
13.571
 11
13.651
 20
242.189
 21
242.111
  0
LINE
  8
0
 10
13.651
 11
13.726
 20
242.111
 21
242.028
  0
LINE
  8
0
 10
13.726
 11
13.794
 20
242.028
 21
241.94
  0
LINE
  8
0
 10
13.794
 11
13.857
 20
241.94
 21
241.848
  0
LINE
  8
0
 10
13.857
 11
13.913
 20
241.848
 21
241.751
  0
LINE
  8
0
 10
13.913
 11
13.962
 20
241.751
 21
241.651
  0
LINE
  8
0
 10
13.962
 11
14.004
 20
241.651
 21
241.547
  0
LINE
  8
0
 10
14.004
 11
14.038
 20
241.547
 21
241.441
  0
LINE
  8
0
 10
14.038
 11
14.065
 20
241.441
 21
241.333
  0
LINE
  8
0
 10
14.065
 11
14.084
 20
241.333
 21
241.223
  0
LINE
  8
0
 10
14.084
 11
14.096
 20
241.223
 21
241.112
  0
LINE
  8
0
 10
14.096
 11
14.1
 20
241.112
 21
241
  0
LINE
  8
0
 10
14.1
 11
14.096
 20
241
 21
240.888
  0
LINE
  8
0
 10
14.096
 11
14.084
 20
240.888
 21
240.777
  0
LINE
  8
0
 10
14.084
 11
14.065
 20
240.777
 21
240.667
  0
LINE
  8
0
 10
14.065
 11
14.038
 20
240.667
 21
240.559
  0
LINE
  8
0
 10
14.038
 11
14.004
 20
240.559
 21
240.453
  0
LINE
  8
0
 10
14.004
 11
13.962
 20
240.453
 21
240.349
  0
LINE
  8
0
 10
13.962
 11
13.913
 20
240.349
 21
240.249
  0
LINE
  8
0
 10
13.913
 11
13.857
 20
240.249
 21
240.152
  0
LINE
  8
0
 10
13.857
 11
13.794
 20
240.152
 21
240.06
  0
LINE
  8
0
 10
13.794
 11
13.726
 20
240.06
 21
239.972
  0
LINE
  8
0
 10
13.726
 11
13.651
 20
239.972
 21
239.889
  0
LINE
  8
0
 10
13.651
 11
13.571
 20
239.889
 21
239.811
  0
LINE
  8
0
 10
13.571
 11
13.485
 20
239.811
 21
239.739
  0
LINE
  8
0
 10
13.485
 11
13.395
 20
239.739
 21
239.674
  0
LINE
  8
0
 10
13.395
 11
13.3
 20
239.674
 21
239.614
  0
LINE
  8
0
 10
13.3
 11
13.201
 20
239.614
 21
239.562
  0
LINE
  8
0
 10
13.201
 11
13.099
 20
239.562
 21
239.517
  0
LINE
  8
0
 10
13.099
 11
12.994
 20
239.517
 21
239.478
  0
LINE
  8
0
 10
12.994
 11
12.887
 20
239.478
 21
239.448
  0
LINE
  8
0
 10
12.887
 11
12.778
 20
239.448
 21
239.424
  0
LINE
  8
0
 10
12.778
 11
12.667
 20
239.424
 21
239.409
  0
LINE
  8
0
 10
12.667
 11
12.556
 20
239.409
 21
239.401
  0
LINE
  8
0
 10
12.556
 11
12.444
 20
239.401
 21
239.401
  0
LINE
  8
0
 10
12.444
 11
12.333
 20
239.401
 21
239.409
  0
LINE
  8
0
 10
12.333
 11
12.222
 20
239.409
 21
239.424
  0
LINE
  8
0
 10
12.222
 11
12.113
 20
239.424
 21
239.448
  0
LINE
  8
0
 10
12.113
 11
12.006
 20
239.448
 21
239.478
  0
LINE
  8
0
 10
12.006
 11
11.901
 20
239.478
 21
239.517
  0
LINE
  8
0
 10
11.901
 11
11.799
 20
239.517
 21
239.562
  0
LINE
  8
0
 10
11.799
 11
11.7
 20
239.562
 21
239.614
  0
LINE
  8
0
 10
11.7
 11
11.605
 20
239.614
 21
239.674
  0
LINE
  8
0
 10
11.605
 11
11.515
 20
239.674
 21
239.739
  0
LINE
  8
0
 10
11.515
 11
11.429
 20
239.739
 21
239.811
  0
LINE
  8
0
 10
11.429
 11
11.349
 20
239.811
 21
239.889
  0
LINE
  8
0
 10
11.349
 11
11.274
 20
239.889
 21
239.972
  0
LINE
  8
0
 10
11.274
 11
11.206
 20
239.972
 21
240.06
  0
LINE
  8
0
 10
11.206
 11
11.143
 20
240.06
 21
240.152
  0
LINE
  8
0
 10
11.143
 11
11.087
 20
240.152
 21
240.249
  0
LINE
  8
0
 10
11.087
 11
11.038
 20
240.249
 21
240.349
  0
LINE
  8
0
 10
11.038
 11
10.996
 20
240.349
 21
240.453
  0
LINE
  8
0
 10
10.996
 11
10.962
 20
240.453
 21
240.559
  0
LINE
  8
0
 10
10.962
 11
10.935
 20
240.559
 21
240.667
  0
LINE
  8
0
 10
10.935
 11
10.916
 20
240.667
 21
240.777
  0
LINE
  8
0
 10
10.916
 11
10.904
 20
240.777
 21
240.888
  0
LINE
  8
0
 10
10.904
 11
10.9
 20
240.888
 21
241
  0
LINE
  8
0
 10
13.5
 11
13.539
 20
129
 21
130.116
  0
LINE
  8
0
 10
13.539
 11
13.656
 20
130.116
 21
131.227
  0
LINE
  8
0
 10
13.656
 11
13.85
 20
131.227
 21
132.327
  0
LINE
  8
0
 10
13.85
 11
14.12
 20
132.327
 21
133.41
  0
LINE
  8
0
 10
14.12
 11
14.465
 20
133.41
 21
134.472
  0
LINE
  8
0
 10
14.465
 11
14.883
 20
134.472
 21
135.508
  0
LINE
  8
0
 10
14.883
 11
15.373
 20
135.508
 21
136.512
  0
LINE
  8
0
 10
15.373
 11
15.931
 20
136.512
 21
137.479
  0
LINE
  8
0
 10
15.931
 11
16.556
 20
137.479
 21
138.405
  0
LINE
  8
0
 10
16.556
 11
17.243
 20
138.405
 21
139.285
  0
LINE
  8
0
 10
17.243
 11
17.991
 20
139.285
 21
140.115
  0
LINE
  8
0
 10
17.991
 11
18.794
 20
140.115
 21
140.89
  0
LINE
  8
0
 10
18.794
 11
19.649
 20
140.89
 21
141.608
  0
LINE
  8
0
 10
19.649
 11
20.553
 20
141.608
 21
142.265
  0
LINE
  8
0
 10
20.553
 11
21.5
 20
142.265
 21
142.856
  0
LINE
  8
0
 10
21.5
 11
22.486
 20
142.856
 21
143.381
  0
LINE
  8
0
 10
22.486
 11
23.506
 20
143.381
 21
143.835
  0
LINE
  8
0
 10
23.506
 11
24.556
 20
143.835
 21
144.217
  0
LINE
  8
0
 10
24.556
 11
25.629
 20
144.217
 21
144.525
  0
LINE
  8
0
 10
25.629
 11
26.722
 20
144.525
 21
144.757
  0
LINE
  8
0
 10
26.722
 11
27.828
 20
144.757
 21
144.912
  0
LINE
  8
0
 10
27.828
 11
28.942
 20
144.912
 21
144.99
  0
LINE
  8
0
 10
28.942
 11
30.058
 20
144.99
 21
144.99
  0
LINE
  8
0
 10
30.058
 11
31.172
 20
144.99
 21
144.912
  0
LINE
  8
0
 10
31.172
 11
32.278
 20
144.912
 21
144.757
  0
LINE
  8
0
 10
32.278
 11
33.371
 20
144.757
 21
144.525
  0
LINE
  8
0
 10
33.371
 11
34.444
 20
144.525
 21
144.217
  0
LINE
  8
0
 10
34.444
 11
35.494
 20
144.217
 21
143.835
  0
LINE
  8
0
 10
35.494
 11
36.514
 20
143.835
 21
143.381
  0
LINE
  8
0
 10
36.514
 11
37.5
 20
143.381
 21
142.856
  0
LINE
  8
0
 10
37.5
 11
38.447
 20
142.856
 21
142.265
  0
LINE
  8
0
 10
38.447
 11
39.351
 20
142.265
 21
141.608
  0
LINE
  8
0
 10
39.351
 11
40.206
 20
141.608
 21
140.89
  0
LINE
  8
0
 10
40.206
 11
41.009
 20
140.89
 21
140.115
  0
LINE
  8
0
 10
41.009
 11
41.757
 20
140.115
 21
139.285
  0
LINE
  8
0
 10
41.757
 11
42.444
 20
139.285
 21
138.405
  0
LINE
  8
0
 10
42.444
 11
43.069
 20
138.405
 21
137.479
  0
LINE
  8
0
 10
43.069
 11
43.627
 20
137.479
 21
136.512
  0
LINE
  8
0
 10
43.627
 11
44.117
 20
136.512
 21
135.508
  0
LINE
  8
0
 10
44.117
 11
44.535
 20
135.508
 21
134.472
  0
LINE
  8
0
 10
44.535
 11
44.88
 20
134.472
 21
133.41
  0
LINE
  8
0
 10
44.88
 11
45.15
 20
133.41
 21
132.327
  0
LINE
  8
0
 10
45.15
 11
45.344
 20
132.327
 21
131.227
  0
LINE
  8
0
 10
45.344
 11
45.461
 20
131.227
 21
130.116
  0
LINE
  8
0
 10
45.461
 11
45.5
 20
130.116
 21
129
  0
LINE
  8
0
 10
45.5
 11
45.461
 20
129
 21
127.884
  0
LINE
  8
0
 10
45.461
 11
45.344
 20
127.884
 21
126.773
  0
LINE
  8
0
 10
45.344
 11
45.15
 20
126.773
 21
125.673
  0
LINE
  8
0
 10
45.15
 11
44.88
 20
125.673
 21
124.59
  0
LINE
  8
0
 10
44.88
 11
44.535
 20
124.59
 21
123.528
  0
LINE
  8
0
 10
44.535
 11
44.117
 20
123.528
 21
122.492
  0
LINE
  8
0
 10
44.117
 11
43.627
 20
122.492
 21
121.488
  0
LINE
  8
0
 10
43.627
 11
43.069
 20
121.488
 21
120.521
  0
LINE
  8
0
 10
43.069
 11
42.444
 20
120.521
 21
119.595
  0
LINE
  8
0
 10
42.444
 11
41.757
 20
119.595
 21
118.715
  0
LINE
  8
0
 10
41.757
 11
41.009
 20
118.715
 21
117.885
  0
LINE
  8
0
 10
41.009
 11
40.206
 20
117.885
 21
117.11
  0
LINE
  8
0
 10
40.206
 11
39.351
 20
117.11
 21
116.392
  0
LINE
  8
0
 10
39.351
 11
38.447
 20
116.392
 21
115.735
  0
LINE
  8
0
 10
38.447
 11
37.5
 20
115.735
 21
115.144
  0
LINE
  8
0
 10
37.5
 11
36.514
 20
115.144
 21
114.619
  0
LINE
  8
0
 10
36.514
 11
35.494
 20
114.619
 21
114.165
  0
LINE
  8
0
 10
35.494
 11
34.444
 20
114.165
 21
113.783
  0
LINE
  8
0
 10
34.444
 11
33.371
 20
113.783
 21
113.475
  0
LINE
  8
0
 10
33.371
 11
32.278
 20
113.475
 21
113.243
  0
LINE
  8
0
 10
32.278
 11
31.172
 20
113.243
 21
113.088
  0
LINE
  8
0
 10
31.172
 11
30.058
 20
113.088
 21
113.01
  0
LINE
  8
0
 10
30.058
 11
28.942
 20
113.01
 21
113.01
  0
LINE
  8
0
 10
28.942
 11
27.828
 20
113.01
 21
113.088
  0
LINE
  8
0
 10
27.828
 11
26.722
 20
113.088
 21
113.243
  0
LINE
  8
0
 10
26.722
 11
25.629
 20
113.243
 21
113.475
  0
LINE
  8
0
 10
25.629
 11
24.556
 20
113.475
 21
113.783
  0
LINE
  8
0
 10
24.556
 11
23.506
 20
113.783
 21
114.165
  0
LINE
  8
0
 10
23.506
 11
22.486
 20
114.165
 21
114.619
  0
LINE
  8
0
 10
22.486
 11
21.5
 20
114.619
 21
115.144
  0
LINE
  8
0
 10
21.5
 11
20.553
 20
115.144
 21
115.735
  0
LINE
  8
0
 10
20.553
 11
19.649
 20
115.735
 21
116.392
  0
LINE
  8
0
 10
19.649
 11
18.794
 20
116.392
 21
117.11
  0
LINE
  8
0
 10
18.794
 11
17.991
 20
117.11
 21
117.885
  0
LINE
  8
0
 10
17.991
 11
17.243
 20
117.885
 21
118.715
  0
LINE
  8
0
 10
17.243
 11
16.556
 20
118.715
 21
119.595
  0
LINE
  8
0
 10
16.556
 11
15.931
 20
119.595
 21
120.521
  0
LINE
  8
0
 10
15.931
 11
15.373
 20
120.521
 21
121.488
  0
LINE
  8
0
 10
15.373
 11
14.883
 20
121.488
 21
122.492
  0
LINE
  8
0
 10
14.883
 11
14.465
 20
122.492
 21
123.528
  0
LINE
  8
0
 10
14.465
 11
14.12
 20
123.528
 21
124.59
  0
LINE
  8
0
 10
14.12
 11
13.85
 20
124.59
 21
125.673
  0
LINE
  8
0
 10
13.85
 11
13.656
 20
125.673
 21
126.773
  0
LINE
  8
0
 10
13.656
 11
13.539
 20
126.773
 21
127.884
  0
LINE
  8
0
 10
13.539
 11
13.5
 20
127.884
 21
129
  0
LINE
  8
0
 10
19.375
 11
19.383
 20
184
 21
184.218
  0
LINE
  8
0
 10
19.383
 11
19.405
 20
184.218
 21
184.435
  0
LINE
  8
0
 10
19.405
 11
19.443
 20
184.435
 21
184.65
  0
LINE
  8
0
 10
19.443
 11
19.496
 20
184.65
 21
184.861
  0
LINE
  8
0
 10
19.496
 11
19.563
 20
184.861
 21
185.069
  0
LINE
  8
0
 10
19.563
 11
19.645
 20
185.069
 21
185.271
  0
LINE
  8
0
 10
19.645
 11
19.741
 20
185.271
 21
185.467
  0
LINE
  8
0
 10
19.741
 11
19.85
 20
185.467
 21
185.656
  0
LINE
  8
0
 10
19.85
 11
19.972
 20
185.656
 21
185.837
  0
LINE
  8
0
 10
19.972
 11
20.106
 20
185.837
 21
186.009
  0
LINE
  8
0
 10
20.106
 11
20.252
 20
186.009
 21
186.171
  0
LINE
  8
0
 10
20.252
 11
20.409
 20
186.171
 21
186.322
  0
LINE
  8
0
 10
20.409
 11
20.576
 20
186.322
 21
186.463
  0
LINE
  8
0
 10
20.576
 11
20.753
 20
186.463
 21
186.591
  0
LINE
  8
0
 10
20.753
 11
20.938
 20
186.591
 21
186.706
  0
LINE
  8
0
 10
20.938
 11
21.13
 20
186.706
 21
186.809
  0
LINE
  8
0
 10
21.13
 11
21.329
 20
186.809
 21
186.897
  0
LINE
  8
0
 10
21.329
 11
21.534
 20
186.897
 21
186.972
  0
LINE
  8
0
 10
21.534
 11
21.744
 20
186.972
 21
187.032
  0
LINE
  8
0
 10
21.744
 11
21.957
 20
187.032
 21
187.078
  0
LINE
  8
0
 10
21.957
 11
22.173
 20
187.078
 21
187.108
  0
LINE
  8
0
 10
22.173
 11
22.391
 20
187.108
 21
187.123
  0
LINE
  8
0
 10
22.391
 11
22.609
 20
187.123
 21
187.123
  0
LINE
  8
0
 10
22.609
 11
22.827
 20
187.123
 21
187.108
  0
LINE
  8
0
 10
22.827
 11
23.043
 20
187.108
 21
187.078
  0
LINE
  8
0
 10
23.043
 11
23.256
 20
187.078
 21
187.032
  0
LINE
  8
0
 10
23.256
 11
23.466
 20
187.032
 21
186.972
  0
LINE
  8
0
 10
23.466
 11
23.671
 20
186.972
 21
186.897
  0
LINE
  8
0
 10
23.671
 11
23.87
 20
186.897
 21
186.809
  0
LINE
  8
0
 10
23.87
 11
24.063
 20
186.809
 21
186.706
  0
LINE
  8
0
 10
24.063
 11
24.247
 20
186.706
 21
186.591
  0
LINE
  8
0
 10
24.247
 11
24.424
 20
186.591
 21
186.463
  0
LINE
  8
0
 10
24.424
 11
24.591
 20
186.463
 21
186.322
  0
LINE
  8
0
 10
24.591
 11
24.748
 20
186.322
 21
186.171
  0
LINE
  8
0
 10
24.748
 11
24.894
 20
186.171
 21
186.009
  0
LINE
  8
0
 10
24.894
 11
25.028
 20
186.009
 21
185.837
  0
LINE
  8
0
 10
25.028
 11
25.15
 20
185.837
 21
185.656
  0
LINE
  8
0
 10
25.15
 11
25.259
 20
185.656
 21
185.467
  0
LINE
  8
0
 10
25.259
 11
25.355
 20
185.467
 21
185.271
  0
LINE
  8
0
 10
25.355
 11
25.437
 20
185.271
 21
185.069
  0
LINE
  8
0
 10
25.437
 11
25.504
 20
185.069
 21
184.861
  0
LINE
  8
0
 10
25.504
 11
25.557
 20
184.861
 21
184.65
  0
LINE
  8
0
 10
25.557
 11
25.595
 20
184.65
 21
184.435
  0
LINE
  8
0
 10
25.595
 11
25.617
 20
184.435
 21
184.218
  0
LINE
  8
0
 10
25.617
 11
25.625
 20
184.218
 21
184
  0
LINE
  8
0
 10
25.625
 11
25.617
 20
184
 21
183.782
  0
LINE
  8
0
 10
25.617
 11
25.595
 20
183.782
 21
183.565
  0
LINE
  8
0
 10
25.595
 11
25.557
 20
183.565
 21
183.35
  0
LINE
  8
0
 10
25.557
 11
25.504
 20
183.35
 21
183.139
  0
LINE
  8
0
 10
25.504
 11
25.437
 20
183.139
 21
182.931
  0
LINE
  8
0
 10
25.437
 11
25.355
 20
182.931
 21
182.729
  0
LINE
  8
0
 10
25.355
 11
25.259
 20
182.729
 21
182.533
  0
LINE
  8
0
 10
25.259
 11
25.15
 20
182.533
 21
182.344
  0
LINE
  8
0
 10
25.15
 11
25.028
 20
182.344
 21
182.163
  0
LINE
  8
0
 10
25.028
 11
24.894
 20
182.163
 21
181.991
  0
LINE
  8
0
 10
24.894
 11
24.748
 20
181.991
 21
181.829
  0
LINE
  8
0
 10
24.748
 11
24.591
 20
181.829
 21
181.678
  0
LINE
  8
0
 10
24.591
 11
24.424
 20
181.678
 21
181.537
  0
LINE
  8
0
 10
24.424
 11
24.247
 20
181.537
 21
181.409
  0
LINE
  8
0
 10
24.247
 11
24.063
 20
181.409
 21
181.294
  0
LINE
  8
0
 10
24.063
 11
23.87
 20
181.294
 21
181.191
  0
LINE
  8
0
 10
23.87
 11
23.671
 20
181.191
 21
181.103
  0
LINE
  8
0
 10
23.671
 11
23.466
 20
181.103
 21
181.028
  0
LINE
  8
0
 10
23.466
 11
23.256
 20
181.028
 21
180.968
  0
LINE
  8
0
 10
23.256
 11
23.043
 20
180.968
 21
180.922
  0
LINE
  8
0
 10
23.043
 11
22.827
 20
180.922
 21
180.892
  0
LINE
  8
0
 10
22.827
 11
22.609
 20
180.892
 21
180.877
  0
LINE
  8
0
 10
22.609
 11
22.391
 20
180.877
 21
180.877
  0
LINE
  8
0
 10
22.391
 11
22.173
 20
180.877
 21
180.892
  0
LINE
  8
0
 10
22.173
 11
21.957
 20
180.892
 21
180.922
  0
LINE
  8
0
 10
21.957
 11
21.744
 20
180.922
 21
180.968
  0
LINE
  8
0
 10
21.744
 11
21.534
 20
180.968
 21
181.028
  0
LINE
  8
0
 10
21.534
 11
21.329
 20
181.028
 21
181.103
  0
LINE
  8
0
 10
21.329
 11
21.13
 20
181.103
 21
181.191
  0
LINE
  8
0
 10
21.13
 11
20.938
 20
181.191
 21
181.294
  0
LINE
  8
0
 10
20.938
 11
20.753
 20
181.294
 21
181.409
  0
LINE
  8
0
 10
20.753
 11
20.576
 20
181.409
 21
181.537
  0
LINE
  8
0
 10
20.576
 11
20.409
 20
181.537
 21
181.678
  0
LINE
  8
0
 10
20.409
 11
20.252
 20
181.678
 21
181.829
  0
LINE
  8
0
 10
20.252
 11
20.106
 20
181.829
 21
181.991
  0
LINE
  8
0
 10
20.106
 11
19.972
 20
181.991
 21
182.163
  0
LINE
  8
0
 10
19.972
 11
19.85
 20
182.163
 21
182.344
  0
LINE
  8
0
 10
19.85
 11
19.741
 20
182.344
 21
182.533
  0
LINE
  8
0
 10
19.741
 11
19.645
 20
182.533
 21
182.729
  0
LINE
  8
0
 10
19.645
 11
19.563
 20
182.729
 21
182.931
  0
LINE
  8
0
 10
19.563
 11
19.496
 20
182.931
 21
183.139
  0
LINE
  8
0
 10
19.496
 11
19.443
 20
183.139
 21
183.35
  0
LINE
  8
0
 10
19.443
 11
19.405
 20
183.35
 21
183.565
  0
LINE
  8
0
 10
19.405
 11
19.383
 20
183.565
 21
183.782
  0
LINE
  8
0
 10
19.383
 11
19.375
 20
183.782
 21
184
  0
LINE
  8
0
 10
19.375
 11
19.383
 20
234
 21
234.218
  0
LINE
  8
0
 10
19.383
 11
19.405
 20
234.218
 21
234.435
  0
LINE
  8
0
 10
19.405
 11
19.443
 20
234.435
 21
234.65
  0
LINE
  8
0
 10
19.443
 11
19.496
 20
234.65
 21
234.861
  0
LINE
  8
0
 10
19.496
 11
19.563
 20
234.861
 21
235.069
  0
LINE
  8
0
 10
19.563
 11
19.645
 20
235.069
 21
235.271
  0
LINE
  8
0
 10
19.645
 11
19.741
 20
235.271
 21
235.467
  0
LINE
  8
0
 10
19.741
 11
19.85
 20
235.467
 21
235.656
  0
LINE
  8
0
 10
19.85
 11
19.972
 20
235.656
 21
235.837
  0
LINE
  8
0
 10
19.972
 11
20.106
 20
235.837
 21
236.009
  0
LINE
  8
0
 10
20.106
 11
20.252
 20
236.009
 21
236.171
  0
LINE
  8
0
 10
20.252
 11
20.409
 20
236.171
 21
236.322
  0
LINE
  8
0
 10
20.409
 11
20.576
 20
236.322
 21
236.463
  0
LINE
  8
0
 10
20.576
 11
20.753
 20
236.463
 21
236.591
  0
LINE
  8
0
 10
20.753
 11
20.938
 20
236.591
 21
236.706
  0
LINE
  8
0
 10
20.938
 11
21.13
 20
236.706
 21
236.809
  0
LINE
  8
0
 10
21.13
 11
21.329
 20
236.809
 21
236.897
  0
LINE
  8
0
 10
21.329
 11
21.534
 20
236.897
 21
236.972
  0
LINE
  8
0
 10
21.534
 11
21.744
 20
236.972
 21
237.032
  0
LINE
  8
0
 10
21.744
 11
21.957
 20
237.032
 21
237.078
  0
LINE
  8
0
 10
21.957
 11
22.173
 20
237.078
 21
237.108
  0
LINE
  8
0
 10
22.173
 11
22.391
 20
237.108
 21
237.123
  0
LINE
  8
0
 10
22.391
 11
22.609
 20
237.123
 21
237.123
  0
LINE
  8
0
 10
22.609
 11
22.827
 20
237.123
 21
237.108
  0
LINE
  8
0
 10
22.827
 11
23.043
 20
237.108
 21
237.078
  0
LINE
  8
0
 10
23.043
 11
23.256
 20
237.078
 21
237.032
  0
LINE
  8
0
 10
23.256
 11
23.466
 20
237.032
 21
236.972
  0
LINE
  8
0
 10
23.466
 11
23.671
 20
236.972
 21
236.897
  0
LINE
  8
0
 10
23.671
 11
23.87
 20
236.897
 21
236.809
  0
LINE
  8
0
 10
23.87
 11
24.063
 20
236.809
 21
236.706
  0
LINE
  8
0
 10
24.063
 11
24.247
 20
236.706
 21
236.591
  0
LINE
  8
0
 10
24.247
 11
24.424
 20
236.591
 21
236.463
  0
LINE
  8
0
 10
24.424
 11
24.591
 20
236.463
 21
236.322
  0
LINE
  8
0
 10
24.591
 11
24.748
 20
236.322
 21
236.171
  0
LINE
  8
0
 10
24.748
 11
24.894
 20
236.171
 21
236.009
  0
LINE
  8
0
 10
24.894
 11
25.028
 20
236.009
 21
235.837
  0
LINE
  8
0
 10
25.028
 11
25.15
 20
235.837
 21
235.656
  0
LINE
  8
0
 10
25.15
 11
25.259
 20
235.656
 21
235.467
  0
LINE
  8
0
 10
25.259
 11
25.355
 20
235.467
 21
235.271
  0
LINE
  8
0
 10
25.355
 11
25.437
 20
235.271
 21
235.069
  0
LINE
  8
0
 10
25.437
 11
25.504
 20
235.069
 21
234.861
  0
LINE
  8
0
 10
25.504
 11
25.557
 20
234.861
 21
234.65
  0
LINE
  8
0
 10
25.557
 11
25.595
 20
234.65
 21
234.435
  0
LINE
  8
0
 10
25.595
 11
25.617
 20
234.435
 21
234.218
  0
LINE
  8
0
 10
25.617
 11
25.625
 20
234.218
 21
234
  0
LINE
  8
0
 10
25.625
 11
25.617
 20
234
 21
233.782
  0
LINE
  8
0
 10
25.617
 11
25.595
 20
233.782
 21
233.565
  0
LINE
  8
0
 10
25.595
 11
25.557
 20
233.565
 21
233.35
  0
LINE
  8
0
 10
25.557
 11
25.504
 20
233.35
 21
233.139
  0
LINE
  8
0
 10
25.504
 11
25.437
 20
233.139
 21
232.931
  0
LINE
  8
0
 10
25.437
 11
25.355
 20
232.931
 21
232.729
  0
LINE
  8
0
 10
25.355
 11
25.259
 20
232.729
 21
232.533
  0
LINE
  8
0
 10
25.259
 11
25.15
 20
232.533
 21
232.344
  0
LINE
  8
0
 10
25.15
 11
25.028
 20
232.344
 21
232.163
  0
LINE
  8
0
 10
25.028
 11
24.894
 20
232.163
 21
231.991
  0
LINE
  8
0
 10
24.894
 11
24.748
 20
231.991
 21
231.829
  0
LINE
  8
0
 10
24.748
 11
24.591
 20
231.829
 21
231.678
  0
LINE
  8
0
 10
24.591
 11
24.424
 20
231.678
 21
231.537
  0
LINE
  8
0
 10
24.424
 11
24.247
 20
231.537
 21
231.409
  0
LINE
  8
0
 10
24.247
 11
24.063
 20
231.409
 21
231.294
  0
LINE
  8
0
 10
24.063
 11
23.87
 20
231.294
 21
231.191
  0
LINE
  8
0
 10
23.87
 11
23.671
 20
231.191
 21
231.103
  0
LINE
  8
0
 10
23.671
 11
23.466
 20
231.103
 21
231.028
  0
LINE
  8
0
 10
23.466
 11
23.256
 20
231.028
 21
230.968
  0
LINE
  8
0
 10
23.256
 11
23.043
 20
230.968
 21
230.922
  0
LINE
  8
0
 10
23.043
 11
22.827
 20
230.922
 21
230.892
  0
LINE
  8
0
 10
22.827
 11
22.609
 20
230.892
 21
230.877
  0
LINE
  8
0
 10
22.609
 11
22.391
 20
230.877
 21
230.877
  0
LINE
  8
0
 10
22.391
 11
22.173
 20
230.877
 21
230.892
  0
LINE
  8
0
 10
22.173
 11
21.957
 20
230.892
 21
230.922
  0
LINE
  8
0
 10
21.957
 11
21.744
 20
230.922
 21
230.968
  0
LINE
  8
0
 10
21.744
 11
21.534
 20
230.968
 21
231.028
  0
LINE
  8
0
 10
21.534
 11
21.329
 20
231.028
 21
231.103
  0
LINE
  8
0
 10
21.329
 11
21.13
 20
231.103
 21
231.191
  0
LINE
  8
0
 10
21.13
 11
20.938
 20
231.191
 21
231.294
  0
LINE
  8
0
 10
20.938
 11
20.753
 20
231.294
 21
231.409
  0
LINE
  8
0
 10
20.753
 11
20.576
 20
231.409
 21
231.537
  0
LINE
  8
0
 10
20.576
 11
20.409
 20
231.537
 21
231.678
  0
LINE
  8
0
 10
20.409
 11
20.252
 20
231.678
 21
231.829
  0
LINE
  8
0
 10
20.252
 11
20.106
 20
231.829
 21
231.991
  0
LINE
  8
0
 10
20.106
 11
19.972
 20
231.991
 21
232.163
  0
LINE
  8
0
 10
19.972
 11
19.85
 20
232.163
 21
232.344
  0
LINE
  8
0
 10
19.85
 11
19.741
 20
232.344
 21
232.533
  0
LINE
  8
0
 10
19.741
 11
19.645
 20
232.533
 21
232.729
  0
LINE
  8
0
 10
19.645
 11
19.563
 20
232.729
 21
232.931
  0
LINE
  8
0
 10
19.563
 11
19.496
 20
232.931
 21
233.139
  0
LINE
  8
0
 10
19.496
 11
19.443
 20
233.139
 21
233.35
  0
LINE
  8
0
 10
19.443
 11
19.405
 20
233.35
 21
233.565
  0
LINE
  8
0
 10
19.405
 11
19.383
 20
233.565
 21
233.782
  0
LINE
  8
0
 10
19.383
 11
19.375
 20
233.782
 21
234
  0
LINE
  8
0
 10
20.9
 11
20.904
 20
104
 21
104.112
  0
LINE
  8
0
 10
20.904
 11
20.916
 20
104.112
 21
104.223
  0
LINE
  8
0
 10
20.916
 11
20.935
 20
104.223
 21
104.333
  0
LINE
  8
0
 10
20.935
 11
20.962
 20
104.333
 21
104.441
  0
LINE
  8
0
 10
20.962
 11
20.996
 20
104.441
 21
104.547
  0
LINE
  8
0
 10
20.996
 11
21.038
 20
104.547
 21
104.651
  0
LINE
  8
0
 10
21.038
 11
21.087
 20
104.651
 21
104.751
  0
LINE
  8
0
 10
21.087
 11
21.143
 20
104.751
 21
104.848
  0
LINE
  8
0
 10
21.143
 11
21.206
 20
104.848
 21
104.94
  0
LINE
  8
0
 10
21.206
 11
21.274
 20
104.94
 21
105.028
  0
LINE
  8
0
 10
21.274
 11
21.349
 20
105.028
 21
105.111
  0
LINE
  8
0
 10
21.349
 11
21.429
 20
105.111
 21
105.189
  0
LINE
  8
0
 10
21.429
 11
21.515
 20
105.189
 21
105.261
  0
LINE
  8
0
 10
21.515
 11
21.605
 20
105.261
 21
105.326
  0
LINE
  8
0
 10
21.605
 11
21.7
 20
105.326
 21
105.386
  0
LINE
  8
0
 10
21.7
 11
21.799
 20
105.386
 21
105.438
  0
LINE
  8
0
 10
21.799
 11
21.901
 20
105.438
 21
105.483
  0
LINE
  8
0
 10
21.901
 11
22.006
 20
105.483
 21
105.522
  0
LINE
  8
0
 10
22.006
 11
22.113
 20
105.522
 21
105.552
  0
LINE
  8
0
 10
22.113
 11
22.222
 20
105.552
 21
105.576
  0
LINE
  8
0
 10
22.222
 11
22.333
 20
105.576
 21
105.591
  0
LINE
  8
0
 10
22.333
 11
22.444
 20
105.591
 21
105.599
  0
LINE
  8
0
 10
22.444
 11
22.556
 20
105.599
 21
105.599
  0
LINE
  8
0
 10
22.556
 11
22.667
 20
105.599
 21
105.591
  0
LINE
  8
0
 10
22.667
 11
22.778
 20
105.591
 21
105.576
  0
LINE
  8
0
 10
22.778
 11
22.887
 20
105.576
 21
105.552
  0
LINE
  8
0
 10
22.887
 11
22.994
 20
105.552
 21
105.522
  0
LINE
  8
0
 10
22.994
 11
23.099
 20
105.522
 21
105.483
  0
LINE
  8
0
 10
23.099
 11
23.201
 20
105.483
 21
105.438
  0
LINE
  8
0
 10
23.201
 11
23.3
 20
105.438
 21
105.386
  0
LINE
  8
0
 10
23.3
 11
23.395
 20
105.386
 21
105.326
  0
LINE
  8
0
 10
23.395
 11
23.485
 20
105.326
 21
105.261
  0
LINE
  8
0
 10
23.485
 11
23.571
 20
105.261
 21
105.189
  0
LINE
  8
0
 10
23.571
 11
23.651
 20
105.189
 21
105.111
  0
LINE
  8
0
 10
23.651
 11
23.726
 20
105.111
 21
105.028
  0
LINE
  8
0
 10
23.726
 11
23.794
 20
105.028
 21
104.94
  0
LINE
  8
0
 10
23.794
 11
23.857
 20
104.94
 21
104.848
  0
LINE
  8
0
 10
23.857
 11
23.913
 20
104.848
 21
104.751
  0
LINE
  8
0
 10
23.913
 11
23.962
 20
104.751
 21
104.651
  0
LINE
  8
0
 10
23.962
 11
24.004
 20
104.651
 21
104.547
  0
LINE
  8
0
 10
24.004
 11
24.038
 20
104.547
 21
104.441
  0
LINE
  8
0
 10
24.038
 11
24.065
 20
104.441
 21
104.333
  0
LINE
  8
0
 10
24.065
 11
24.084
 20
104.333
 21
104.223
  0
LINE
  8
0
 10
24.084
 11
24.096
 20
104.223
 21
104.112
  0
LINE
  8
0
 10
24.096
 11
24.1
 20
104.112
 21
104
  0
LINE
  8
0
 10
24.1
 11
24.096
 20
104
 21
103.888
  0
LINE
  8
0
 10
24.096
 11
24.084
 20
103.888
 21
103.777
  0
LINE
  8
0
 10
24.084
 11
24.065
 20
103.777
 21
103.667
  0
LINE
  8
0
 10
24.065
 11
24.038
 20
103.667
 21
103.559
  0
LINE
  8
0
 10
24.038
 11
24.004
 20
103.559
 21
103.453
  0
LINE
  8
0
 10
24.004
 11
23.962
 20
103.453
 21
103.349
  0
LINE
  8
0
 10
23.962
 11
23.913
 20
103.349
 21
103.249
  0
LINE
  8
0
 10
23.913
 11
23.857
 20
103.249
 21
103.152
  0
LINE
  8
0
 10
23.857
 11
23.794
 20
103.152
 21
103.06
  0
LINE
  8
0
 10
23.794
 11
23.726
 20
103.06
 21
102.972
  0
LINE
  8
0
 10
23.726
 11
23.651
 20
102.972
 21
102.889
  0
LINE
  8
0
 10
23.651
 11
23.571
 20
102.889
 21
102.811
  0
LINE
  8
0
 10
23.571
 11
23.485
 20
102.811
 21
102.739
  0
LINE
  8
0
 10
23.485
 11
23.395
 20
102.739
 21
102.674
  0
LINE
  8
0
 10
23.395
 11
23.3
 20
102.674
 21
102.614
  0
LINE
  8
0
 10
23.3
 11
23.201
 20
102.614
 21
102.562
  0
LINE
  8
0
 10
23.201
 11
23.099
 20
102.562
 21
102.517
  0
LINE
  8
0
 10
23.099
 11
22.994
 20
102.517
 21
102.478
  0
LINE
  8
0
 10
22.994
 11
22.887
 20
102.478
 21
102.448
  0
LINE
  8
0
 10
22.887
 11
22.778
 20
102.448
 21
102.424
  0
LINE
  8
0
 10
22.778
 11
22.667
 20
102.424
 21
102.409
  0
LINE
  8
0
 10
22.667
 11
22.556
 20
102.409
 21
102.401
  0
LINE
  8
0
 10
22.556
 11
22.444
 20
102.401
 21
102.401
  0
LINE
  8
0
 10
22.444
 11
22.333
 20
102.401
 21
102.409
  0
LINE
  8
0
 10
22.333
 11
22.222
 20
102.409
 21
102.424
  0
LINE
  8
0
 10
22.222
 11
22.113
 20
102.424
 21
102.448
  0
LINE
  8
0
 10
22.113
 11
22.006
 20
102.448
 21
102.478
  0
LINE
  8
0
 10
22.006
 11
21.901
 20
102.478
 21
102.517
  0
LINE
  8
0
 10
21.901
 11
21.799
 20
102.517
 21
102.562
  0
LINE
  8
0
 10
21.799
 11
21.7
 20
102.562
 21
102.614
  0
LINE
  8
0
 10
21.7
 11
21.605
 20
102.614
 21
102.674
  0
LINE
  8
0
 10
21.605
 11
21.515
 20
102.674
 21
102.739
  0
LINE
  8
0
 10
21.515
 11
21.429
 20
102.739
 21
102.811
  0
LINE
  8
0
 10
21.429
 11
21.349
 20
102.811
 21
102.889
  0
LINE
  8
0
 10
21.349
 11
21.274
 20
102.889
 21
102.972
  0
LINE
  8
0
 10
21.274
 11
21.206
 20
102.972
 21
103.06
  0
LINE
  8
0
 10
21.206
 11
21.143
 20
103.06
 21
103.152
  0
LINE
  8
0
 10
21.143
 11
21.087
 20
103.152
 21
103.249
  0
LINE
  8
0
 10
21.087
 11
21.038
 20
103.249
 21
103.349
  0
LINE
  8
0
 10
21.038
 11
20.996
 20
103.349
 21
103.453
  0
LINE
  8
0
 10
20.996
 11
20.962
 20
103.453
 21
103.559
  0
LINE
  8
0
 10
20.962
 11
20.935
 20
103.559
 21
103.667
  0
LINE
  8
0
 10
20.935
 11
20.916
 20
103.667
 21
103.777
  0
LINE
  8
0
 10
20.916
 11
20.904
 20
103.777
 21
103.888
  0
LINE
  8
0
 10
20.904
 11
20.9
 20
103.888
 21
104
  0
LINE
  8
0
 10
20.9
 11
20.904
 20
154
 21
154.112
  0
LINE
  8
0
 10
20.904
 11
20.916
 20
154.112
 21
154.223
  0
LINE
  8
0
 10
20.916
 11
20.935
 20
154.223
 21
154.333
  0
LINE
  8
0
 10
20.935
 11
20.962
 20
154.333
 21
154.441
  0
LINE
  8
0
 10
20.962
 11
20.996
 20
154.441
 21
154.547
  0
LINE
  8
0
 10
20.996
 11
21.038
 20
154.547
 21
154.651
  0
LINE
  8
0
 10
21.038
 11
21.087
 20
154.651
 21
154.751
  0
LINE
  8
0
 10
21.087
 11
21.143
 20
154.751
 21
154.848
  0
LINE
  8
0
 10
21.143
 11
21.206
 20
154.848
 21
154.94
  0
LINE
  8
0
 10
21.206
 11
21.274
 20
154.94
 21
155.028
  0
LINE
  8
0
 10
21.274
 11
21.349
 20
155.028
 21
155.111
  0
LINE
  8
0
 10
21.349
 11
21.429
 20
155.111
 21
155.189
  0
LINE
  8
0
 10
21.429
 11
21.515
 20
155.189
 21
155.261
  0
LINE
  8
0
 10
21.515
 11
21.605
 20
155.261
 21
155.326
  0
LINE
  8
0
 10
21.605
 11
21.7
 20
155.326
 21
155.386
  0
LINE
  8
0
 10
21.7
 11
21.799
 20
155.386
 21
155.438
  0
LINE
  8
0
 10
21.799
 11
21.901
 20
155.438
 21
155.483
  0
LINE
  8
0
 10
21.901
 11
22.006
 20
155.483
 21
155.522
  0
LINE
  8
0
 10
22.006
 11
22.113
 20
155.522
 21
155.552
  0
LINE
  8
0
 10
22.113
 11
22.222
 20
155.552
 21
155.576
  0
LINE
  8
0
 10
22.222
 11
22.333
 20
155.576
 21
155.591
  0
LINE
  8
0
 10
22.333
 11
22.444
 20
155.591
 21
155.599
  0
LINE
  8
0
 10
22.444
 11
22.556
 20
155.599
 21
155.599
  0
LINE
  8
0
 10
22.556
 11
22.667
 20
155.599
 21
155.591
  0
LINE
  8
0
 10
22.667
 11
22.778
 20
155.591
 21
155.576
  0
LINE
  8
0
 10
22.778
 11
22.887
 20
155.576
 21
155.552
  0
LINE
  8
0
 10
22.887
 11
22.994
 20
155.552
 21
155.522
  0
LINE
  8
0
 10
22.994
 11
23.099
 20
155.522
 21
155.483
  0
LINE
  8
0
 10
23.099
 11
23.201
 20
155.483
 21
155.438
  0
LINE
  8
0
 10
23.201
 11
23.3
 20
155.438
 21
155.386
  0
LINE
  8
0
 10
23.3
 11
23.395
 20
155.386
 21
155.326
  0
LINE
  8
0
 10
23.395
 11
23.485
 20
155.326
 21
155.261
  0
LINE
  8
0
 10
23.485
 11
23.571
 20
155.261
 21
155.189
  0
LINE
  8
0
 10
23.571
 11
23.651
 20
155.189
 21
155.111
  0
LINE
  8
0
 10
23.651
 11
23.726
 20
155.111
 21
155.028
  0
LINE
  8
0
 10
23.726
 11
23.794
 20
155.028
 21
154.94
  0
LINE
  8
0
 10
23.794
 11
23.857
 20
154.94
 21
154.848
  0
LINE
  8
0
 10
23.857
 11
23.913
 20
154.848
 21
154.751
  0
LINE
  8
0
 10
23.913
 11
23.962
 20
154.751
 21
154.651
  0
LINE
  8
0
 10
23.962
 11
24.004
 20
154.651
 21
154.547
  0
LINE
  8
0
 10
24.004
 11
24.038
 20
154.547
 21
154.441
  0
LINE
  8
0
 10
24.038
 11
24.065
 20
154.441
 21
154.333
  0
LINE
  8
0
 10
24.065
 11
24.084
 20
154.333
 21
154.223
  0
LINE
  8
0
 10
24.084
 11
24.096
 20
154.223
 21
154.112
  0
LINE
  8
0
 10
24.096
 11
24.1
 20
154.112
 21
154
  0
LINE
  8
0
 10
24.1
 11
24.096
 20
154
 21
153.888
  0
LINE
  8
0
 10
24.096
 11
24.084
 20
153.888
 21
153.777
  0
LINE
  8
0
 10
24.084
 11
24.065
 20
153.777
 21
153.667
  0
LINE
  8
0
 10
24.065
 11
24.038
 20
153.667
 21
153.559
  0
LINE
  8
0
 10
24.038
 11
24.004
 20
153.559
 21
153.453
  0
LINE
  8
0
 10
24.004
 11
23.962
 20
153.453
 21
153.349
  0
LINE
  8
0
 10
23.962
 11
23.913
 20
153.349
 21
153.249
  0
LINE
  8
0
 10
23.913
 11
23.857
 20
153.249
 21
153.152
  0
LINE
  8
0
 10
23.857
 11
23.794
 20
153.152
 21
153.06
  0
LINE
  8
0
 10
23.794
 11
23.726
 20
153.06
 21
152.972
  0
LINE
  8
0
 10
23.726
 11
23.651
 20
152.972
 21
152.889
  0
LINE
  8
0
 10
23.651
 11
23.571
 20
152.889
 21
152.811
  0
LINE
  8
0
 10
23.571
 11
23.485
 20
152.811
 21
152.739
  0
LINE
  8
0
 10
23.485
 11
23.395
 20
152.739
 21
152.674
  0
LINE
  8
0
 10
23.395
 11
23.3
 20
152.674
 21
152.614
  0
LINE
  8
0
 10
23.3
 11
23.201
 20
152.614
 21
152.562
  0
LINE
  8
0
 10
23.201
 11
23.099
 20
152.562
 21
152.517
  0
LINE
  8
0
 10
23.099
 11
22.994
 20
152.517
 21
152.478
  0
LINE
  8
0
 10
22.994
 11
22.887
 20
152.478
 21
152.448
  0
LINE
  8
0
 10
22.887
 11
22.778
 20
152.448
 21
152.424
  0
LINE
  8
0
 10
22.778
 11
22.667
 20
152.424
 21
152.409
  0
LINE
  8
0
 10
22.667
 11
22.556
 20
152.409
 21
152.401
  0
LINE
  8
0
 10
22.556
 11
22.444
 20
152.401
 21
152.401
  0
LINE
  8
0
 10
22.444
 11
22.333
 20
152.401
 21
152.409
  0
LINE
  8
0
 10
22.333
 11
22.222
 20
152.409
 21
152.424
  0
LINE
  8
0
 10
22.222
 11
22.113
 20
152.424
 21
152.448
  0
LINE
  8
0
 10
22.113
 11
22.006
 20
152.448
 21
152.478
  0
LINE
  8
0
 10
22.006
 11
21.901
 20
152.478
 21
152.517
  0
LINE
  8
0
 10
21.901
 11
21.799
 20
152.517
 21
152.562
  0
LINE
  8
0
 10
21.799
 11
21.7
 20
152.562
 21
152.614
  0
LINE
  8
0
 10
21.7
 11
21.605
 20
152.614
 21
152.674
  0
LINE
  8
0
 10
21.605
 11
21.515
 20
152.674
 21
152.739
  0
LINE
  8
0
 10
21.515
 11
21.429
 20
152.739
 21
152.811
  0
LINE
  8
0
 10
21.429
 11
21.349
 20
152.811
 21
152.889
  0
LINE
  8
0
 10
21.349
 11
21.274
 20
152.889
 21
152.972
  0
LINE
  8
0
 10
21.274
 11
21.206
 20
152.972
 21
153.06
  0
LINE
  8
0
 10
21.206
 11
21.143
 20
153.06
 21
153.152
  0
LINE
  8
0
 10
21.143
 11
21.087
 20
153.152
 21
153.249
  0
LINE
  8
0
 10
21.087
 11
21.038
 20
153.249
 21
153.349
  0
LINE
  8
0
 10
21.038
 11
20.996
 20
153.349
 21
153.453
  0
LINE
  8
0
 10
20.996
 11
20.962
 20
153.453
 21
153.559
  0
LINE
  8
0
 10
20.962
 11
20.935
 20
153.559
 21
153.667
  0
LINE
  8
0
 10
20.935
 11
20.916
 20
153.667
 21
153.777
  0
LINE
  8
0
 10
20.916
 11
20.904
 20
153.777
 21
153.888
  0
LINE
  8
0
 10
20.904
 11
20.9
 20
153.888
 21
154
  0
LINE
  8
0
 10
27
 11
27
 20
264
 21
278
  0
LINE
  8
0
 10
27
 11
43
 20
278
 21
278
  0
LINE
  8
0
 10
43
 11
43
 20
278
 21
264
  0
LINE
  8
0
 10
43
 11
27
 20
264
 21
264
  0
LINE
  8
0
 10
90
 11
90
 20
261
 21
284
  0
LINE
  8
0
 10
90
 11
102
 20
284
 21
284
  0
LINE
  8
0
 10
102
 11
102
 20
284
 21
281.1
  0
LINE
  8
0
 10
102
 11
158
 20
281.1
 21
281.1
  0
LINE
  8
0
 10
158
 11
158
 20
281.1
 21
284
  0
LINE
  8
0
 10
158
 11
170
 20
284
 21
284
  0
LINE
  8
0
 10
170
 11
170
 20
284
 21
261
  0
LINE
  8
0
 10
170
 11
167
 20
261
 21
261
  0
LINE
  8
0
 10
167
 11
167
 20
261
 21
249
  0
LINE
  8
0
 10
167
 11
158
 20
249
 21
249
  0
LINE
  8
0
 10
158
 11
158
 20
249
 21
252
  0
LINE
  8
0
 10
158
 11
102
 20
252
 21
252
  0
LINE
  8
0
 10
102
 11
102
 20
252
 21
249
  0
LINE
  8
0
 10
102
 11
92.9
 20
249
 21
249
  0
LINE
  8
0
 10
92.9
 11
92.9
 20
249
 21
261
  0
LINE
  8
0
 10
92.9
 11
90
 20
261
 21
261
  0
LINE
  8
0
 10
109.5
 11
109.5
 20
15.75
 21
76.25
  0
LINE
  8
0
 10
109.5
 11
152.5
 20
76.25
 21
76.25
  0
LINE
  8
0
 10
152.5
 11
152.5
 20
76.25
 21
15.75
  0
LINE
  8
0
 10
152.5
 11
109.5
 20
15.75
 21
15.75
  0
LINE
  8
0
 10
147.375
 11
147.383
 20
184
 21
184.218
  0
LINE
  8
0
 10
147.383
 11
147.405
 20
184.218
 21
184.435
  0
LINE
  8
0
 10
147.405
 11
147.443
 20
184.435
 21
184.65
  0
LINE
  8
0
 10
147.443
 11
147.496
 20
184.65
 21
184.861
  0
LINE
  8
0
 10
147.496
 11
147.563
 20
184.861
 21
185.069
  0
LINE
  8
0
 10
147.563
 11
147.645
 20
185.069
 21
185.271
  0
LINE
  8
0
 10
147.645
 11
147.741
 20
185.271
 21
185.467
  0
LINE
  8
0
 10
147.741
 11
147.85
 20
185.467
 21
185.656
  0
LINE
  8
0
 10
147.85
 11
147.972
 20
185.656
 21
185.837
  0
LINE
  8
0
 10
147.972
 11
148.106
 20
185.837
 21
186.009
  0
LINE
  8
0
 10
148.106
 11
148.252
 20
186.009
 21
186.171
  0
LINE
  8
0
 10
148.252
 11
148.409
 20
186.171
 21
186.322
  0
LINE
  8
0
 10
148.409
 11
148.576
 20
186.322
 21
186.463
  0
LINE
  8
0
 10
148.576
 11
148.753
 20
186.463
 21
186.591
  0
LINE
  8
0
 10
148.753
 11
148.938
 20
186.591
 21
186.706
  0
LINE
  8
0
 10
148.938
 11
149.13
 20
186.706
 21
186.809
  0
LINE
  8
0
 10
149.13
 11
149.329
 20
186.809
 21
186.897
  0
LINE
  8
0
 10
149.329
 11
149.534
 20
186.897
 21
186.972
  0
LINE
  8
0
 10
149.534
 11
149.744
 20
186.972
 21
187.032
  0
LINE
  8
0
 10
149.744
 11
149.957
 20
187.032
 21
187.078
  0
LINE
  8
0
 10
149.957
 11
150.173
 20
187.078
 21
187.108
  0
LINE
  8
0
 10
150.173
 11
150.391
 20
187.108
 21
187.123
  0
LINE
  8
0
 10
150.391
 11
150.609
 20
187.123
 21
187.123
  0
LINE
  8
0
 10
150.609
 11
150.827
 20
187.123
 21
187.108
  0
LINE
  8
0
 10
150.827
 11
151.043
 20
187.108
 21
187.078
  0
LINE
  8
0
 10
151.043
 11
151.256
 20
187.078
 21
187.032
  0
LINE
  8
0
 10
151.256
 11
151.466
 20
187.032
 21
186.972
  0
LINE
  8
0
 10
151.466
 11
151.671
 20
186.972
 21
186.897
  0
LINE
  8
0
 10
151.671
 11
151.87
 20
186.897
 21
186.809
  0
LINE
  8
0
 10
151.87
 11
152.063
 20
186.809
 21
186.706
  0
LINE
  8
0
 10
152.063
 11
152.247
 20
186.706
 21
186.591
  0
LINE
  8
0
 10
152.247
 11
152.424
 20
186.591
 21
186.463
  0
LINE
  8
0
 10
152.424
 11
152.591
 20
186.463
 21
186.322
  0
LINE
  8
0
 10
152.591
 11
152.748
 20
186.322
 21
186.171
  0
LINE
  8
0
 10
152.748
 11
152.894
 20
186.171
 21
186.009
  0
LINE
  8
0
 10
152.894
 11
153.028
 20
186.009
 21
185.837
  0
LINE
  8
0
 10
153.028
 11
153.15
 20
185.837
 21
185.656
  0
LINE
  8
0
 10
153.15
 11
153.259
 20
185.656
 21
185.467
  0
LINE
  8
0
 10
153.259
 11
153.355
 20
185.467
 21
185.271
  0
LINE
  8
0
 10
153.355
 11
153.437
 20
185.271
 21
185.069
  0
LINE
  8
0
 10
153.437
 11
153.504
 20
185.069
 21
184.861
  0
LINE
  8
0
 10
153.504
 11
153.557
 20
184.861
 21
184.65
  0
LINE
  8
0
 10
153.557
 11
153.595
 20
184.65
 21
184.435
  0
LINE
  8
0
 10
153.595
 11
153.617
 20
184.435
 21
184.218
  0
LINE
  8
0
 10
153.617
 11
153.625
 20
184.218
 21
184
  0
LINE
  8
0
 10
153.625
 11
153.617
 20
184
 21
183.782
  0
LINE
  8
0
 10
153.617
 11
153.595
 20
183.782
 21
183.565
  0
LINE
  8
0
 10
153.595
 11
153.557
 20
183.565
 21
183.35
  0
LINE
  8
0
 10
153.557
 11
153.504
 20
183.35
 21
183.139
  0
LINE
  8
0
 10
153.504
 11
153.437
 20
183.139
 21
182.931
  0
LINE
  8
0
 10
153.437
 11
153.355
 20
182.931
 21
182.729
  0
LINE
  8
0
 10
153.355
 11
153.259
 20
182.729
 21
182.533
  0
LINE
  8
0
 10
153.259
 11
153.15
 20
182.533
 21
182.344
  0
LINE
  8
0
 10
153.15
 11
153.028
 20
182.344
 21
182.163
  0
LINE
  8
0
 10
153.028
 11
152.894
 20
182.163
 21
181.991
  0
LINE
  8
0
 10
152.894
 11
152.748
 20
181.991
 21
181.829
  0
LINE
  8
0
 10
152.748
 11
152.591
 20
181.829
 21
181.678
  0
LINE
  8
0
 10
152.591
 11
152.424
 20
181.678
 21
181.537
  0
LINE
  8
0
 10
152.424
 11
152.247
 20
181.537
 21
181.409
  0
LINE
  8
0
 10
152.247
 11
152.063
 20
181.409
 21
181.294
  0
LINE
  8
0
 10
152.063
 11
151.87
 20
181.294
 21
181.191
  0
LINE
  8
0
 10
151.87
 11
151.671
 20
181.191
 21
181.103
  0
LINE
  8
0
 10
151.671
 11
151.466
 20
181.103
 21
181.028
  0
LINE
  8
0
 10
151.466
 11
151.256
 20
181.028
 21
180.968
  0
LINE
  8
0
 10
151.256
 11
151.043
 20
180.968
 21
180.922
  0
LINE
  8
0
 10
151.043
 11
150.827
 20
180.922
 21
180.892
  0
LINE
  8
0
 10
150.827
 11
150.609
 20
180.892
 21
180.877
  0
LINE
  8
0
 10
150.609
 11
150.391
 20
180.877
 21
180.877
  0
LINE
  8
0
 10
150.391
 11
150.173
 20
180.877
 21
180.892
  0
LINE
  8
0
 10
150.173
 11
149.957
 20
180.892
 21
180.922
  0
LINE
  8
0
 10
149.957
 11
149.744
 20
180.922
 21
180.968
  0
LINE
  8
0
 10
149.744
 11
149.534
 20
180.968
 21
181.028
  0
LINE
  8
0
 10
149.534
 11
149.329
 20
181.028
 21
181.103
  0
LINE
  8
0
 10
149.329
 11
149.13
 20
181.103
 21
181.191
  0
LINE
  8
0
 10
149.13
 11
148.938
 20
181.191
 21
181.294
  0
LINE
  8
0
 10
148.938
 11
148.753
 20
181.294
 21
181.409
  0
LINE
  8
0
 10
148.753
 11
148.576
 20
181.409
 21
181.537
  0
LINE
  8
0
 10
148.576
 11
148.409
 20
181.537
 21
181.678
  0
LINE
  8
0
 10
148.409
 11
148.252
 20
181.678
 21
181.829
  0
LINE
  8
0
 10
148.252
 11
148.106
 20
181.829
 21
181.991
  0
LINE
  8
0
 10
148.106
 11
147.972
 20
181.991
 21
182.163
  0
LINE
  8
0
 10
147.972
 11
147.85
 20
182.163
 21
182.344
  0
LINE
  8
0
 10
147.85
 11
147.741
 20
182.344
 21
182.533
  0
LINE
  8
0
 10
147.741
 11
147.645
 20
182.533
 21
182.729
  0
LINE
  8
0
 10
147.645
 11
147.563
 20
182.729
 21
182.931
  0
LINE
  8
0
 10
147.563
 11
147.496
 20
182.931
 21
183.139
  0
LINE
  8
0
 10
147.496
 11
147.443
 20
183.139
 21
183.35
  0
LINE
  8
0
 10
147.443
 11
147.405
 20
183.35
 21
183.565
  0
LINE
  8
0
 10
147.405
 11
147.383
 20
183.565
 21
183.782
  0
LINE
  8
0
 10
147.383
 11
147.375
 20
183.782
 21
184
  0
LINE
  8
0
 10
147.375
 11
147.383
 20
234
 21
234.218
  0
LINE
  8
0
 10
147.383
 11
147.405
 20
234.218
 21
234.435
  0
LINE
  8
0
 10
147.405
 11
147.443
 20
234.435
 21
234.65
  0
LINE
  8
0
 10
147.443
 11
147.496
 20
234.65
 21
234.861
  0
LINE
  8
0
 10
147.496
 11
147.563
 20
234.861
 21
235.069
  0
LINE
  8
0
 10
147.563
 11
147.645
 20
235.069
 21
235.271
  0
LINE
  8
0
 10
147.645
 11
147.741
 20
235.271
 21
235.467
  0
LINE
  8
0
 10
147.741
 11
147.85
 20
235.467
 21
235.656
  0
LINE
  8
0
 10
147.85
 11
147.972
 20
235.656
 21
235.837
  0
LINE
  8
0
 10
147.972
 11
148.106
 20
235.837
 21
236.009
  0
LINE
  8
0
 10
148.106
 11
148.252
 20
236.009
 21
236.171
  0
LINE
  8
0
 10
148.252
 11
148.409
 20
236.171
 21
236.322
  0
LINE
  8
0
 10
148.409
 11
148.576
 20
236.322
 21
236.463
  0
LINE
  8
0
 10
148.576
 11
148.753
 20
236.463
 21
236.591
  0
LINE
  8
0
 10
148.753
 11
148.938
 20
236.591
 21
236.706
  0
LINE
  8
0
 10
148.938
 11
149.13
 20
236.706
 21
236.809
  0
LINE
  8
0
 10
149.13
 11
149.329
 20
236.809
 21
236.897
  0
LINE
  8
0
 10
149.329
 11
149.534
 20
236.897
 21
236.972
  0
LINE
  8
0
 10
149.534
 11
149.744
 20
236.972
 21
237.032
  0
LINE
  8
0
 10
149.744
 11
149.957
 20
237.032
 21
237.078
  0
LINE
  8
0
 10
149.957
 11
150.173
 20
237.078
 21
237.108
  0
LINE
  8
0
 10
150.173
 11
150.391
 20
237.108
 21
237.123
  0
LINE
  8
0
 10
150.391
 11
150.609
 20
237.123
 21
237.123
  0
LINE
  8
0
 10
150.609
 11
150.827
 20
237.123
 21
237.108
  0
LINE
  8
0
 10
150.827
 11
151.043
 20
237.108
 21
237.078
  0
LINE
  8
0
 10
151.043
 11
151.256
 20
237.078
 21
237.032
  0
LINE
  8
0
 10
151.256
 11
151.466
 20
237.032
 21
236.972
  0
LINE
  8
0
 10
151.466
 11
151.671
 20
236.972
 21
236.897
  0
LINE
  8
0
 10
151.671
 11
151.87
 20
236.897
 21
236.809
  0
LINE
  8
0
 10
151.87
 11
152.063
 20
236.809
 21
236.706
  0
LINE
  8
0
 10
152.063
 11
152.247
 20
236.706
 21
236.591
  0
LINE
  8
0
 10
152.247
 11
152.424
 20
236.591
 21
236.463
  0
LINE
  8
0
 10
152.424
 11
152.591
 20
236.463
 21
236.322
  0
LINE
  8
0
 10
152.591
 11
152.748
 20
236.322
 21
236.171
  0
LINE
  8
0
 10
152.748
 11
152.894
 20
236.171
 21
236.009
  0
LINE
  8
0
 10
152.894
 11
153.028
 20
236.009
 21
235.837
  0
LINE
  8
0
 10
153.028
 11
153.15
 20
235.837
 21
235.656
  0
LINE
  8
0
 10
153.15
 11
153.259
 20
235.656
 21
235.467
  0
LINE
  8
0
 10
153.259
 11
153.355
 20
235.467
 21
235.271
  0
LINE
  8
0
 10
153.355
 11
153.437
 20
235.271
 21
235.069
  0
LINE
  8
0
 10
153.437
 11
153.504
 20
235.069
 21
234.861
  0
LINE
  8
0
 10
153.504
 11
153.557
 20
234.861
 21
234.65
  0
LINE
  8
0
 10
153.557
 11
153.595
 20
234.65
 21
234.435
  0
LINE
  8
0
 10
153.595
 11
153.617
 20
234.435
 21
234.218
  0
LINE
  8
0
 10
153.617
 11
153.625
 20
234.218
 21
234
  0
LINE
  8
0
 10
153.625
 11
153.617
 20
234
 21
233.782
  0
LINE
  8
0
 10
153.617
 11
153.595
 20
233.782
 21
233.565
  0
LINE
  8
0
 10
153.595
 11
153.557
 20
233.565
 21
233.35
  0
LINE
  8
0
 10
153.557
 11
153.504
 20
233.35
 21
233.139
  0
LINE
  8
0
 10
153.504
 11
153.437
 20
233.139
 21
232.931
  0
LINE
  8
0
 10
153.437
 11
153.355
 20
232.931
 21
232.729
  0
LINE
  8
0
 10
153.355
 11
153.259
 20
232.729
 21
232.533
  0
LINE
  8
0
 10
153.259
 11
153.15
 20
232.533
 21
232.344
  0
LINE
  8
0
 10
153.15
 11
153.028
 20
232.344
 21
232.163
  0
LINE
  8
0
 10
153.028
 11
152.894
 20
232.163
 21
231.991
  0
LINE
  8
0
 10
152.894
 11
152.748
 20
231.991
 21
231.829
  0
LINE
  8
0
 10
152.748
 11
152.591
 20
231.829
 21
231.678
  0
LINE
  8
0
 10
152.591
 11
152.424
 20
231.678
 21
231.537
  0
LINE
  8
0
 10
152.424
 11
152.247
 20
231.537
 21
231.409
  0
LINE
  8
0
 10
152.247
 11
152.063
 20
231.409
 21
231.294
  0
LINE
  8
0
 10
152.063
 11
151.87
 20
231.294
 21
231.191
  0
LINE
  8
0
 10
151.87
 11
151.671
 20
231.191
 21
231.103
  0
LINE
  8
0
 10
151.671
 11
151.466
 20
231.103
 21
231.028
  0
LINE
  8
0
 10
151.466
 11
151.256
 20
231.028
 21
230.968
  0
LINE
  8
0
 10
151.256
 11
151.043
 20
230.968
 21
230.922
  0
LINE
  8
0
 10
151.043
 11
150.827
 20
230.922
 21
230.892
  0
LINE
  8
0
 10
150.827
 11
150.609
 20
230.892
 21
230.877
  0
LINE
  8
0
 10
150.609
 11
150.391
 20
230.877
 21
230.877
  0
LINE
  8
0
 10
150.391
 11
150.173
 20
230.877
 21
230.892
  0
LINE
  8
0
 10
150.173
 11
149.957
 20
230.892
 21
230.922
  0
LINE
  8
0
 10
149.957
 11
149.744
 20
230.922
 21
230.968
  0
LINE
  8
0
 10
149.744
 11
149.534
 20
230.968
 21
231.028
  0
LINE
  8
0
 10
149.534
 11
149.329
 20
231.028
 21
231.103
  0
LINE
  8
0
 10
149.329
 11
149.13
 20
231.103
 21
231.191
  0
LINE
  8
0
 10
149.13
 11
148.938
 20
231.191
 21
231.294
  0
LINE
  8
0
 10
148.938
 11
148.753
 20
231.294
 21
231.409
  0
LINE
  8
0
 10
148.753
 11
148.576
 20
231.409
 21
231.537
  0
LINE
  8
0
 10
148.576
 11
148.409
 20
231.537
 21
231.678
  0
LINE
  8
0
 10
148.409
 11
148.252
 20
231.678
 21
231.829
  0
LINE
  8
0
 10
148.252
 11
148.106
 20
231.829
 21
231.991
  0
LINE
  8
0
 10
148.106
 11
147.972
 20
231.991
 21
232.163
  0
LINE
  8
0
 10
147.972
 11
147.85
 20
232.163
 21
232.344
  0
LINE
  8
0
 10
147.85
 11
147.741
 20
232.344
 21
232.533
  0
LINE
  8
0
 10
147.741
 11
147.645
 20
232.533
 21
232.729
  0
LINE
  8
0
 10
147.645
 11
147.563
 20
232.729
 21
232.931
  0
LINE
  8
0
 10
147.563
 11
147.496
 20
232.931
 21
233.139
  0
LINE
  8
0
 10
147.496
 11
147.443
 20
233.139
 21
233.35
  0
LINE
  8
0
 10
147.443
 11
147.405
 20
233.35
 21
233.565
  0
LINE
  8
0
 10
147.405
 11
147.383
 20
233.565
 21
233.782
  0
LINE
  8
0
 10
147.383
 11
147.375
 20
233.782
 21
234
  0
LINE
  8
0
 10
148.9
 11
148.904
 20
104
 21
104.112
  0
LINE
  8
0
 10
148.904
 11
148.916
 20
104.112
 21
104.223
  0
LINE
  8
0
 10
148.916
 11
148.935
 20
104.223
 21
104.333
  0
LINE
  8
0
 10
148.935
 11
148.962
 20
104.333
 21
104.441
  0
LINE
  8
0
 10
148.962
 11
148.996
 20
104.441
 21
104.547
  0
LINE
  8
0
 10
148.996
 11
149.038
 20
104.547
 21
104.651
  0
LINE
  8
0
 10
149.038
 11
149.087
 20
104.651
 21
104.751
  0
LINE
  8
0
 10
149.087
 11
149.143
 20
104.751
 21
104.848
  0
LINE
  8
0
 10
149.143
 11
149.206
 20
104.848
 21
104.94
  0
LINE
  8
0
 10
149.206
 11
149.274
 20
104.94
 21
105.028
  0
LINE
  8
0
 10
149.274
 11
149.349
 20
105.028
 21
105.111
  0
LINE
  8
0
 10
149.349
 11
149.429
 20
105.111
 21
105.189
  0
LINE
  8
0
 10
149.429
 11
149.515
 20
105.189
 21
105.261
  0
LINE
  8
0
 10
149.515
 11
149.605
 20
105.261
 21
105.326
  0
LINE
  8
0
 10
149.605
 11
149.7
 20
105.326
 21
105.386
  0
LINE
  8
0
 10
149.7
 11
149.799
 20
105.386
 21
105.438
  0
LINE
  8
0
 10
149.799
 11
149.901
 20
105.438
 21
105.483
  0
LINE
  8
0
 10
149.901
 11
150.006
 20
105.483
 21
105.522
  0
LINE
  8
0
 10
150.006
 11
150.113
 20
105.522
 21
105.552
  0
LINE
  8
0
 10
150.113
 11
150.222
 20
105.552
 21
105.576
  0
LINE
  8
0
 10
150.222
 11
150.333
 20
105.576
 21
105.591
  0
LINE
  8
0
 10
150.333
 11
150.444
 20
105.591
 21
105.599
  0
LINE
  8
0
 10
150.444
 11
150.556
 20
105.599
 21
105.599
  0
LINE
  8
0
 10
150.556
 11
150.667
 20
105.599
 21
105.591
  0
LINE
  8
0
 10
150.667
 11
150.778
 20
105.591
 21
105.576
  0
LINE
  8
0
 10
150.778
 11
150.887
 20
105.576
 21
105.552
  0
LINE
  8
0
 10
150.887
 11
150.994
 20
105.552
 21
105.522
  0
LINE
  8
0
 10
150.994
 11
151.099
 20
105.522
 21
105.483
  0
LINE
  8
0
 10
151.099
 11
151.201
 20
105.483
 21
105.438
  0
LINE
  8
0
 10
151.201
 11
151.3
 20
105.438
 21
105.386
  0
LINE
  8
0
 10
151.3
 11
151.395
 20
105.386
 21
105.326
  0
LINE
  8
0
 10
151.395
 11
151.485
 20
105.326
 21
105.261
  0
LINE
  8
0
 10
151.485
 11
151.571
 20
105.261
 21
105.189
  0
LINE
  8
0
 10
151.571
 11
151.651
 20
105.189
 21
105.111
  0
LINE
  8
0
 10
151.651
 11
151.726
 20
105.111
 21
105.028
  0
LINE
  8
0
 10
151.726
 11
151.794
 20
105.028
 21
104.94
  0
LINE
  8
0
 10
151.794
 11
151.857
 20
104.94
 21
104.848
  0
LINE
  8
0
 10
151.857
 11
151.913
 20
104.848
 21
104.751
  0
LINE
  8
0
 10
151.913
 11
151.962
 20
104.751
 21
104.651
  0
LINE
  8
0
 10
151.962
 11
152.004
 20
104.651
 21
104.547
  0
LINE
  8
0
 10
152.004
 11
152.038
 20
104.547
 21
104.441
  0
LINE
  8
0
 10
152.038
 11
152.065
 20
104.441
 21
104.333
  0
LINE
  8
0
 10
152.065
 11
152.084
 20
104.333
 21
104.223
  0
LINE
  8
0
 10
152.084
 11
152.096
 20
104.223
 21
104.112
  0
LINE
  8
0
 10
152.096
 11
152.1
 20
104.112
 21
104
  0
LINE
  8
0
 10
152.1
 11
152.096
 20
104
 21
103.888
  0
LINE
  8
0
 10
152.096
 11
152.084
 20
103.888
 21
103.777
  0
LINE
  8
0
 10
152.084
 11
152.065
 20
103.777
 21
103.667
  0
LINE
  8
0
 10
152.065
 11
152.038
 20
103.667
 21
103.559
  0
LINE
  8
0
 10
152.038
 11
152.004
 20
103.559
 21
103.453
  0
LINE
  8
0
 10
152.004
 11
151.962
 20
103.453
 21
103.349
  0
LINE
  8
0
 10
151.962
 11
151.913
 20
103.349
 21
103.249
  0
LINE
  8
0
 10
151.913
 11
151.857
 20
103.249
 21
103.152
  0
LINE
  8
0
 10
151.857
 11
151.794
 20
103.152
 21
103.06
  0
LINE
  8
0
 10
151.794
 11
151.726
 20
103.06
 21
102.972
  0
LINE
  8
0
 10
151.726
 11
151.651
 20
102.972
 21
102.889
  0
LINE
  8
0
 10
151.651
 11
151.571
 20
102.889
 21
102.811
  0
LINE
  8
0
 10
151.571
 11
151.485
 20
102.811
 21
102.739
  0
LINE
  8
0
 10
151.485
 11
151.395
 20
102.739
 21
102.674
  0
LINE
  8
0
 10
151.395
 11
151.3
 20
102.674
 21
102.614
  0
LINE
  8
0
 10
151.3
 11
151.201
 20
102.614
 21
102.562
  0
LINE
  8
0
 10
151.201
 11
151.099
 20
102.562
 21
102.517
  0
LINE
  8
0
 10
151.099
 11
150.994
 20
102.517
 21
102.478
  0
LINE
  8
0
 10
150.994
 11
150.887
 20
102.478
 21
102.448
  0
LINE
  8
0
 10
150.887
 11
150.778
 20
102.448
 21
102.424
  0
LINE
  8
0
 10
150.778
 11
150.667
 20
102.424
 21
102.409
  0
LINE
  8
0
 10
150.667
 11
150.556
 20
102.409
 21
102.401
  0
LINE
  8
0
 10
150.556
 11
150.444
 20
102.401
 21
102.401
  0
LINE
  8
0
 10
150.444
 11
150.333
 20
102.401
 21
102.409
  0
LINE
  8
0
 10
150.333
 11
150.222
 20
102.409
 21
102.424
  0
LINE
  8
0
 10
150.222
 11
150.113
 20
102.424
 21
102.448
  0
LINE
  8
0
 10
150.113
 11
150.006
 20
102.448
 21
102.478
  0
LINE
  8
0
 10
150.006
 11
149.901
 20
102.478
 21
102.517
  0
LINE
  8
0
 10
149.901
 11
149.799
 20
102.517
 21
102.562
  0
LINE
  8
0
 10
149.799
 11
149.7
 20
102.562
 21
102.614
  0
LINE
  8
0
 10
149.7
 11
149.605
 20
102.614
 21
102.674
  0
LINE
  8
0
 10
149.605
 11
149.515
 20
102.674
 21
102.739
  0
LINE
  8
0
 10
149.515
 11
149.429
 20
102.739
 21
102.811
  0
LINE
  8
0
 10
149.429
 11
149.349
 20
102.811
 21
102.889
  0
LINE
  8
0
 10
149.349
 11
149.274
 20
102.889
 21
102.972
  0
LINE
  8
0
 10
149.274
 11
149.206
 20
102.972
 21
103.06
  0
LINE
  8
0
 10
149.206
 11
149.143
 20
103.06
 21
103.152
  0
LINE
  8
0
 10
149.143
 11
149.087
 20
103.152
 21
103.249
  0
LINE
  8
0
 10
149.087
 11
149.038
 20
103.249
 21
103.349
  0
LINE
  8
0
 10
149.038
 11
148.996
 20
103.349
 21
103.453
  0
LINE
  8
0
 10
148.996
 11
148.962
 20
103.453
 21
103.559
  0
LINE
  8
0
 10
148.962
 11
148.935
 20
103.559
 21
103.667
  0
LINE
  8
0
 10
148.935
 11
148.916
 20
103.667
 21
103.777
  0
LINE
  8
0
 10
148.916
 11
148.904
 20
103.777
 21
103.888
  0
LINE
  8
0
 10
148.904
 11
148.9
 20
103.888
 21
104
  0
LINE
  8
0
 10
148.9
 11
148.904
 20
154
 21
154.112
  0
LINE
  8
0
 10
148.904
 11
148.916
 20
154.112
 21
154.223
  0
LINE
  8
0
 10
148.916
 11
148.935
 20
154.223
 21
154.333
  0
LINE
  8
0
 10
148.935
 11
148.962
 20
154.333
 21
154.441
  0
LINE
  8
0
 10
148.962
 11
148.996
 20
154.441
 21
154.547
  0
LINE
  8
0
 10
148.996
 11
149.038
 20
154.547
 21
154.651
  0
LINE
  8
0
 10
149.038
 11
149.087
 20
154.651
 21
154.751
  0
LINE
  8
0
 10
149.087
 11
149.143
 20
154.751
 21
154.848
  0
LINE
  8
0
 10
149.143
 11
149.206
 20
154.848
 21
154.94
  0
LINE
  8
0
 10
149.206
 11
149.274
 20
154.94
 21
155.028
  0
LINE
  8
0
 10
149.274
 11
149.349
 20
155.028
 21
155.111
  0
LINE
  8
0
 10
149.349
 11
149.429
 20
155.111
 21
155.189
  0
LINE
  8
0
 10
149.429
 11
149.515
 20
155.189
 21
155.261
  0
LINE
  8
0
 10
149.515
 11
149.605
 20
155.261
 21
155.326
  0
LINE
  8
0
 10
149.605
 11
149.7
 20
155.326
 21
155.386
  0
LINE
  8
0
 10
149.7
 11
149.799
 20
155.386
 21
155.438
  0
LINE
  8
0
 10
149.799
 11
149.901
 20
155.438
 21
155.483
  0
LINE
  8
0
 10
149.901
 11
150.006
 20
155.483
 21
155.522
  0
LINE
  8
0
 10
150.006
 11
150.113
 20
155.522
 21
155.552
  0
LINE
  8
0
 10
150.113
 11
150.222
 20
155.552
 21
155.576
  0
LINE
  8
0
 10
150.222
 11
150.333
 20
155.576
 21
155.591
  0
LINE
  8
0
 10
150.333
 11
150.444
 20
155.591
 21
155.599
  0
LINE
  8
0
 10
150.444
 11
150.556
 20
155.599
 21
155.599
  0
LINE
  8
0
 10
150.556
 11
150.667
 20
155.599
 21
155.591
  0
LINE
  8
0
 10
150.667
 11
150.778
 20
155.591
 21
155.576
  0
LINE
  8
0
 10
150.778
 11
150.887
 20
155.576
 21
155.552
  0
LINE
  8
0
 10
150.887
 11
150.994
 20
155.552
 21
155.522
  0
LINE
  8
0
 10
150.994
 11
151.099
 20
155.522
 21
155.483
  0
LINE
  8
0
 10
151.099
 11
151.201
 20
155.483
 21
155.438
  0
LINE
  8
0
 10
151.201
 11
151.3
 20
155.438
 21
155.386
  0
LINE
  8
0
 10
151.3
 11
151.395
 20
155.386
 21
155.326
  0
LINE
  8
0
 10
151.395
 11
151.485
 20
155.326
 21
155.261
  0
LINE
  8
0
 10
151.485
 11
151.571
 20
155.261
 21
155.189
  0
LINE
  8
0
 10
151.571
 11
151.651
 20
155.189
 21
155.111
  0
LINE
  8
0
 10
151.651
 11
151.726
 20
155.111
 21
155.028
  0
LINE
  8
0
 10
151.726
 11
151.794
 20
155.028
 21
154.94
  0
LINE
  8
0
 10
151.794
 11
151.857
 20
154.94
 21
154.848
  0
LINE
  8
0
 10
151.857
 11
151.913
 20
154.848
 21
154.751
  0
LINE
  8
0
 10
151.913
 11
151.962
 20
154.751
 21
154.651
  0
LINE
  8
0
 10
151.962
 11
152.004
 20
154.651
 21
154.547
  0
LINE
  8
0
 10
152.004
 11
152.038
 20
154.547
 21
154.441
  0
LINE
  8
0
 10
152.038
 11
152.065
 20
154.441
 21
154.333
  0
LINE
  8
0
 10
152.065
 11
152.084
 20
154.333
 21
154.223
  0
LINE
  8
0
 10
152.084
 11
152.096
 20
154.223
 21
154.112
  0
LINE
  8
0
 10
152.096
 11
152.1
 20
154.112
 21
154
  0
LINE
  8
0
 10
152.1
 11
152.096
 20
154
 21
153.888
  0
LINE
  8
0
 10
152.096
 11
152.084
 20
153.888
 21
153.777
  0
LINE
  8
0
 10
152.084
 11
152.065
 20
153.777
 21
153.667
  0
LINE
  8
0
 10
152.065
 11
152.038
 20
153.667
 21
153.559
  0
LINE
  8
0
 10
152.038
 11
152.004
 20
153.559
 21
153.453
  0
LINE
  8
0
 10
152.004
 11
151.962
 20
153.453
 21
153.349
  0
LINE
  8
0
 10
151.962
 11
151.913
 20
153.349
 21
153.249
  0
LINE
  8
0
 10
151.913
 11
151.857
 20
153.249
 21
153.152
  0
LINE
  8
0
 10
151.857
 11
151.794
 20
153.152
 21
153.06
  0
LINE
  8
0
 10
151.794
 11
151.726
 20
153.06
 21
152.972
  0
LINE
  8
0
 10
151.726
 11
151.651
 20
152.972
 21
152.889
  0
LINE
  8
0
 10
151.651
 11
151.571
 20
152.889
 21
152.811
  0
LINE
  8
0
 10
151.571
 11
151.485
 20
152.811
 21
152.739
  0
LINE
  8
0
 10
151.485
 11
151.395
 20
152.739
 21
152.674
  0
LINE
  8
0
 10
151.395
 11
151.3
 20
152.674
 21
152.614
  0
LINE
  8
0
 10
151.3
 11
151.201
 20
152.614
 21
152.562
  0
LINE
  8
0
 10
151.201
 11
151.099
 20
152.562
 21
152.517
  0
LINE
  8
0
 10
151.099
 11
150.994
 20
152.517
 21
152.478
  0
LINE
  8
0
 10
150.994
 11
150.887
 20
152.478
 21
152.448
  0
LINE
  8
0
 10
150.887
 11
150.778
 20
152.448
 21
152.424
  0
LINE
  8
0
 10
150.778
 11
150.667
 20
152.424
 21
152.409
  0
LINE
  8
0
 10
150.667
 11
150.556
 20
152.409
 21
152.401
  0
LINE
  8
0
 10
150.556
 11
150.444
 20
152.401
 21
152.401
  0
LINE
  8
0
 10
150.444
 11
150.333
 20
152.401
 21
152.409
  0
LINE
  8
0
 10
150.333
 11
150.222
 20
152.409
 21
152.424
  0
LINE
  8
0
 10
150.222
 11
150.113
 20
152.424
 21
152.448
  0
LINE
  8
0
 10
150.113
 11
150.006
 20
152.448
 21
152.478
  0
LINE
  8
0
 10
150.006
 11
149.901
 20
152.478
 21
152.517
  0
LINE
  8
0
 10
149.901
 11
149.799
 20
152.517
 21
152.562
  0
LINE
  8
0
 10
149.799
 11
149.7
 20
152.562
 21
152.614
  0
LINE
  8
0
 10
149.7
 11
149.605
 20
152.614
 21
152.674
  0
LINE
  8
0
 10
149.605
 11
149.515
 20
152.674
 21
152.739
  0
LINE
  8
0
 10
149.515
 11
149.429
 20
152.739
 21
152.811
  0
LINE
  8
0
 10
149.429
 11
149.349
 20
152.811
 21
152.889
  0
LINE
  8
0
 10
149.349
 11
149.274
 20
152.889
 21
152.972
  0
LINE
  8
0
 10
149.274
 11
149.206
 20
152.972
 21
153.06
  0
LINE
  8
0
 10
149.206
 11
149.143
 20
153.06
 21
153.152
  0
LINE
  8
0
 10
149.143
 11
149.087
 20
153.152
 21
153.249
  0
LINE
  8
0
 10
149.087
 11
149.038
 20
153.249
 21
153.349
  0
LINE
  8
0
 10
149.038
 11
148.996
 20
153.349
 21
153.453
  0
LINE
  8
0
 10
148.996
 11
148.962
 20
153.453
 21
153.559
  0
LINE
  8
0
 10
148.962
 11
148.935
 20
153.559
 21
153.667
  0
LINE
  8
0
 10
148.935
 11
148.916
 20
153.667
 21
153.777
  0
LINE
  8
0
 10
148.916
 11
148.904
 20
153.777
 21
153.888
  0
LINE
  8
0
 10
148.904
 11
148.9
 20
153.888
 21
154
  0
LINE
  8
0
 10
157.375
 11
158.938
 20
97
 21
99.706
  0
LINE
  8
0
 10
158.938
 11
162.063
 20
99.706
 21
99.706
  0
LINE
  8
0
 10
162.063
 11
163.625
 20
99.706
 21
97
  0
LINE
  8
0
 10
163.625
 11
162.063
 20
97
 21
94.294
  0
LINE
  8
0
 10
162.063
 11
158.938
 20
94.294
 21
94.294
  0
LINE
  8
0
 10
158.938
 11
157.375
 20
94.294
 21
97
  0
LINE
  8
0
 10
157.375
 11
158.938
 20
161
 21
163.706
  0
LINE
  8
0
 10
158.938
 11
162.063
 20
163.706
 21
163.706
  0
LINE
  8
0
 10
162.063
 11
163.625
 20
163.706
 21
161
  0
LINE
  8
0
 10
163.625
 11
162.063
 20
161
 21
158.294
  0
LINE
  8
0
 10
162.063
 11
158.938
 20
158.294
 21
158.294
  0
LINE
  8
0
 10
158.938
 11
157.375
 20
158.294
 21
161
  0
LINE
  8
0
 10
158.9
 11
158.904
 20
14
 21
14.112
  0
LINE
  8
0
 10
158.904
 11
158.916
 20
14.112
 21
14.223
  0
LINE
  8
0
 10
158.916
 11
158.935
 20
14.223
 21
14.333
  0
LINE
  8
0
 10
158.935
 11
158.962
 20
14.333
 21
14.441
  0
LINE
  8
0
 10
158.962
 11
158.996
 20
14.441
 21
14.547
  0
LINE
  8
0
 10
158.996
 11
159.038
 20
14.547
 21
14.651
  0
LINE
  8
0
 10
159.038
 11
159.087
 20
14.651
 21
14.751
  0
LINE
  8
0
 10
159.087
 11
159.143
 20
14.751
 21
14.848
  0
LINE
  8
0
 10
159.143
 11
159.206
 20
14.848
 21
14.94
  0
LINE
  8
0
 10
159.206
 11
159.274
 20
14.94
 21
15.028
  0
LINE
  8
0
 10
159.274
 11
159.349
 20
15.028
 21
15.111
  0
LINE
  8
0
 10
159.349
 11
159.429
 20
15.111
 21
15.189
  0
LINE
  8
0
 10
159.429
 11
159.515
 20
15.189
 21
15.261
  0
LINE
  8
0
 10
159.515
 11
159.605
 20
15.261
 21
15.326
  0
LINE
  8
0
 10
159.605
 11
159.7
 20
15.326
 21
15.386
  0
LINE
  8
0
 10
159.7
 11
159.799
 20
15.386
 21
15.438
  0
LINE
  8
0
 10
159.799
 11
159.901
 20
15.438
 21
15.483
  0
LINE
  8
0
 10
159.901
 11
160.006
 20
15.483
 21
15.522
  0
LINE
  8
0
 10
160.006
 11
160.113
 20
15.522
 21
15.552
  0
LINE
  8
0
 10
160.113
 11
160.222
 20
15.552
 21
15.576
  0
LINE
  8
0
 10
160.222
 11
160.333
 20
15.576
 21
15.591
  0
LINE
  8
0
 10
160.333
 11
160.444
 20
15.591
 21
15.599
  0
LINE
  8
0
 10
160.444
 11
160.556
 20
15.599
 21
15.599
  0
LINE
  8
0
 10
160.556
 11
160.667
 20
15.599
 21
15.591
  0
LINE
  8
0
 10
160.667
 11
160.778
 20
15.591
 21
15.576
  0
LINE
  8
0
 10
160.778
 11
160.887
 20
15.576
 21
15.552
  0
LINE
  8
0
 10
160.887
 11
160.994
 20
15.552
 21
15.522
  0
LINE
  8
0
 10
160.994
 11
161.099
 20
15.522
 21
15.483
  0
LINE
  8
0
 10
161.099
 11
161.201
 20
15.483
 21
15.438
  0
LINE
  8
0
 10
161.201
 11
161.3
 20
15.438
 21
15.386
  0
LINE
  8
0
 10
161.3
 11
161.395
 20
15.386
 21
15.326
  0
LINE
  8
0
 10
161.395
 11
161.485
 20
15.326
 21
15.261
  0
LINE
  8
0
 10
161.485
 11
161.571
 20
15.261
 21
15.189
  0
LINE
  8
0
 10
161.571
 11
161.651
 20
15.189
 21
15.111
  0
LINE
  8
0
 10
161.651
 11
161.726
 20
15.111
 21
15.028
  0
LINE
  8
0
 10
161.726
 11
161.794
 20
15.028
 21
14.94
  0
LINE
  8
0
 10
161.794
 11
161.857
 20
14.94
 21
14.848
  0
LINE
  8
0
 10
161.857
 11
161.913
 20
14.848
 21
14.751
  0
LINE
  8
0
 10
161.913
 11
161.962
 20
14.751
 21
14.651
  0
LINE
  8
0
 10
161.962
 11
162.004
 20
14.651
 21
14.547
  0
LINE
  8
0
 10
162.004
 11
162.038
 20
14.547
 21
14.441
  0
LINE
  8
0
 10
162.038
 11
162.065
 20
14.441
 21
14.333
  0
LINE
  8
0
 10
162.065
 11
162.084
 20
14.333
 21
14.223
  0
LINE
  8
0
 10
162.084
 11
162.096
 20
14.223
 21
14.112
  0
LINE
  8
0
 10
162.096
 11
162.1
 20
14.112
 21
14
  0
LINE
  8
0
 10
162.1
 11
162.096
 20
14
 21
13.888
  0
LINE
  8
0
 10
162.096
 11
162.084
 20
13.888
 21
13.777
  0
LINE
  8
0
 10
162.084
 11
162.065
 20
13.777
 21
13.667
  0
LINE
  8
0
 10
162.065
 11
162.038
 20
13.667
 21
13.559
  0
LINE
  8
0
 10
162.038
 11
162.004
 20
13.559
 21
13.453
  0
LINE
  8
0
 10
162.004
 11
161.962
 20
13.453
 21
13.349
  0
LINE
  8
0
 10
161.962
 11
161.913
 20
13.349
 21
13.249
  0
LINE
  8
0
 10
161.913
 11
161.857
 20
13.249
 21
13.152
  0
LINE
  8
0
 10
161.857
 11
161.794
 20
13.152
 21
13.06
  0
LINE
  8
0
 10
161.794
 11
161.726
 20
13.06
 21
12.972
  0
LINE
  8
0
 10
161.726
 11
161.651
 20
12.972
 21
12.889
  0
LINE
  8
0
 10
161.651
 11
161.571
 20
12.889
 21
12.811
  0
LINE
  8
0
 10
161.571
 11
161.485
 20
12.811
 21
12.739
  0
LINE
  8
0
 10
161.485
 11
161.395
 20
12.739
 21
12.674
  0
LINE
  8
0
 10
161.395
 11
161.3
 20
12.674
 21
12.614
  0
LINE
  8
0
 10
161.3
 11
161.201
 20
12.614
 21
12.562
  0
LINE
  8
0
 10
161.201
 11
161.099
 20
12.562
 21
12.517
  0
LINE
  8
0
 10
161.099
 11
160.994
 20
12.517
 21
12.478
  0
LINE
  8
0
 10
160.994
 11
160.887
 20
12.478
 21
12.448
  0
LINE
  8
0
 10
160.887
 11
160.778
 20
12.448
 21
12.424
  0
LINE
  8
0
 10
160.778
 11
160.667
 20
12.424
 21
12.409
  0
LINE
  8
0
 10
160.667
 11
160.556
 20
12.409
 21
12.401
  0
LINE
  8
0
 10
160.556
 11
160.444
 20
12.401
 21
12.401
  0
LINE
  8
0
 10
160.444
 11
160.333
 20
12.401
 21
12.409
  0
LINE
  8
0
 10
160.333
 11
160.222
 20
12.409
 21
12.424
  0
LINE
  8
0
 10
160.222
 11
160.113
 20
12.424
 21
12.448
  0
LINE
  8
0
 10
160.113
 11
160.006
 20
12.448
 21
12.478
  0
LINE
  8
0
 10
160.006
 11
159.901
 20
12.478
 21
12.517
  0
LINE
  8
0
 10
159.901
 11
159.799
 20
12.517
 21
12.562
  0
LINE
  8
0
 10
159.799
 11
159.7
 20
12.562
 21
12.614
  0
LINE
  8
0
 10
159.7
 11
159.605
 20
12.614
 21
12.674
  0
LINE
  8
0
 10
159.605
 11
159.515
 20
12.674
 21
12.739
  0
LINE
  8
0
 10
159.515
 11
159.429
 20
12.739
 21
12.811
  0
LINE
  8
0
 10
159.429
 11
159.349
 20
12.811
 21
12.889
  0
LINE
  8
0
 10
159.349
 11
159.274
 20
12.889
 21
12.972
  0
LINE
  8
0
 10
159.274
 11
159.206
 20
12.972
 21
13.06
  0
LINE
  8
0
 10
159.206
 11
159.143
 20
13.06
 21
13.152
  0
LINE
  8
0
 10
159.143
 11
159.087
 20
13.152
 21
13.249
  0
LINE
  8
0
 10
159.087
 11
159.038
 20
13.249
 21
13.349
  0
LINE
  8
0
 10
159.038
 11
158.996
 20
13.349
 21
13.453
  0
LINE
  8
0
 10
158.996
 11
158.962
 20
13.453
 21
13.559
  0
LINE
  8
0
 10
158.962
 11
158.935
 20
13.559
 21
13.667
  0
LINE
  8
0
 10
158.935
 11
158.916
 20
13.667
 21
13.777
  0
LINE
  8
0
 10
158.916
 11
158.904
 20
13.777
 21
13.888
  0
LINE
  8
0
 10
158.904
 11
158.9
 20
13.888
 21
14
  0
LINE
  8
0
 10
158.9
 11
158.904
 20
78
 21
78.112
  0
LINE
  8
0
 10
158.904
 11
158.916
 20
78.112
 21
78.223
  0
LINE
  8
0
 10
158.916
 11
158.935
 20
78.223
 21
78.333
  0
LINE
  8
0
 10
158.935
 11
158.962
 20
78.333
 21
78.441
  0
LINE
  8
0
 10
158.962
 11
158.996
 20
78.441
 21
78.547
  0
LINE
  8
0
 10
158.996
 11
159.038
 20
78.547
 21
78.651
  0
LINE
  8
0
 10
159.038
 11
159.087
 20
78.651
 21
78.751
  0
LINE
  8
0
 10
159.087
 11
159.143
 20
78.751
 21
78.848
  0
LINE
  8
0
 10
159.143
 11
159.206
 20
78.848
 21
78.94
  0
LINE
  8
0
 10
159.206
 11
159.274
 20
78.94
 21
79.028
  0
LINE
  8
0
 10
159.274
 11
159.349
 20
79.028
 21
79.111
  0
LINE
  8
0
 10
159.349
 11
159.429
 20
79.111
 21
79.189
  0
LINE
  8
0
 10
159.429
 11
159.515
 20
79.189
 21
79.261
  0
LINE
  8
0
 10
159.515
 11
159.605
 20
79.261
 21
79.326
  0
LINE
  8
0
 10
159.605
 11
159.7
 20
79.326
 21
79.386
  0
LINE
  8
0
 10
159.7
 11
159.799
 20
79.386
 21
79.438
  0
LINE
  8
0
 10
159.799
 11
159.901
 20
79.438
 21
79.483
  0
LINE
  8
0
 10
159.901
 11
160.006
 20
79.483
 21
79.522
  0
LINE
  8
0
 10
160.006
 11
160.113
 20
79.522
 21
79.552
  0
LINE
  8
0
 10
160.113
 11
160.222
 20
79.552
 21
79.576
  0
LINE
  8
0
 10
160.222
 11
160.333
 20
79.576
 21
79.591
  0
LINE
  8
0
 10
160.333
 11
160.444
 20
79.591
 21
79.599
  0
LINE
  8
0
 10
160.444
 11
160.556
 20
79.599
 21
79.599
  0
LINE
  8
0
 10
160.556
 11
160.667
 20
79.599
 21
79.591
  0
LINE
  8
0
 10
160.667
 11
160.778
 20
79.591
 21
79.576
  0
LINE
  8
0
 10
160.778
 11
160.887
 20
79.576
 21
79.552
  0
LINE
  8
0
 10
160.887
 11
160.994
 20
79.552
 21
79.522
  0
LINE
  8
0
 10
160.994
 11
161.099
 20
79.522
 21
79.483
  0
LINE
  8
0
 10
161.099
 11
161.201
 20
79.483
 21
79.438
  0
LINE
  8
0
 10
161.201
 11
161.3
 20
79.438
 21
79.386
  0
LINE
  8
0
 10
161.3
 11
161.395
 20
79.386
 21
79.326
  0
LINE
  8
0
 10
161.395
 11
161.485
 20
79.326
 21
79.261
  0
LINE
  8
0
 10
161.485
 11
161.571
 20
79.261
 21
79.189
  0
LINE
  8
0
 10
161.571
 11
161.651
 20
79.189
 21
79.111
  0
LINE
  8
0
 10
161.651
 11
161.726
 20
79.111
 21
79.028
  0
LINE
  8
0
 10
161.726
 11
161.794
 20
79.028
 21
78.94
  0
LINE
  8
0
 10
161.794
 11
161.857
 20
78.94
 21
78.848
  0
LINE
  8
0
 10
161.857
 11
161.913
 20
78.848
 21
78.751
  0
LINE
  8
0
 10
161.913
 11
161.962
 20
78.751
 21
78.651
  0
LINE
  8
0
 10
161.962
 11
162.004
 20
78.651
 21
78.547
  0
LINE
  8
0
 10
162.004
 11
162.038
 20
78.547
 21
78.441
  0
LINE
  8
0
 10
162.038
 11
162.065
 20
78.441
 21
78.333
  0
LINE
  8
0
 10
162.065
 11
162.084
 20
78.333
 21
78.223
  0
LINE
  8
0
 10
162.084
 11
162.096
 20
78.223
 21
78.112
  0
LINE
  8
0
 10
162.096
 11
162.1
 20
78.112
 21
78
  0
LINE
  8
0
 10
162.1
 11
162.096
 20
78
 21
77.888
  0
LINE
  8
0
 10
162.096
 11
162.084
 20
77.888
 21
77.777
  0
LINE
  8
0
 10
162.084
 11
162.065
 20
77.777
 21
77.667
  0
LINE
  8
0
 10
162.065
 11
162.038
 20
77.667
 21
77.559
  0
LINE
  8
0
 10
162.038
 11
162.004
 20
77.559
 21
77.453
  0
LINE
  8
0
 10
162.004
 11
161.962
 20
77.453
 21
77.349
  0
LINE
  8
0
 10
161.962
 11
161.913
 20
77.349
 21
77.249
  0
LINE
  8
0
 10
161.913
 11
161.857
 20
77.249
 21
77.152
  0
LINE
  8
0
 10
161.857
 11
161.794
 20
77.152
 21
77.06
  0
LINE
  8
0
 10
161.794
 11
161.726
 20
77.06
 21
76.972
  0
LINE
  8
0
 10
161.726
 11
161.651
 20
76.972
 21
76.889
  0
LINE
  8
0
 10
161.651
 11
161.571
 20
76.889
 21
76.811
  0
LINE
  8
0
 10
161.571
 11
161.485
 20
76.811
 21
76.739
  0
LINE
  8
0
 10
161.485
 11
161.395
 20
76.739
 21
76.674
  0
LINE
  8
0
 10
161.395
 11
161.3
 20
76.674
 21
76.614
  0
LINE
  8
0
 10
161.3
 11
161.201
 20
76.614
 21
76.562
  0
LINE
  8
0
 10
161.201
 11
161.099
 20
76.562
 21
76.517
  0
LINE
  8
0
 10
161.099
 11
160.994
 20
76.517
 21
76.478
  0
LINE
  8
0
 10
160.994
 11
160.887
 20
76.478
 21
76.448
  0
LINE
  8
0
 10
160.887
 11
160.778
 20
76.448
 21
76.424
  0
LINE
  8
0
 10
160.778
 11
160.667
 20
76.424
 21
76.409
  0
LINE
  8
0
 10
160.667
 11
160.556
 20
76.409
 21
76.401
  0
LINE
  8
0
 10
160.556
 11
160.444
 20
76.401
 21
76.401
  0
LINE
  8
0
 10
160.444
 11
160.333
 20
76.401
 21
76.409
  0
LINE
  8
0
 10
160.333
 11
160.222
 20
76.409
 21
76.424
  0
LINE
  8
0
 10
160.222
 11
160.113
 20
76.424
 21
76.448
  0
LINE
  8
0
 10
160.113
 11
160.006
 20
76.448
 21
76.478
  0
LINE
  8
0
 10
160.006
 11
159.901
 20
76.478
 21
76.517
  0
LINE
  8
0
 10
159.901
 11
159.799
 20
76.517
 21
76.562
  0
LINE
  8
0
 10
159.799
 11
159.7
 20
76.562
 21
76.614
  0
LINE
  8
0
 10
159.7
 11
159.605
 20
76.614
 21
76.674
  0
LINE
  8
0
 10
159.605
 11
159.515
 20
76.674
 21
76.739
  0
LINE
  8
0
 10
159.515
 11
159.429
 20
76.739
 21
76.811
  0
LINE
  8
0
 10
159.429
 11
159.349
 20
76.811
 21
76.889
  0
LINE
  8
0
 10
159.349
 11
159.274
 20
76.889
 21
76.972
  0
LINE
  8
0
 10
159.274
 11
159.206
 20
76.972
 21
77.06
  0
LINE
  8
0
 10
159.206
 11
159.143
 20
77.06
 21
77.152
  0
LINE
  8
0
 10
159.143
 11
159.087
 20
77.152
 21
77.249
  0
LINE
  8
0
 10
159.087
 11
159.038
 20
77.249
 21
77.349
  0
LINE
  8
0
 10
159.038
 11
158.996
 20
77.349
 21
77.453
  0
LINE
  8
0
 10
158.996
 11
158.962
 20
77.453
 21
77.559
  0
LINE
  8
0
 10
158.962
 11
158.935
 20
77.559
 21
77.667
  0
LINE
  8
0
 10
158.935
 11
158.916
 20
77.667
 21
77.777
  0
LINE
  8
0
 10
158.916
 11
158.904
 20
77.777
 21
77.888
  0
LINE
  8
0
 10
158.904
 11
158.9
 20
77.888
 21
78
  0
LINE
  8
0
 10
158.9
 11
158.904
 20
177
 21
177.112
  0
LINE
  8
0
 10
158.904
 11
158.916
 20
177.112
 21
177.223
  0
LINE
  8
0
 10
158.916
 11
158.935
 20
177.223
 21
177.333
  0
LINE
  8
0
 10
158.935
 11
158.962
 20
177.333
 21
177.441
  0
LINE
  8
0
 10
158.962
 11
158.996
 20
177.441
 21
177.547
  0
LINE
  8
0
 10
158.996
 11
159.038
 20
177.547
 21
177.651
  0
LINE
  8
0
 10
159.038
 11
159.087
 20
177.651
 21
177.751
  0
LINE
  8
0
 10
159.087
 11
159.143
 20
177.751
 21
177.848
  0
LINE
  8
0
 10
159.143
 11
159.206
 20
177.848
 21
177.94
  0
LINE
  8
0
 10
159.206
 11
159.274
 20
177.94
 21
178.028
  0
LINE
  8
0
 10
159.274
 11
159.349
 20
178.028
 21
178.111
  0
LINE
  8
0
 10
159.349
 11
159.429
 20
178.111
 21
178.189
  0
LINE
  8
0
 10
159.429
 11
159.515
 20
178.189
 21
178.261
  0
LINE
  8
0
 10
159.515
 11
159.605
 20
178.261
 21
178.326
  0
LINE
  8
0
 10
159.605
 11
159.7
 20
178.326
 21
178.386
  0
LINE
  8
0
 10
159.7
 11
159.799
 20
178.386
 21
178.438
  0
LINE
  8
0
 10
159.799
 11
159.901
 20
178.438
 21
178.483
  0
LINE
  8
0
 10
159.901
 11
160.006
 20
178.483
 21
178.522
  0
LINE
  8
0
 10
160.006
 11
160.113
 20
178.522
 21
178.552
  0
LINE
  8
0
 10
160.113
 11
160.222
 20
178.552
 21
178.576
  0
LINE
  8
0
 10
160.222
 11
160.333
 20
178.576
 21
178.591
  0
LINE
  8
0
 10
160.333
 11
160.444
 20
178.591
 21
178.599
  0
LINE
  8
0
 10
160.444
 11
160.556
 20
178.599
 21
178.599
  0
LINE
  8
0
 10
160.556
 11
160.667
 20
178.599
 21
178.591
  0
LINE
  8
0
 10
160.667
 11
160.778
 20
178.591
 21
178.576
  0
LINE
  8
0
 10
160.778
 11
160.887
 20
178.576
 21
178.552
  0
LINE
  8
0
 10
160.887
 11
160.994
 20
178.552
 21
178.522
  0
LINE
  8
0
 10
160.994
 11
161.099
 20
178.522
 21
178.483
  0
LINE
  8
0
 10
161.099
 11
161.201
 20
178.483
 21
178.438
  0
LINE
  8
0
 10
161.201
 11
161.3
 20
178.438
 21
178.386
  0
LINE
  8
0
 10
161.3
 11
161.395
 20
178.386
 21
178.326
  0
LINE
  8
0
 10
161.395
 11
161.485
 20
178.326
 21
178.261
  0
LINE
  8
0
 10
161.485
 11
161.571
 20
178.261
 21
178.189
  0
LINE
  8
0
 10
161.571
 11
161.651
 20
178.189
 21
178.111
  0
LINE
  8
0
 10
161.651
 11
161.726
 20
178.111
 21
178.028
  0
LINE
  8
0
 10
161.726
 11
161.794
 20
178.028
 21
177.94
  0
LINE
  8
0
 10
161.794
 11
161.857
 20
177.94
 21
177.848
  0
LINE
  8
0
 10
161.857
 11
161.913
 20
177.848
 21
177.751
  0
LINE
  8
0
 10
161.913
 11
161.962
 20
177.751
 21
177.651
  0
LINE
  8
0
 10
161.962
 11
162.004
 20
177.651
 21
177.547
  0
LINE
  8
0
 10
162.004
 11
162.038
 20
177.547
 21
177.441
  0
LINE
  8
0
 10
162.038
 11
162.065
 20
177.441
 21
177.333
  0
LINE
  8
0
 10
162.065
 11
162.084
 20
177.333
 21
177.223
  0
LINE
  8
0
 10
162.084
 11
162.096
 20
177.223
 21
177.112
  0
LINE
  8
0
 10
162.096
 11
162.1
 20
177.112
 21
177
  0
LINE
  8
0
 10
162.1
 11
162.096
 20
177
 21
176.888
  0
LINE
  8
0
 10
162.096
 11
162.084
 20
176.888
 21
176.777
  0
LINE
  8
0
 10
162.084
 11
162.065
 20
176.777
 21
176.667
  0
LINE
  8
0
 10
162.065
 11
162.038
 20
176.667
 21
176.559
  0
LINE
  8
0
 10
162.038
 11
162.004
 20
176.559
 21
176.453
  0
LINE
  8
0
 10
162.004
 11
161.962
 20
176.453
 21
176.349
  0
LINE
  8
0
 10
161.962
 11
161.913
 20
176.349
 21
176.249
  0
LINE
  8
0
 10
161.913
 11
161.857
 20
176.249
 21
176.152
  0
LINE
  8
0
 10
161.857
 11
161.794
 20
176.152
 21
176.06
  0
LINE
  8
0
 10
161.794
 11
161.726
 20
176.06
 21
175.972
  0
LINE
  8
0
 10
161.726
 11
161.651
 20
175.972
 21
175.889
  0
LINE
  8
0
 10
161.651
 11
161.571
 20
175.889
 21
175.811
  0
LINE
  8
0
 10
161.571
 11
161.485
 20
175.811
 21
175.739
  0
LINE
  8
0
 10
161.485
 11
161.395
 20
175.739
 21
175.674
  0
LINE
  8
0
 10
161.395
 11
161.3
 20
175.674
 21
175.614
  0
LINE
  8
0
 10
161.3
 11
161.201
 20
175.614
 21
175.562
  0
LINE
  8
0
 10
161.201
 11
161.099
 20
175.562
 21
175.517
  0
LINE
  8
0
 10
161.099
 11
160.994
 20
175.517
 21
175.478
  0
LINE
  8
0
 10
160.994
 11
160.887
 20
175.478
 21
175.448
  0
LINE
  8
0
 10
160.887
 11
160.778
 20
175.448
 21
175.424
  0
LINE
  8
0
 10
160.778
 11
160.667
 20
175.424
 21
175.409
  0
LINE
  8
0
 10
160.667
 11
160.556
 20
175.409
 21
175.401
  0
LINE
  8
0
 10
160.556
 11
160.444
 20
175.401
 21
175.401
  0
LINE
  8
0
 10
160.444
 11
160.333
 20
175.401
 21
175.409
  0
LINE
  8
0
 10
160.333
 11
160.222
 20
175.409
 21
175.424
  0
LINE
  8
0
 10
160.222
 11
160.113
 20
175.424
 21
175.448
  0
LINE
  8
0
 10
160.113
 11
160.006
 20
175.448
 21
175.478
  0
LINE
  8
0
 10
160.006
 11
159.901
 20
175.478
 21
175.517
  0
LINE
  8
0
 10
159.901
 11
159.799
 20
175.517
 21
175.562
  0
LINE
  8
0
 10
159.799
 11
159.7
 20
175.562
 21
175.614
  0
LINE
  8
0
 10
159.7
 11
159.605
 20
175.614
 21
175.674
  0
LINE
  8
0
 10
159.605
 11
159.515
 20
175.674
 21
175.739
  0
LINE
  8
0
 10
159.515
 11
159.429
 20
175.739
 21
175.811
  0
LINE
  8
0
 10
159.429
 11
159.349
 20
175.811
 21
175.889
  0
LINE
  8
0
 10
159.349
 11
159.274
 20
175.889
 21
175.972
  0
LINE
  8
0
 10
159.274
 11
159.206
 20
175.972
 21
176.06
  0
LINE
  8
0
 10
159.206
 11
159.143
 20
176.06
 21
176.152
  0
LINE
  8
0
 10
159.143
 11
159.087
 20
176.152
 21
176.249
  0
LINE
  8
0
 10
159.087
 11
159.038
 20
176.249
 21
176.349
  0
LINE
  8
0
 10
159.038
 11
158.996
 20
176.349
 21
176.453
  0
LINE
  8
0
 10
158.996
 11
158.962
 20
176.453
 21
176.559
  0
LINE
  8
0
 10
158.962
 11
158.935
 20
176.559
 21
176.667
  0
LINE
  8
0
 10
158.935
 11
158.916
 20
176.667
 21
176.777
  0
LINE
  8
0
 10
158.916
 11
158.904
 20
176.777
 21
176.888
  0
LINE
  8
0
 10
158.904
 11
158.9
 20
176.888
 21
177
  0
LINE
  8
0
 10
158.9
 11
158.904
 20
241
 21
241.112
  0
LINE
  8
0
 10
158.904
 11
158.916
 20
241.112
 21
241.223
  0
LINE
  8
0
 10
158.916
 11
158.935
 20
241.223
 21
241.333
  0
LINE
  8
0
 10
158.935
 11
158.962
 20
241.333
 21
241.441
  0
LINE
  8
0
 10
158.962
 11
158.996
 20
241.441
 21
241.547
  0
LINE
  8
0
 10
158.996
 11
159.038
 20
241.547
 21
241.651
  0
LINE
  8
0
 10
159.038
 11
159.087
 20
241.651
 21
241.751
  0
LINE
  8
0
 10
159.087
 11
159.143
 20
241.751
 21
241.848
  0
LINE
  8
0
 10
159.143
 11
159.206
 20
241.848
 21
241.94
  0
LINE
  8
0
 10
159.206
 11
159.274
 20
241.94
 21
242.028
  0
LINE
  8
0
 10
159.274
 11
159.349
 20
242.028
 21
242.111
  0
LINE
  8
0
 10
159.349
 11
159.429
 20
242.111
 21
242.189
  0
LINE
  8
0
 10
159.429
 11
159.515
 20
242.189
 21
242.261
  0
LINE
  8
0
 10
159.515
 11
159.605
 20
242.261
 21
242.326
  0
LINE
  8
0
 10
159.605
 11
159.7
 20
242.326
 21
242.386
  0
LINE
  8
0
 10
159.7
 11
159.799
 20
242.386
 21
242.438
  0
LINE
  8
0
 10
159.799
 11
159.901
 20
242.438
 21
242.483
  0
LINE
  8
0
 10
159.901
 11
160.006
 20
242.483
 21
242.522
  0
LINE
  8
0
 10
160.006
 11
160.113
 20
242.522
 21
242.552
  0
LINE
  8
0
 10
160.113
 11
160.222
 20
242.552
 21
242.576
  0
LINE
  8
0
 10
160.222
 11
160.333
 20
242.576
 21
242.591
  0
LINE
  8
0
 10
160.333
 11
160.444
 20
242.591
 21
242.599
  0
LINE
  8
0
 10
160.444
 11
160.556
 20
242.599
 21
242.599
  0
LINE
  8
0
 10
160.556
 11
160.667
 20
242.599
 21
242.591
  0
LINE
  8
0
 10
160.667
 11
160.778
 20
242.591
 21
242.576
  0
LINE
  8
0
 10
160.778
 11
160.887
 20
242.576
 21
242.552
  0
LINE
  8
0
 10
160.887
 11
160.994
 20
242.552
 21
242.522
  0
LINE
  8
0
 10
160.994
 11
161.099
 20
242.522
 21
242.483
  0
LINE
  8
0
 10
161.099
 11
161.201
 20
242.483
 21
242.438
  0
LINE
  8
0
 10
161.201
 11
161.3
 20
242.438
 21
242.386
  0
LINE
  8
0
 10
161.3
 11
161.395
 20
242.386
 21
242.326
  0
LINE
  8
0
 10
161.395
 11
161.485
 20
242.326
 21
242.261
  0
LINE
  8
0
 10
161.485
 11
161.571
 20
242.261
 21
242.189
  0
LINE
  8
0
 10
161.571
 11
161.651
 20
242.189
 21
242.111
  0
LINE
  8
0
 10
161.651
 11
161.726
 20
242.111
 21
242.028
  0
LINE
  8
0
 10
161.726
 11
161.794
 20
242.028
 21
241.94
  0
LINE
  8
0
 10
161.794
 11
161.857
 20
241.94
 21
241.848
  0
LINE
  8
0
 10
161.857
 11
161.913
 20
241.848
 21
241.751
  0
LINE
  8
0
 10
161.913
 11
161.962
 20
241.751
 21
241.651
  0
LINE
  8
0
 10
161.962
 11
162.004
 20
241.651
 21
241.547
  0
LINE
  8
0
 10
162.004
 11
162.038
 20
241.547
 21
241.441
  0
LINE
  8
0
 10
162.038
 11
162.065
 20
241.441
 21
241.333
  0
LINE
  8
0
 10
162.065
 11
162.084
 20
241.333
 21
241.223
  0
LINE
  8
0
 10
162.084
 11
162.096
 20
241.223
 21
241.112
  0
LINE
  8
0
 10
162.096
 11
162.1
 20
241.112
 21
241
  0
LINE
  8
0
 10
162.1
 11
162.096
 20
241
 21
240.888
  0
LINE
  8
0
 10
162.096
 11
162.084
 20
240.888
 21
240.777
  0
LINE
  8
0
 10
162.084
 11
162.065
 20
240.777
 21
240.667
  0
LINE
  8
0
 10
162.065
 11
162.038
 20
240.667
 21
240.559
  0
LINE
  8
0
 10
162.038
 11
162.004
 20
240.559
 21
240.453
  0
LINE
  8
0
 10
162.004
 11
161.962
 20
240.453
 21
240.349
  0
LINE
  8
0
 10
161.962
 11
161.913
 20
240.349
 21
240.249
  0
LINE
  8
0
 10
161.913
 11
161.857
 20
240.249
 21
240.152
  0
LINE
  8
0
 10
161.857
 11
161.794
 20
240.152
 21
240.06
  0
LINE
  8
0
 10
161.794
 11
161.726
 20
240.06
 21
239.972
  0
LINE
  8
0
 10
161.726
 11
161.651
 20
239.972
 21
239.889
  0
LINE
  8
0
 10
161.651
 11
161.571
 20
239.889
 21
239.811
  0
LINE
  8
0
 10
161.571
 11
161.485
 20
239.811
 21
239.739
  0
LINE
  8
0
 10
161.485
 11
161.395
 20
239.739
 21
239.674
  0
LINE
  8
0
 10
161.395
 11
161.3
 20
239.674
 21
239.614
  0
LINE
  8
0
 10
161.3
 11
161.201
 20
239.614
 21
239.562
  0
LINE
  8
0
 10
161.201
 11
161.099
 20
239.562
 21
239.517
  0
LINE
  8
0
 10
161.099
 11
160.994
 20
239.517
 21
239.478
  0
LINE
  8
0
 10
160.994
 11
160.887
 20
239.478
 21
239.448
  0
LINE
  8
0
 10
160.887
 11
160.778
 20
239.448
 21
239.424
  0
LINE
  8
0
 10
160.778
 11
160.667
 20
239.424
 21
239.409
  0
LINE
  8
0
 10
160.667
 11
160.556
 20
239.409
 21
239.401
  0
LINE
  8
0
 10
160.556
 11
160.444
 20
239.401
 21
239.401
  0
LINE
  8
0
 10
160.444
 11
160.333
 20
239.401
 21
239.409
  0
LINE
  8
0
 10
160.333
 11
160.222
 20
239.409
 21
239.424
  0
LINE
  8
0
 10
160.222
 11
160.113
 20
239.424
 21
239.448
  0
LINE
  8
0
 10
160.113
 11
160.006
 20
239.448
 21
239.478
  0
LINE
  8
0
 10
160.006
 11
159.901
 20
239.478
 21
239.517
  0
LINE
  8
0
 10
159.901
 11
159.799
 20
239.517
 21
239.562
  0
LINE
  8
0
 10
159.799
 11
159.7
 20
239.562
 21
239.614
  0
LINE
  8
0
 10
159.7
 11
159.605
 20
239.614
 21
239.674
  0
LINE
  8
0
 10
159.605
 11
159.515
 20
239.674
 21
239.739
  0
LINE
  8
0
 10
159.515
 11
159.429
 20
239.739
 21
239.811
  0
LINE
  8
0
 10
159.429
 11
159.349
 20
239.811
 21
239.889
  0
LINE
  8
0
 10
159.349
 11
159.274
 20
239.889
 21
239.972
  0
LINE
  8
0
 10
159.274
 11
159.206
 20
239.972
 21
240.06
  0
LINE
  8
0
 10
159.206
 11
159.143
 20
240.06
 21
240.152
  0
LINE
  8
0
 10
159.143
 11
159.087
 20
240.152
 21
240.249
  0
LINE
  8
0
 10
159.087
 11
159.038
 20
240.249
 21
240.349
  0
LINE
  8
0
 10
159.038
 11
158.996
 20
240.349
 21
240.453
  0
LINE
  8
0
 10
158.996
 11
158.962
 20
240.453
 21
240.559
  0
LINE
  8
0
 10
158.962
 11
158.935
 20
240.559
 21
240.667
  0
LINE
  8
0
 10
158.935
 11
158.916
 20
240.667
 21
240.777
  0
LINE
  8
0
 10
158.916
 11
158.904
 20
240.777
 21
240.888
  0
LINE
  8
0
 10
158.904
 11
158.9
 20
240.888
 21
241
  0
LINE
  8
0
 10
170
 11
170
 20
173
 21
198.917
  0
LINE
  8
0
 10
170
 11
173
 20
198.917
 21
196.667
  0
LINE
  8
0
 10
173
 11
174.723
 20
196.667
 21
182.227
  0
LINE
  8
0
 10
174.723
 11
174.711
 20
182.227
 21
182.197
  0
LINE
  8
0
 10
174.711
 11
174.636
 20
182.197
 21
181.965
  0
LINE
  8
0
 10
174.636
 11
174.576
 20
181.965
 21
181.728
  0
LINE
  8
0
 10
174.576
 11
174.534
 20
181.728
 21
181.487
  0
LINE
  8
0
 10
174.534
 11
174.509
 20
181.487
 21
181.244
  0
LINE
  8
0
 10
174.509
 11
174.5
 20
181.244
 21
181
  0
LINE
  8
0
 10
174.5
 11
174.509
 20
181
 21
180.756
  0
LINE
  8
0
 10
174.509
 11
174.534
 20
180.756
 21
180.513
  0
LINE
  8
0
 10
174.534
 11
174.576
 20
180.513
 21
180.272
  0
LINE
  8
0
 10
174.576
 11
174.636
 20
180.272
 21
180.035
  0
LINE
  8
0
 10
174.636
 11
174.711
 20
180.035
 21
179.803
  0
LINE
  8
0
 10
174.711
 11
174.803
 20
179.803
 21
179.576
  0
LINE
  8
0
 10
174.803
 11
174.91
 20
179.576
 21
179.357
  0
LINE
  8
0
 10
174.91
 11
175.032
 20
179.357
 21
179.145
  0
LINE
  8
0
 10
175.032
 11
175.168
 20
179.145
 21
178.943
  0
LINE
  8
0
 10
175.168
 11
175.319
 20
178.943
 21
178.75
  0
LINE
  8
0
 10
175.319
 11
175.482
 20
178.75
 21
178.569
  0
LINE
  8
0
 10
175.482
 11
175.658
 20
178.569
 21
178.399
  0
LINE
  8
0
 10
175.658
 11
175.845
 20
178.399
 21
178.242
  0
LINE
  8
0
 10
175.845
 11
176.043
 20
178.242
 21
178.098
  0
LINE
  8
0
 10
176.043
 11
176.25
 20
178.098
 21
177.969
  0
LINE
  8
0
 10
176.25
 11
176.466
 20
177.969
 21
177.854
  0
LINE
  8
0
 10
176.466
 11
176.689
 20
177.854
 21
177.755
  0
LINE
  8
0
 10
176.689
 11
176.918
 20
177.755
 21
177.671
  0
LINE
  8
0
 10
176.918
 11
177.153
 20
177.671
 21
177.604
  0
LINE
  8
0
 10
177.153
 11
177.392
 20
177.604
 21
177.553
  0
LINE
  8
0
 10
177.392
 11
177.634
 20
177.553
 21
177.519
  0
LINE
  8
0
 10
177.634
 11
177.878
 20
177.519
 21
177.502
  0
LINE
  8
0
 10
177.878
 11
178.122
 20
177.502
 21
177.502
  0
LINE
  8
0
 10
178.122
 11
178.366
 20
177.502
 21
177.519
  0
LINE
  8
0
 10
178.366
 11
178.608
 20
177.519
 21
177.553
  0
LINE
  8
0
 10
178.608
 11
178.847
 20
177.553
 21
177.604
  0
LINE
  8
0
 10
178.847
 11
179.082
 20
177.604
 21
177.671
  0
LINE
  8
0
 10
179.082
 11
179.311
 20
177.671
 21
177.755
  0
LINE
  8
0
 10
179.311
 11
179.534
 20
177.755
 21
177.854
  0
LINE
  8
0
 10
179.534
 11
179.75
 20
177.854
 21
177.969
  0
LINE
  8
0
 10
179.75
 11
179.957
 20
177.969
 21
178.098
  0
LINE
  8
0
 10
179.957
 11
180.155
 20
178.098
 21
178.242
  0
LINE
  8
0
 10
180.155
 11
180.342
 20
178.242
 21
178.399
  0
LINE
  8
0
 10
180.342
 11
180.518
 20
178.399
 21
178.569
  0
LINE
  8
0
 10
180.518
 11
180.681
 20
178.569
 21
178.75
  0
LINE
  8
0
 10
180.681
 11
180.832
 20
178.75
 21
178.943
  0
LINE
  8
0
 10
180.832
 11
180.968
 20
178.943
 21
179.145
  0
LINE
  8
0
 10
180.968
 11
181.09
 20
179.145
 21
179.357
  0
LINE
  8
0
 10
181.09
 11
181.197
 20
179.357
 21
179.576
  0
LINE
  8
0
 10
181.197
 11
181.289
 20
179.576
 21
179.803
  0
LINE
  8
0
 10
181.289
 11
181.364
 20
179.803
 21
180.035
  0
LINE
  8
0
 10
181.364
 11
181.424
 20
180.035
 21
180.272
  0
LINE
  8
0
 10
181.424
 11
181.466
 20
180.272
 21
180.513
  0
LINE
  8
0
 10
181.466
 11
181.491
 20
180.513
 21
180.756
  0
LINE
  8
0
 10
181.491
 11
181.5
 20
180.756
 21
181
  0
LINE
  8
0
 10
181.5
 11
181.491
 20
181
 21
181.244
  0
LINE
  8
0
 10
181.491
 11
181.481
 20
181.244
 21
181.341
  0
LINE
  8
0
 10
181.481
 11
235
 20
181.341
 21
176.098
  0
LINE
  8
0
 10
235
 11
235
 20
176.098
 21
173
  0
LINE
  8
0
 10
235
 11
170
 20
173
 21
173
  0
LINE
  8
0
 10
170
 11
170
 20
227.083
 21
253
  0
LINE
  8
0
 10
170
 11
235
 20
253
 21
253
  0
LINE
  8
0
 10
235
 11
235
 20
253
 21
249.902
  0
LINE
  8
0
 10
235
 11
181.481
 20
249.902
 21
244.659
  0
LINE
  8
0
 10
181.481
 11
181.491
 20
244.659
 21
244.756
  0
LINE
  8
0
 10
181.491
 11
181.5
 20
244.756
 21
245
  0
LINE
  8
0
 10
181.5
 11
181.491
 20
245
 21
245.244
  0
LINE
  8
0
 10
181.491
 11
181.466
 20
245.244
 21
245.487
  0
LINE
  8
0
 10
181.466
 11
181.424
 20
245.487
 21
245.728
  0
LINE
  8
0
 10
181.424
 11
181.364
 20
245.728
 21
245.965
  0
LINE
  8
0
 10
181.364
 11
181.289
 20
245.965
 21
246.197
  0
LINE
  8
0
 10
181.289
 11
181.197
 20
246.197
 21
246.424
  0
LINE
  8
0
 10
181.197
 11
181.09
 20
246.424
 21
246.643
  0
LINE
  8
0
 10
181.09
 11
180.968
 20
246.643
 21
246.855
  0
LINE
  8
0
 10
180.968
 11
180.832
 20
246.855
 21
247.057
  0
LINE
  8
0
 10
180.832
 11
180.681
 20
247.057
 21
247.25
  0
LINE
  8
0
 10
180.681
 11
180.518
 20
247.25
 21
247.431
  0
LINE
  8
0
 10
180.518
 11
180.342
 20
247.431
 21
247.601
  0
LINE
  8
0
 10
180.342
 11
180.155
 20
247.601
 21
247.758
  0
LINE
  8
0
 10
180.155
 11
179.957
 20
247.758
 21
247.902
  0
LINE
  8
0
 10
179.957
 11
179.75
 20
247.902
 21
248.031
  0
LINE
  8
0
 10
179.75
 11
179.534
 20
248.031
 21
248.146
  0
LINE
  8
0
 10
179.534
 11
179.311
 20
248.146
 21
248.245
  0
LINE
  8
0
 10
179.311
 11
179.082
 20
248.245
 21
248.329
  0
LINE
  8
0
 10
179.082
 11
178.847
 20
248.329
 21
248.396
  0
LINE
  8
0
 10
178.847
 11
178.608
 20
248.396
 21
248.447
  0
LINE
  8
0
 10
178.608
 11
178.366
 20
248.447
 21
248.481
  0
LINE
  8
0
 10
178.366
 11
178.122
 20
248.481
 21
248.498
  0
LINE
  8
0
 10
178.122
 11
177.878
 20
248.498
 21
248.498
  0
LINE
  8
0
 10
177.878
 11
177.634
 20
248.498
 21
248.481
  0
LINE
  8
0
 10
177.634
 11
177.392
 20
248.481
 21
248.447
  0
LINE
  8
0
 10
177.392
 11
177.153
 20
248.447
 21
248.396
  0
LINE
  8
0
 10
177.153
 11
176.918
 20
248.396
 21
248.329
  0
LINE
  8
0
 10
176.918
 11
176.689
 20
248.329
 21
248.245
  0
LINE
  8
0
 10
176.689
 11
176.466
 20
248.245
 21
248.146
  0
LINE
  8
0
 10
176.466
 11
176.25
 20
248.146
 21
248.031
  0
LINE
  8
0
 10
176.25
 11
176.043
 20
248.031
 21
247.902
  0
LINE
  8
0
 10
176.043
 11
175.845
 20
247.902
 21
247.758
  0
LINE
  8
0
 10
175.845
 11
175.658
 20
247.758
 21
247.601
  0
LINE
  8
0
 10
175.658
 11
175.482
 20
247.601
 21
247.431
  0
LINE
  8
0
 10
175.482
 11
175.319
 20
247.431
 21
247.25
  0
LINE
  8
0
 10
175.319
 11
175.168
 20
247.25
 21
247.057
  0
LINE
  8
0
 10
175.168
 11
175.032
 20
247.057
 21
246.855
  0
LINE
  8
0
 10
175.032
 11
174.91
 20
246.855
 21
246.643
  0
LINE
  8
0
 10
174.91
 11
174.803
 20
246.643
 21
246.424
  0
LINE
  8
0
 10
174.803
 11
174.711
 20
246.424
 21
246.197
  0
LINE
  8
0
 10
174.711
 11
174.636
 20
246.197
 21
245.965
  0
LINE
  8
0
 10
174.636
 11
174.576
 20
245.965
 21
245.728
  0
LINE
  8
0
 10
174.576
 11
174.534
 20
245.728
 21
245.487
  0
LINE
  8
0
 10
174.534
 11
174.509
 20
245.487
 21
245.244
  0
LINE
  8
0
 10
174.509
 11
174.5
 20
245.244
 21
245
  0
LINE
  8
0
 10
174.5
 11
174.509
 20
245
 21
244.756
  0
LINE
  8
0
 10
174.509
 11
174.534
 20
244.756
 21
244.513
  0
LINE
  8
0
 10
174.534
 11
174.576
 20
244.513
 21
244.272
  0
LINE
  8
0
 10
174.576
 11
174.636
 20
244.272
 21
244.035
  0
LINE
  8
0
 10
174.636
 11
174.711
 20
244.035
 21
243.803
  0
LINE
  8
0
 10
174.711
 11
174.723
 20
243.803
 21
243.773
  0
LINE
  8
0
 10
174.723
 11
173
 20
243.773
 21
229.333
  0
LINE
  8
0
 10
173
 11
170
 20
229.333
 21
227.083
  0
LINE
  8
0
 10
173
 11
173
 20
9
 21
18
  0
LINE
  8
0
 10
173
 11
175.9
 20
18
 21
18
  0
LINE
  8
0
 10
175.9
 11
175.9
 20
18
 21
158
  0
LINE
  8
0
 10
175.9
 11
173
 20
158
 21
158
  0
LINE
  8
0
 10
173
 11
173
 20
158
 21
167.1
  0
LINE
  8
0
 10
173
 11
196
 20
167.1
 21
167.1
  0
LINE
  8
0
 10
196
 11
196
 20
167.1
 21
170
  0
LINE
  8
0
 10
196
 11
208
 20
170
 21
170
  0
LINE
  8
0
 10
208
 11
208
 20
170
 21
161
  0
LINE
  8
0
 10
208
 11
205
 20
161
 21
161
  0
LINE
  8
0
 10
205
 11
205
 20
161
 21
15
  0
LINE
  8
0
 10
205
 11
208
 20
15
 21
15
  0
LINE
  8
0
 10
208
 11
208
 20
15
 21
6
  0
LINE
  8
0
 10
208
 11
196
 20
6
 21
6
  0
LINE
  8
0
 10
196
 11
196
 20
6
 21
9
  0
LINE
  8
0
 10
196
 11
173
 20
9
 21
9
  0
LINE
  8
0
 10
181
 11
181
 20
161.724
 21
161.776
  0
LINE
  8
0
 10
181
 11
181.004
 20
161.776
 21
161.828
  0
LINE
  8
0
 10
181.004
 11
181.011
 20
161.828
 21
161.88
  0
LINE
  8
0
 10
181.011
 11
181.022
 20
161.88
 21
161.931
  0
LINE
  8
0
 10
181.022
 11
181.037
 20
161.931
 21
161.982
  0
LINE
  8
0
 10
181.037
 11
181.055
 20
161.982
 21
162.031
  0
LINE
  8
0
 10
181.055
 11
181.076
 20
162.031
 21
162.079
  0
LINE
  8
0
 10
181.076
 11
181.1
 20
162.079
 21
162.125
  0
LINE
  8
0
 10
181.1
 11
181.128
 20
162.125
 21
162.169
  0
LINE
  8
0
 10
181.128
 11
181.159
 20
162.169
 21
162.212
  0
LINE
  8
0
 10
181.159
 11
181.193
 20
162.212
 21
162.252
  0
LINE
  8
0
 10
181.193
 11
181.229
 20
162.252
 21
162.29
  0
LINE
  8
0
 10
181.229
 11
181.268
 20
162.29
 21
162.325
  0
LINE
  8
0
 10
181.268
 11
181.309
 20
162.325
 21
162.357
  0
LINE
  8
0
 10
181.309
 11
181.353
 20
162.357
 21
162.386
  0
LINE
  8
0
 10
181.353
 11
181.398
 20
162.386
 21
162.412
  0
LINE
  8
0
 10
181.398
 11
181.445
 20
162.412
 21
162.435
  0
LINE
  8
0
 10
181.445
 11
181.493
 20
162.435
 21
162.455
  0
LINE
  8
0
 10
181.493
 11
181.543
 20
162.455
 21
162.471
  0
LINE
  8
0
 10
181.543
 11
181.594
 20
162.471
 21
162.484
  0
LINE
  8
0
 10
181.594
 11
181.646
 20
162.484
 21
162.493
  0
LINE
  8
0
 10
181.646
 11
181.698
 20
162.493
 21
162.498
  0
LINE
  8
0
 10
181.698
 11
181.75
 20
162.498
 21
162.5
  0
LINE
  8
0
 10
181.75
 11
199.25
 20
162.5
 21
162.5
  0
LINE
  8
0
 10
199.25
 11
199.302
 20
162.5
 21
162.498
  0
LINE
  8
0
 10
199.302
 11
199.354
 20
162.498
 21
162.493
  0
LINE
  8
0
 10
199.354
 11
199.406
 20
162.493
 21
162.484
  0
LINE
  8
0
 10
199.406
 11
199.457
 20
162.484
 21
162.471
  0
LINE
  8
0
 10
199.457
 11
199.507
 20
162.471
 21
162.455
  0
LINE
  8
0
 10
199.507
 11
199.555
 20
162.455
 21
162.435
  0
LINE
  8
0
 10
199.555
 11
199.602
 20
162.435
 21
162.412
  0
LINE
  8
0
 10
199.602
 11
199.647
 20
162.412
 21
162.386
  0
LINE
  8
0
 10
199.647
 11
199.691
 20
162.386
 21
162.357
  0
LINE
  8
0
 10
199.691
 11
199.732
 20
162.357
 21
162.325
  0
LINE
  8
0
 10
199.732
 11
199.771
 20
162.325
 21
162.29
  0
LINE
  8
0
 10
199.771
 11
199.807
 20
162.29
 21
162.252
  0
LINE
  8
0
 10
199.807
 11
199.841
 20
162.252
 21
162.212
  0
LINE
  8
0
 10
199.841
 11
199.872
 20
162.212
 21
162.169
  0
LINE
  8
0
 10
199.872
 11
199.9
 20
162.169
 21
162.125
  0
LINE
  8
0
 10
199.9
 11
199.924
 20
162.125
 21
162.079
  0
LINE
  8
0
 10
199.924
 11
199.945
 20
162.079
 21
162.031
  0
LINE
  8
0
 10
199.945
 11
199.963
 20
162.031
 21
161.982
  0
LINE
  8
0
 10
199.963
 11
199.978
 20
161.982
 21
161.931
  0
LINE
  8
0
 10
199.978
 11
199.989
 20
161.931
 21
161.88
  0
LINE
  8
0
 10
199.989
 11
199.996
 20
161.88
 21
161.828
  0
LINE
  8
0
 10
199.996
 11
200
 20
161.828
 21
161.776
  0
LINE
  8
0
 10
200
 11
200
 20
161.776
 21
161.724
  0
LINE
  8
0
 10
200
 11
199.996
 20
161.724
 21
161.672
  0
LINE
  8
0
 10
199.996
 11
199.989
 20
161.672
 21
161.62
  0
LINE
  8
0
 10
199.989
 11
199.978
 20
161.62
 21
161.569
  0
LINE
  8
0
 10
199.978
 11
199.963
 20
161.569
 21
161.518
  0
LINE
  8
0
 10
199.963
 11
199.945
 20
161.518
 21
161.469
  0
LINE
  8
0
 10
199.945
 11
199.924
 20
161.469
 21
161.421
  0
LINE
  8
0
 10
199.924
 11
199.9
 20
161.421
 21
161.375
  0
LINE
  8
0
 10
199.9
 11
199.872
 20
161.375
 21
161.331
  0
LINE
  8
0
 10
199.872
 11
199.841
 20
161.331
 21
161.288
  0
LINE
  8
0
 10
199.841
 11
199.807
 20
161.288
 21
161.248
  0
LINE
  8
0
 10
199.807
 11
199.771
 20
161.248
 21
161.21
  0
LINE
  8
0
 10
199.771
 11
199.732
 20
161.21
 21
161.175
  0
LINE
  8
0
 10
199.732
 11
199.691
 20
161.175
 21
161.143
  0
LINE
  8
0
 10
199.691
 11
199.647
 20
161.143
 21
161.114
  0
LINE
  8
0
 10
199.647
 11
199.602
 20
161.114
 21
161.088
  0
LINE
  8
0
 10
199.602
 11
199.555
 20
161.088
 21
161.065
  0
LINE
  8
0
 10
199.555
 11
199.507
 20
161.065
 21
161.045
  0
LINE
  8
0
 10
199.507
 11
199.457
 20
161.045
 21
161.029
  0
LINE
  8
0
 10
199.457
 11
199.406
 20
161.029
 21
161.016
  0
LINE
  8
0
 10
199.406
 11
199.354
 20
161.016
 21
161.007
  0
LINE
  8
0
 10
199.354
 11
199.302
 20
161.007
 21
161.002
  0
LINE
  8
0
 10
199.302
 11
199.25
 20
161.002
 21
161
  0
LINE
  8
0
 10
199.25
 11
181.75
 20
161
 21
161
  0
LINE
  8
0
 10
181.75
 11
181.698
 20
161
 21
161.002
  0
LINE
  8
0
 10
181.698
 11
181.646
 20
161.002
 21
161.007
  0
LINE
  8
0
 10
181.646
 11
181.594
 20
161.007
 21
161.016
  0
LINE
  8
0
 10
181.594
 11
181.543
 20
161.016
 21
161.029
  0
LINE
  8
0
 10
181.543
 11
181.493
 20
161.029
 21
161.045
  0
LINE
  8
0
 10
181.493
 11
181.445
 20
161.045
 21
161.065
  0
LINE
  8
0
 10
181.445
 11
181.398
 20
161.065
 21
161.088
  0
LINE
  8
0
 10
181.398
 11
181.353
 20
161.088
 21
161.114
  0
LINE
  8
0
 10
181.353
 11
181.309
 20
161.114
 21
161.143
  0
LINE
  8
0
 10
181.309
 11
181.268
 20
161.143
 21
161.175
  0
LINE
  8
0
 10
181.268
 11
181.229
 20
161.175
 21
161.21
  0
LINE
  8
0
 10
181.229
 11
181.193
 20
161.21
 21
161.248
  0
LINE
  8
0
 10
181.193
 11
181.159
 20
161.248
 21
161.288
  0
LINE
  8
0
 10
181.159
 11
181.128
 20
161.288
 21
161.331
  0
LINE
  8
0
 10
181.128
 11
181.1
 20
161.331
 21
161.375
  0
LINE
  8
0
 10
181.1
 11
181.076
 20
161.375
 21
161.421
  0
LINE
  8
0
 10
181.076
 11
181.055
 20
161.421
 21
161.469
  0
LINE
  8
0
 10
181.055
 11
181.037
 20
161.469
 21
161.518
  0
LINE
  8
0
 10
181.037
 11
181.022
 20
161.518
 21
161.569
  0
LINE
  8
0
 10
181.022
 11
181.011
 20
161.569
 21
161.62
  0
LINE
  8
0
 10
181.011
 11
181.004
 20
161.62
 21
161.672
  0
LINE
  8
0
 10
181.004
 11
181
 20
161.672
 21
161.724
  0
LINE
  8
0
 10
185
 11
185
 20
195
 21
209.722
  0
LINE
  8
0
 10
185
 11
185.006
 20
209.722
 21
209.815
  0
LINE
  8
0
 10
185.006
 11
185.036
 20
209.815
 21
210.023
  0
LINE
  8
0
 10
185.036
 11
185.079
 20
210.023
 21
210.228
  0
LINE
  8
0
 10
185.079
 11
185.137
 20
210.228
 21
210.43
  0
LINE
  8
0
 10
185.137
 11
185.209
 20
210.43
 21
210.628
  0
LINE
  8
0
 10
185.209
 11
185.295
 20
210.628
 21
210.819
  0
LINE
  8
0
 10
185.295
 11
185.393
 20
210.819
 21
211.005
  0
LINE
  8
0
 10
185.393
 11
185.505
 20
211.005
 21
211.183
  0
LINE
  8
0
 10
185.505
 11
185.628
 20
211.183
 21
211.353
  0
LINE
  8
0
 10
185.628
 11
185.763
 20
211.353
 21
211.514
  0
LINE
  8
0
 10
185.763
 11
185.909
 20
211.514
 21
211.665
  0
LINE
  8
0
 10
185.909
 11
186.065
 20
211.665
 21
211.806
  0
LINE
  8
0
 10
186.065
 11
186.231
 20
211.806
 21
211.935
  0
LINE
  8
0
 10
186.231
 11
186.405
 20
211.935
 21
212.053
  0
LINE
  8
0
 10
186.405
 11
186.587
 20
212.053
 21
212.158
  0
LINE
  8
0
 10
186.587
 11
186.776
 20
212.158
 21
212.25
  0
LINE
  8
0
 10
186.776
 11
186.971
 20
212.25
 21
212.328
  0
LINE
  8
0
 10
186.971
 11
187.17
 20
212.328
 21
212.393
  0
LINE
  8
0
 10
187.17
 11
187.374
 20
212.393
 21
212.444
  0
LINE
  8
0
 10
187.374
 11
187.581
 20
212.444
 21
212.481
  0
LINE
  8
0
 10
187.581
 11
187.765
 20
212.481
 21
212.5
  0
LINE
  8
0
 10
187.765
 11
238.485
 20
212.5
 21
212.5
  0
LINE
  8
0
 10
238.485
 11
238.669
 20
212.5
 21
212.519
  0
LINE
  8
0
 10
238.669
 11
238.876
 20
212.519
 21
212.556
  0
LINE
  8
0
 10
238.876
 11
239.08
 20
212.556
 21
212.607
  0
LINE
  8
0
 10
239.08
 11
239.279
 20
212.607
 21
212.672
  0
LINE
  8
0
 10
239.279
 11
239.474
 20
212.672
 21
212.75
  0
LINE
  8
0
 10
239.474
 11
239.663
 20
212.75
 21
212.842
  0
LINE
  8
0
 10
239.663
 11
239.845
 20
212.842
 21
212.947
  0
LINE
  8
0
 10
239.845
 11
240.019
 20
212.947
 21
213.065
  0
LINE
  8
0
 10
240.019
 11
240.185
 20
213.065
 21
213.194
  0
LINE
  8
0
 10
240.185
 11
240.341
 20
213.194
 21
213.335
  0
LINE
  8
0
 10
240.341
 11
240.487
 20
213.335
 21
213.486
  0
LINE
  8
0
 10
240.487
 11
240.622
 20
213.486
 21
213.647
  0
LINE
  8
0
 10
240.622
 11
240.745
 20
213.647
 21
213.817
  0
LINE
  8
0
 10
240.745
 11
240.857
 20
213.817
 21
213.995
  0
LINE
  8
0
 10
240.857
 11
240.955
 20
213.995
 21
214.181
  0
LINE
  8
0
 10
240.955
 11
241.041
 20
214.181
 21
214.372
  0
LINE
  8
0
 10
241.041
 11
241.113
 20
214.372
 21
214.57
  0
LINE
  8
0
 10
241.113
 11
241.171
 20
214.57
 21
214.772
  0
LINE
  8
0
 10
241.171
 11
241.214
 20
214.772
 21
214.977
  0
LINE
  8
0
 10
241.214
 11
241.244
 20
214.977
 21
215.185
  0
LINE
  8
0
 10
241.244
 11
241.25
 20
215.185
 21
215.278
  0
LINE
  8
0
 10
241.25
 11
241.25
 20
215.278
 21
254.735
  0
LINE
  8
0
 10
241.25
 11
241.231
 20
254.735
 21
254.919
  0
LINE
  8
0
 10
241.231
 11
241.194
 20
254.919
 21
255.126
  0
LINE
  8
0
 10
241.194
 11
241.143
 20
255.126
 21
255.33
  0
LINE
  8
0
 10
241.143
 11
241.078
 20
255.33
 21
255.529
  0
LINE
  8
0
 10
241.078
 11
241
 20
255.529
 21
255.724
  0
LINE
  8
0
 10
241
 11
240.908
 20
255.724
 21
255.913
  0
LINE
  8
0
 10
240.908
 11
240.803
 20
255.913
 21
256.095
  0
LINE
  8
0
 10
240.803
 11
240.685
 20
256.095
 21
256.269
  0
LINE
  8
0
 10
240.685
 11
240.556
 20
256.269
 21
256.435
  0
LINE
  8
0
 10
240.556
 11
240.415
 20
256.435
 21
256.591
  0
LINE
  8
0
 10
240.415
 11
240.264
 20
256.591
 21
256.737
  0
LINE
  8
0
 10
240.264
 11
240.103
 20
256.737
 21
256.872
  0
LINE
  8
0
 10
240.103
 11
239.933
 20
256.872
 21
256.995
  0
LINE
  8
0
 10
239.933
 11
239.755
 20
256.995
 21
257.107
  0
LINE
  8
0
 10
239.755
 11
239.569
 20
257.107
 21
257.205
  0
LINE
  8
0
 10
239.569
 11
239.378
 20
257.205
 21
257.291
  0
LINE
  8
0
 10
239.378
 11
239.18
 20
257.291
 21
257.363
  0
LINE
  8
0
 10
239.18
 11
238.978
 20
257.363
 21
257.421
  0
LINE
  8
0
 10
238.978
 11
238.773
 20
257.421
 21
257.464
  0
LINE
  8
0
 10
238.773
 11
238.565
 20
257.464
 21
257.494
  0
LINE
  8
0
 10
238.565
 11
238.472
 20
257.494
 21
257.5
  0
LINE
  8
0
 10
238.472
 11
187.778
 20
257.5
 21
257.5
  0
LINE
  8
0
 10
187.778
 11
187.685
 20
257.5
 21
257.506
  0
LINE
  8
0
 10
187.685
 11
187.477
 20
257.506
 21
257.536
  0
LINE
  8
0
 10
187.477
 11
187.272
 20
257.536
 21
257.579
  0
LINE
  8
0
 10
187.272
 11
187.07
 20
257.579
 21
257.637
  0
LINE
  8
0
 10
187.07
 11
186.872
 20
257.637
 21
257.709
  0
LINE
  8
0
 10
186.872
 11
186.681
 20
257.709
 21
257.795
  0
LINE
  8
0
 10
186.681
 11
186.495
 20
257.795
 21
257.893
  0
LINE
  8
0
 10
186.495
 11
186.317
 20
257.893
 21
258.005
  0
LINE
  8
0
 10
186.317
 11
186.147
 20
258.005
 21
258.128
  0
LINE
  8
0
 10
186.147
 11
185.986
 20
258.128
 21
258.263
  0
LINE
  8
0
 10
185.986
 11
185.835
 20
258.263
 21
258.409
  0
LINE
  8
0
 10
185.835
 11
185.694
 20
258.409
 21
258.565
  0
LINE
  8
0
 10
185.694
 11
185.565
 20
258.565
 21
258.731
  0
LINE
  8
0
 10
185.565
 11
185.447
 20
258.731
 21
258.905
  0
LINE
  8
0
 10
185.447
 11
185.342
 20
258.905
 21
259.087
  0
LINE
  8
0
 10
185.342
 11
185.25
 20
259.087
 21
259.276
  0
LINE
  8
0
 10
185.25
 11
185.172
 20
259.276
 21
259.471
  0
LINE
  8
0
 10
185.172
 11
185.107
 20
259.471
 21
259.67
  0
LINE
  8
0
 10
185.107
 11
185.056
 20
259.67
 21
259.874
  0
LINE
  8
0
 10
185.056
 11
185.019
 20
259.874
 21
260.081
  0
LINE
  8
0
 10
185.019
 11
185
 20
260.081
 21
260.265
  0
LINE
  8
0
 10
185
 11
185
 20
260.265
 21
275
  0
LINE
  8
0
 10
185
 11
250
 20
275
 21
275
  0
LINE
  8
0
 10
250
 11
250
 20
275
 21
195
  0
LINE
  8
0
 10
250
 11
185
 20
195
 21
195
  0
LINE
  8
0
 10
214
 11
214
 20
9
 21
18
  0
LINE
  8
0
 10
214
 11
216.9
 20
18
 21
18
  0
LINE
  8
0
 10
216.9
 11
216.9
 20
18
 21
158
  0
LINE
  8
0
 10
216.9
 11
214
 20
158
 21
158
  0
LINE
  8
0
 10
214
 11
214
 20
158
 21
167.1
  0
LINE
  8
0
 10
214
 11
237
 20
167.1
 21
167.1
  0
LINE
  8
0
 10
237
 11
237
 20
167.1
 21
170
  0
LINE
  8
0
 10
237
 11
249
 20
170
 21
170
  0
LINE
  8
0
 10
249
 11
249
 20
170
 21
161
  0
LINE
  8
0
 10
249
 11
246
 20
161
 21
161
  0
LINE
  8
0
 10
246
 11
246
 20
161
 21
15
  0
LINE
  8
0
 10
246
 11
249
 20
15
 21
15
  0
LINE
  8
0
 10
249
 11
249
 20
15
 21
6
  0
LINE
  8
0
 10
249
 11
237
 20
6
 21
6
  0
LINE
  8
0
 10
237
 11
237
 20
6
 21
9
  0
LINE
  8
0
 10
237
 11
214
 20
9
 21
9
  0
LINE
  8
0
 10
222
 11
222
 20
161.724
 21
161.776
  0
LINE
  8
0
 10
222
 11
222.004
 20
161.776
 21
161.828
  0
LINE
  8
0
 10
222.004
 11
222.011
 20
161.828
 21
161.88
  0
LINE
  8
0
 10
222.011
 11
222.022
 20
161.88
 21
161.931
  0
LINE
  8
0
 10
222.022
 11
222.037
 20
161.931
 21
161.982
  0
LINE
  8
0
 10
222.037
 11
222.055
 20
161.982
 21
162.031
  0
LINE
  8
0
 10
222.055
 11
222.076
 20
162.031
 21
162.079
  0
LINE
  8
0
 10
222.076
 11
222.1
 20
162.079
 21
162.125
  0
LINE
  8
0
 10
222.1
 11
222.128
 20
162.125
 21
162.169
  0
LINE
  8
0
 10
222.128
 11
222.159
 20
162.169
 21
162.212
  0
LINE
  8
0
 10
222.159
 11
222.193
 20
162.212
 21
162.252
  0
LINE
  8
0
 10
222.193
 11
222.229
 20
162.252
 21
162.29
  0
LINE
  8
0
 10
222.229
 11
222.268
 20
162.29
 21
162.325
  0
LINE
  8
0
 10
222.268
 11
222.309
 20
162.325
 21
162.357
  0
LINE
  8
0
 10
222.309
 11
222.353
 20
162.357
 21
162.386
  0
LINE
  8
0
 10
222.353
 11
222.398
 20
162.386
 21
162.412
  0
LINE
  8
0
 10
222.398
 11
222.445
 20
162.412
 21
162.435
  0
LINE
  8
0
 10
222.445
 11
222.493
 20
162.435
 21
162.455
  0
LINE
  8
0
 10
222.493
 11
222.543
 20
162.455
 21
162.471
  0
LINE
  8
0
 10
222.543
 11
222.594
 20
162.471
 21
162.484
  0
LINE
  8
0
 10
222.594
 11
222.646
 20
162.484
 21
162.493
  0
LINE
  8
0
 10
222.646
 11
222.698
 20
162.493
 21
162.498
  0
LINE
  8
0
 10
222.698
 11
222.75
 20
162.498
 21
162.5
  0
LINE
  8
0
 10
222.75
 11
240.25
 20
162.5
 21
162.5
  0
LINE
  8
0
 10
240.25
 11
240.302
 20
162.5
 21
162.498
  0
LINE
  8
0
 10
240.302
 11
240.354
 20
162.498
 21
162.493
  0
LINE
  8
0
 10
240.354
 11
240.406
 20
162.493
 21
162.484
  0
LINE
  8
0
 10
240.406
 11
240.457
 20
162.484
 21
162.471
  0
LINE
  8
0
 10
240.457
 11
240.507
 20
162.471
 21
162.455
  0
LINE
  8
0
 10
240.507
 11
240.555
 20
162.455
 21
162.435
  0
LINE
  8
0
 10
240.555
 11
240.602
 20
162.435
 21
162.412
  0
LINE
  8
0
 10
240.602
 11
240.647
 20
162.412
 21
162.386
  0
LINE
  8
0
 10
240.647
 11
240.691
 20
162.386
 21
162.357
  0
LINE
  8
0
 10
240.691
 11
240.732
 20
162.357
 21
162.325
  0
LINE
  8
0
 10
240.732
 11
240.771
 20
162.325
 21
162.29
  0
LINE
  8
0
 10
240.771
 11
240.807
 20
162.29
 21
162.252
  0
LINE
  8
0
 10
240.807
 11
240.841
 20
162.252
 21
162.212
  0
LINE
  8
0
 10
240.841
 11
240.872
 20
162.212
 21
162.169
  0
LINE
  8
0
 10
240.872
 11
240.9
 20
162.169
 21
162.125
  0
LINE
  8
0
 10
240.9
 11
240.924
 20
162.125
 21
162.079
  0
LINE
  8
0
 10
240.924
 11
240.945
 20
162.079
 21
162.031
  0
LINE
  8
0
 10
240.945
 11
240.963
 20
162.031
 21
161.982
  0
LINE
  8
0
 10
240.963
 11
240.978
 20
161.982
 21
161.931
  0
LINE
  8
0
 10
240.978
 11
240.989
 20
161.931
 21
161.88
  0
LINE
  8
0
 10
240.989
 11
240.996
 20
161.88
 21
161.828
  0
LINE
  8
0
 10
240.996
 11
241
 20
161.828
 21
161.776
  0
LINE
  8
0
 10
241
 11
241
 20
161.776
 21
161.724
  0
LINE
  8
0
 10
241
 11
240.996
 20
161.724
 21
161.672
  0
LINE
  8
0
 10
240.996
 11
240.989
 20
161.672
 21
161.62
  0
LINE
  8
0
 10
240.989
 11
240.978
 20
161.62
 21
161.569
  0
LINE
  8
0
 10
240.978
 11
240.963
 20
161.569
 21
161.518
  0
LINE
  8
0
 10
240.963
 11
240.945
 20
161.518
 21
161.469
  0
LINE
  8
0
 10
240.945
 11
240.924
 20
161.469
 21
161.421
  0
LINE
  8
0
 10
240.924
 11
240.9
 20
161.421
 21
161.375
  0
LINE
  8
0
 10
240.9
 11
240.872
 20
161.375
 21
161.331
  0
LINE
  8
0
 10
240.872
 11
240.841
 20
161.331
 21
161.288
  0
LINE
  8
0
 10
240.841
 11
240.807
 20
161.288
 21
161.248
  0
LINE
  8
0
 10
240.807
 11
240.771
 20
161.248
 21
161.21
  0
LINE
  8
0
 10
240.771
 11
240.732
 20
161.21
 21
161.175
  0
LINE
  8
0
 10
240.732
 11
240.691
 20
161.175
 21
161.143
  0
LINE
  8
0
 10
240.691
 11
240.647
 20
161.143
 21
161.114
  0
LINE
  8
0
 10
240.647
 11
240.602
 20
161.114
 21
161.088
  0
LINE
  8
0
 10
240.602
 11
240.555
 20
161.088
 21
161.065
  0
LINE
  8
0
 10
240.555
 11
240.507
 20
161.065
 21
161.045
  0
LINE
  8
0
 10
240.507
 11
240.457
 20
161.045
 21
161.029
  0
LINE
  8
0
 10
240.457
 11
240.406
 20
161.029
 21
161.016
  0
LINE
  8
0
 10
240.406
 11
240.354
 20
161.016
 21
161.007
  0
LINE
  8
0
 10
240.354
 11
240.302
 20
161.007
 21
161.002
  0
LINE
  8
0
 10
240.302
 11
240.25
 20
161.002
 21
161
  0
LINE
  8
0
 10
240.25
 11
222.75
 20
161
 21
161
  0
LINE
  8
0
 10
222.75
 11
222.698
 20
161
 21
161.002
  0
LINE
  8
0
 10
222.698
 11
222.646
 20
161.002
 21
161.007
  0
LINE
  8
0
 10
222.646
 11
222.594
 20
161.007
 21
161.016
  0
LINE
  8
0
 10
222.594
 11
222.543
 20
161.016
 21
161.029
  0
LINE
  8
0
 10
222.543
 11
222.493
 20
161.029
 21
161.045
  0
LINE
  8
0
 10
222.493
 11
222.445
 20
161.045
 21
161.065
  0
LINE
  8
0
 10
222.445
 11
222.398
 20
161.065
 21
161.088
  0
LINE
  8
0
 10
222.398
 11
222.353
 20
161.088
 21
161.114
  0
LINE
  8
0
 10
222.353
 11
222.309
 20
161.114
 21
161.143
  0
LINE
  8
0
 10
222.309
 11
222.268
 20
161.143
 21
161.175
  0
LINE
  8
0
 10
222.268
 11
222.229
 20
161.175
 21
161.21
  0
LINE
  8
0
 10
222.229
 11
222.193
 20
161.21
 21
161.248
  0
LINE
  8
0
 10
222.193
 11
222.159
 20
161.248
 21
161.288
  0
LINE
  8
0
 10
222.159
 11
222.128
 20
161.288
 21
161.331
  0
LINE
  8
0
 10
222.128
 11
222.1
 20
161.331
 21
161.375
  0
LINE
  8
0
 10
222.1
 11
222.076
 20
161.375
 21
161.421
  0
LINE
  8
0
 10
222.076
 11
222.055
 20
161.421
 21
161.469
  0
LINE
  8
0
 10
222.055
 11
222.037
 20
161.469
 21
161.518
  0
LINE
  8
0
 10
222.037
 11
222.022
 20
161.518
 21
161.569
  0
LINE
  8
0
 10
222.022
 11
222.011
 20
161.569
 21
161.62
  0
LINE
  8
0
 10
222.011
 11
222.004
 20
161.62
 21
161.672
  0
LINE
  8
0
 10
222.004
 11
222
 20
161.672
 21
161.724
  0
LINE
  8
0
 10
238.5
 11
238.509
 20
203
 21
203.244
  0
LINE
  8
0
 10
238.509
 11
238.534
 20
203.244
 21
203.487
  0
LINE
  8
0
 10
238.534
 11
238.576
 20
203.487
 21
203.728
  0
LINE
  8
0
 10
238.576
 11
238.636
 20
203.728
 21
203.965
  0
LINE
  8
0
 10
238.636
 11
238.711
 20
203.965
 21
204.197
  0
LINE
  8
0
 10
238.711
 11
238.803
 20
204.197
 21
204.424
  0
LINE
  8
0
 10
238.803
 11
238.91
 20
204.424
 21
204.643
  0
LINE
  8
0
 10
238.91
 11
239.032
 20
204.643
 21
204.855
  0
LINE
  8
0
 10
239.032
 11
239.168
 20
204.855
 21
205.057
  0
LINE
  8
0
 10
239.168
 11
239.319
 20
205.057
 21
205.25
  0
LINE
  8
0
 10
239.319
 11
239.482
 20
205.25
 21
205.431
  0
LINE
  8
0
 10
239.482
 11
239.658
 20
205.431
 21
205.601
  0
LINE
  8
0
 10
239.658
 11
239.845
 20
205.601
 21
205.758
  0
LINE
  8
0
 10
239.845
 11
240.043
 20
205.758
 21
205.902
  0
LINE
  8
0
 10
240.043
 11
240.25
 20
205.902
 21
206.031
  0
LINE
  8
0
 10
240.25
 11
240.466
 20
206.031
 21
206.146
  0
LINE
  8
0
 10
240.466
 11
240.689
 20
206.146
 21
206.245
  0
LINE
  8
0
 10
240.689
 11
240.918
 20
206.245
 21
206.329
  0
LINE
  8
0
 10
240.918
 11
241.153
 20
206.329
 21
206.396
  0
LINE
  8
0
 10
241.153
 11
241.392
 20
206.396
 21
206.447
  0
LINE
  8
0
 10
241.392
 11
241.634
 20
206.447
 21
206.481
  0
LINE
  8
0
 10
241.634
 11
241.878
 20
206.481
 21
206.498
  0
LINE
  8
0
 10
241.878
 11
242.122
 20
206.498
 21
206.498
  0
LINE
  8
0
 10
242.122
 11
242.366
 20
206.498
 21
206.481
  0
LINE
  8
0
 10
242.366
 11
242.608
 20
206.481
 21
206.447
  0
LINE
  8
0
 10
242.608
 11
242.847
 20
206.447
 21
206.396
  0
LINE
  8
0
 10
242.847
 11
243.082
 20
206.396
 21
206.329
  0
LINE
  8
0
 10
243.082
 11
243.311
 20
206.329
 21
206.245
  0
LINE
  8
0
 10
243.311
 11
243.534
 20
206.245
 21
206.146
  0
LINE
  8
0
 10
243.534
 11
243.75
 20
206.146
 21
206.031
  0
LINE
  8
0
 10
243.75
 11
243.957
 20
206.031
 21
205.902
  0
LINE
  8
0
 10
243.957
 11
244.155
 20
205.902
 21
205.758
  0
LINE
  8
0
 10
244.155
 11
244.342
 20
205.758
 21
205.601
  0
LINE
  8
0
 10
244.342
 11
244.518
 20
205.601
 21
205.431
  0
LINE
  8
0
 10
244.518
 11
244.681
 20
205.431
 21
205.25
  0
LINE
  8
0
 10
244.681
 11
244.832
 20
205.25
 21
205.057
  0
LINE
  8
0
 10
244.832
 11
244.968
 20
205.057
 21
204.855
  0
LINE
  8
0
 10
244.968
 11
245.09
 20
204.855
 21
204.643
  0
LINE
  8
0
 10
245.09
 11
245.197
 20
204.643
 21
204.424
  0
LINE
  8
0
 10
245.197
 11
245.289
 20
204.424
 21
204.197
  0
LINE
  8
0
 10
245.289
 11
245.364
 20
204.197
 21
203.965
  0
LINE
  8
0
 10
245.364
 11
245.424
 20
203.965
 21
203.728
  0
LINE
  8
0
 10
245.424
 11
245.466
 20
203.728
 21
203.487
  0
LINE
  8
0
 10
245.466
 11
245.491
 20
203.487
 21
203.244
  0
LINE
  8
0
 10
245.491
 11
245.5
 20
203.244
 21
203
  0
LINE
  8
0
 10
245.5
 11
245.491
 20
203
 21
202.756
  0
LINE
  8
0
 10
245.491
 11
245.466
 20
202.756
 21
202.513
  0
LINE
  8
0
 10
245.466
 11
245.424
 20
202.513
 21
202.272
  0
LINE
  8
0
 10
245.424
 11
245.364
 20
202.272
 21
202.035
  0
LINE
  8
0
 10
245.364
 11
245.289
 20
202.035
 21
201.803
  0
LINE
  8
0
 10
245.289
 11
245.197
 20
201.803
 21
201.576
  0
LINE
  8
0
 10
245.197
 11
245.09
 20
201.576
 21
201.357
  0
LINE
  8
0
 10
245.09
 11
244.968
 20
201.357
 21
201.145
  0
LINE
  8
0
 10
244.968
 11
244.832
 20
201.145
 21
200.943
  0
LINE
  8
0
 10
244.832
 11
244.681
 20
200.943
 21
200.75
  0
LINE
  8
0
 10
244.681
 11
244.518
 20
200.75
 21
200.569
  0
LINE
  8
0
 10
244.518
 11
244.342
 20
200.569
 21
200.399
  0
LINE
  8
0
 10
244.342
 11
244.155
 20
200.399
 21
200.242
  0
LINE
  8
0
 10
244.155
 11
243.957
 20
200.242
 21
200.098
  0
LINE
  8
0
 10
243.957
 11
243.75
 20
200.098
 21
199.969
  0
LINE
  8
0
 10
243.75
 11
243.534
 20
199.969
 21
199.854
  0
LINE
  8
0
 10
243.534
 11
243.311
 20
199.854
 21
199.755
  0
LINE
  8
0
 10
243.311
 11
243.082
 20
199.755
 21
199.671
  0
LINE
  8
0
 10
243.082
 11
242.847
 20
199.671
 21
199.604
  0
LINE
  8
0
 10
242.847
 11
242.608
 20
199.604
 21
199.553
  0
LINE
  8
0
 10
242.608
 11
242.366
 20
199.553
 21
199.519
  0
LINE
  8
0
 10
242.366
 11
242.122
 20
199.519
 21
199.502
  0
LINE
  8
0
 10
242.122
 11
241.878
 20
199.502
 21
199.502
  0
LINE
  8
0
 10
241.878
 11
241.634
 20
199.502
 21
199.519
  0
LINE
  8
0
 10
241.634
 11
241.392
 20
199.519
 21
199.553
  0
LINE
  8
0
 10
241.392
 11
241.153
 20
199.553
 21
199.604
  0
LINE
  8
0
 10
241.153
 11
240.918
 20
199.604
 21
199.671
  0
LINE
  8
0
 10
240.918
 11
240.689
 20
199.671
 21
199.755
  0
LINE
  8
0
 10
240.689
 11
240.466
 20
199.755
 21
199.854
  0
LINE
  8
0
 10
240.466
 11
240.25
 20
199.854
 21
199.969
  0
LINE
  8
0
 10
240.25
 11
240.043
 20
199.969
 21
200.098
  0
LINE
  8
0
 10
240.043
 11
239.845
 20
200.098
 21
200.242
  0
LINE
  8
0
 10
239.845
 11
239.658
 20
200.242
 21
200.399
  0
LINE
  8
0
 10
239.658
 11
239.482
 20
200.399
 21
200.569
  0
LINE
  8
0
 10
239.482
 11
239.319
 20
200.569
 21
200.75
  0
LINE
  8
0
 10
239.319
 11
239.168
 20
200.75
 21
200.943
  0
LINE
  8
0
 10
239.168
 11
239.032
 20
200.943
 21
201.145
  0
LINE
  8
0
 10
239.032
 11
238.91
 20
201.145
 21
201.357
  0
LINE
  8
0
 10
238.91
 11
238.803
 20
201.357
 21
201.576
  0
LINE
  8
0
 10
238.803
 11
238.711
 20
201.576
 21
201.803
  0
LINE
  8
0
 10
238.711
 11
238.636
 20
201.803
 21
202.035
  0
LINE
  8
0
 10
238.636
 11
238.576
 20
202.035
 21
202.272
  0
LINE
  8
0
 10
238.576
 11
238.534
 20
202.272
 21
202.513
  0
LINE
  8
0
 10
238.534
 11
238.509
 20
202.513
 21
202.756
  0
LINE
  8
0
 10
238.509
 11
238.5
 20
202.756
 21
203
  0
LINE
  8
0
 10
238.5
 11
238.509
 20
267
 21
267.244
  0
LINE
  8
0
 10
238.509
 11
238.534
 20
267.244
 21
267.487
  0
LINE
  8
0
 10
238.534
 11
238.576
 20
267.487
 21
267.728
  0
LINE
  8
0
 10
238.576
 11
238.636
 20
267.728
 21
267.965
  0
LINE
  8
0
 10
238.636
 11
238.711
 20
267.965
 21
268.197
  0
LINE
  8
0
 10
238.711
 11
238.803
 20
268.197
 21
268.424
  0
LINE
  8
0
 10
238.803
 11
238.91
 20
268.424
 21
268.643
  0
LINE
  8
0
 10
238.91
 11
239.032
 20
268.643
 21
268.855
  0
LINE
  8
0
 10
239.032
 11
239.168
 20
268.855
 21
269.057
  0
LINE
  8
0
 10
239.168
 11
239.319
 20
269.057
 21
269.25
  0
LINE
  8
0
 10
239.319
 11
239.482
 20
269.25
 21
269.431
  0
LINE
  8
0
 10
239.482
 11
239.658
 20
269.431
 21
269.601
  0
LINE
  8
0
 10
239.658
 11
239.845
 20
269.601
 21
269.758
  0
LINE
  8
0
 10
239.845
 11
240.043
 20
269.758
 21
269.902
  0
LINE
  8
0
 10
240.043
 11
240.25
 20
269.902
 21
270.031
  0
LINE
  8
0
 10
240.25
 11
240.466
 20
270.031
 21
270.146
  0
LINE
  8
0
 10
240.466
 11
240.689
 20
270.146
 21
270.245
  0
LINE
  8
0
 10
240.689
 11
240.918
 20
270.245
 21
270.329
  0
LINE
  8
0
 10
240.918
 11
241.153
 20
270.329
 21
270.396
  0
LINE
  8
0
 10
241.153
 11
241.392
 20
270.396
 21
270.447
  0
LINE
  8
0
 10
241.392
 11
241.634
 20
270.447
 21
270.481
  0
LINE
  8
0
 10
241.634
 11
241.878
 20
270.481
 21
270.498
  0
LINE
  8
0
 10
241.878
 11
242.122
 20
270.498
 21
270.498
  0
LINE
  8
0
 10
242.122
 11
242.366
 20
270.498
 21
270.481
  0
LINE
  8
0
 10
242.366
 11
242.608
 20
270.481
 21
270.447
  0
LINE
  8
0
 10
242.608
 11
242.847
 20
270.447
 21
270.396
  0
LINE
  8
0
 10
242.847
 11
243.082
 20
270.396
 21
270.329
  0
LINE
  8
0
 10
243.082
 11
243.311
 20
270.329
 21
270.245
  0
LINE
  8
0
 10
243.311
 11
243.534
 20
270.245
 21
270.146
  0
LINE
  8
0
 10
243.534
 11
243.75
 20
270.146
 21
270.031
  0
LINE
  8
0
 10
243.75
 11
243.957
 20
270.031
 21
269.902
  0
LINE
  8
0
 10
243.957
 11
244.155
 20
269.902
 21
269.758
  0
LINE
  8
0
 10
244.155
 11
244.342
 20
269.758
 21
269.601
  0
LINE
  8
0
 10
244.342
 11
244.518
 20
269.601
 21
269.431
  0
LINE
  8
0
 10
244.518
 11
244.681
 20
269.431
 21
269.25
  0
LINE
  8
0
 10
244.681
 11
244.832
 20
269.25
 21
269.057
  0
LINE
  8
0
 10
244.832
 11
244.968
 20
269.057
 21
268.855
  0
LINE
  8
0
 10
244.968
 11
245.09
 20
268.855
 21
268.643
  0
LINE
  8
0
 10
245.09
 11
245.197
 20
268.643
 21
268.424
  0
LINE
  8
0
 10
245.197
 11
245.289
 20
268.424
 21
268.197
  0
LINE
  8
0
 10
245.289
 11
245.364
 20
268.197
 21
267.965
  0
LINE
  8
0
 10
245.364
 11
245.424
 20
267.965
 21
267.728
  0
LINE
  8
0
 10
245.424
 11
245.466
 20
267.728
 21
267.487
  0
LINE
  8
0
 10
245.466
 11
245.491
 20
267.487
 21
267.244
  0
LINE
  8
0
 10
245.491
 11
245.5
 20
267.244
 21
267
  0
LINE
  8
0
 10
245.5
 11
245.491
 20
267
 21
266.756
  0
LINE
  8
0
 10
245.491
 11
245.466
 20
266.756
 21
266.513
  0
LINE
  8
0
 10
245.466
 11
245.424
 20
266.513
 21
266.272
  0
LINE
  8
0
 10
245.424
 11
245.364
 20
266.272
 21
266.035
  0
LINE
  8
0
 10
245.364
 11
245.289
 20
266.035
 21
265.803
  0
LINE
  8
0
 10
245.289
 11
245.197
 20
265.803
 21
265.576
  0
LINE
  8
0
 10
245.197
 11
245.09
 20
265.576
 21
265.357
  0
LINE
  8
0
 10
245.09
 11
244.968
 20
265.357
 21
265.145
  0
LINE
  8
0
 10
244.968
 11
244.832
 20
265.145
 21
264.943
  0
LINE
  8
0
 10
244.832
 11
244.681
 20
264.943
 21
264.75
  0
LINE
  8
0
 10
244.681
 11
244.518
 20
264.75
 21
264.569
  0
LINE
  8
0
 10
244.518
 11
244.342
 20
264.569
 21
264.399
  0
LINE
  8
0
 10
244.342
 11
244.155
 20
264.399
 21
264.242
  0
LINE
  8
0
 10
244.155
 11
243.957
 20
264.242
 21
264.098
  0
LINE
  8
0
 10
243.957
 11
243.75
 20
264.098
 21
263.969
  0
LINE
  8
0
 10
243.75
 11
243.534
 20
263.969
 21
263.854
  0
LINE
  8
0
 10
243.534
 11
243.311
 20
263.854
 21
263.755
  0
LINE
  8
0
 10
243.311
 11
243.082
 20
263.755
 21
263.671
  0
LINE
  8
0
 10
243.082
 11
242.847
 20
263.671
 21
263.604
  0
LINE
  8
0
 10
242.847
 11
242.608
 20
263.604
 21
263.553
  0
LINE
  8
0
 10
242.608
 11
242.366
 20
263.553
 21
263.519
  0
LINE
  8
0
 10
242.366
 11
242.122
 20
263.519
 21
263.502
  0
LINE
  8
0
 10
242.122
 11
241.878
 20
263.502
 21
263.502
  0
LINE
  8
0
 10
241.878
 11
241.634
 20
263.502
 21
263.519
  0
LINE
  8
0
 10
241.634
 11
241.392
 20
263.519
 21
263.553
  0
LINE
  8
0
 10
241.392
 11
241.153
 20
263.553
 21
263.604
  0
LINE
  8
0
 10
241.153
 11
240.918
 20
263.604
 21
263.671
  0
LINE
  8
0
 10
240.918
 11
240.689
 20
263.671
 21
263.755
  0
LINE
  8
0
 10
240.689
 11
240.466
 20
263.755
 21
263.854
  0
LINE
  8
0
 10
240.466
 11
240.25
 20
263.854
 21
263.969
  0
LINE
  8
0
 10
240.25
 11
240.043
 20
263.969
 21
264.098
  0
LINE
  8
0
 10
240.043
 11
239.845
 20
264.098
 21
264.242
  0
LINE
  8
0
 10
239.845
 11
239.658
 20
264.242
 21
264.399
  0
LINE
  8
0
 10
239.658
 11
239.482
 20
264.399
 21
264.569
  0
LINE
  8
0
 10
239.482
 11
239.319
 20
264.569
 21
264.75
  0
LINE
  8
0
 10
239.319
 11
239.168
 20
264.75
 21
264.943
  0
LINE
  8
0
 10
239.168
 11
239.032
 20
264.943
 21
265.145
  0
LINE
  8
0
 10
239.032
 11
238.91
 20
265.145
 21
265.357
  0
LINE
  8
0
 10
238.91
 11
238.803
 20
265.357
 21
265.576
  0
LINE
  8
0
 10
238.803
 11
238.711
 20
265.576
 21
265.803
  0
LINE
  8
0
 10
238.711
 11
238.636
 20
265.803
 21
266.035
  0
LINE
  8
0
 10
238.636
 11
238.576
 20
266.035
 21
266.272
  0
LINE
  8
0
 10
238.576
 11
238.534
 20
266.272
 21
266.513
  0
LINE
  8
0
 10
238.534
 11
238.509
 20
266.513
 21
266.756
  0
LINE
  8
0
 10
238.509
 11
238.5
 20
266.756
 21
267
  0
ENDSEC
  0
SECTION
  2
OBJECTS
  0
DICTIONARY
  0
ENDSEC
  0
EOF
